<?xml version="1.0" encoding="utf-8" standalone="no"?>
<!DOCTYPE svg PUBLIC "-//W3C//DTD SVG 1.1//EN"
  "http://www.w3.org/Graphics/SVG/1.1/DTD/svg11.dtd">
<svg xmlns:xlink="http://www.w3.org/1999/xlink" width="432pt" height="288pt" viewBox="0 0 432 288" xmlns="http://www.w3.org/2000/svg" version="1.1">
 <metadata>
  <rdf:RDF xmlns:dc="http://purl.org/dc/elements/1.1/" xmlns:cc="http://creativecommons.org/ns#" xmlns:rdf="http://www.w3.org/1999/02/22-rdf-syntax-ns#">
   <cc:Work>
    <dc:type rdf:resource="http://purl.org/dc/dcmitype/StillImage"/>
    <dc:date>2025-03-30T16:56:52.989712</dc:date>
    <dc:format>image/svg+xml</dc:format>
    <dc:creator>
     <cc:Agent>
      <dc:title>Matplotlib v3.5.3, https://matplotlib.org/</dc:title>
     </cc:Agent>
    </dc:creator>
   </cc:Work>
  </rdf:RDF>
 </metadata>
 <defs>
  <style type="text/css">*{stroke-linejoin: round; stroke-linecap: butt}</style>
 </defs>
 <g id="figure_1">
  <g id="patch_1">
   <path d="M 0 288 
L 432 288 
L 432 0 
L 0 0 
z
" style="fill: #ffffff"/>
  </g>
  <g id="axes_1">
   <g id="patch_2">
    <path d="M 108 253.44 
L 332.64 253.44 
L 332.64 28.8 
L 108 28.8 
z
" style="fill: #e5e5e5"/>
   </g>
   <g id="matplotlib.axis_1"/>
   <g id="matplotlib.axis_2"/>
   <g id="patch_3">
    <path d="M 220.32 243.229091 
C 247.399647 243.229091 273.373828 232.470233 292.522031 213.322031 
C 311.670233 194.173828 322.429091 168.199647 322.429091 141.12 
C 322.429091 114.040353 311.670233 88.066172 292.522031 68.917969 
C 273.373828 49.769767 247.399647 39.010909 220.32 39.010909 
C 193.240353 39.010909 167.266172 49.769767 148.117969 68.917969 
C 128.969767 88.066172 118.210909 114.040353 118.210909 141.12 
C 118.210909 168.199647 128.969767 194.173828 148.117969 213.322031 
C 167.266172 232.470233 193.240353 243.229091 220.32 243.229091 
L 220.32 243.229091 
z
" clip-path="url(#p54a8ec955c)" style="fill: none; stroke: #000000; stroke-width: 0.5; stroke-linejoin: miter"/>
   </g>
   <g id="patch_4">
    <path d="M 231.665455 231.883636 
C 255.736252 231.883636 278.824413 222.320207 295.845037 205.299583 
C 312.865662 188.278958 322.429091 165.190798 322.429091 141.12 
C 322.429091 117.049202 312.865662 93.961042 295.845037 76.940417 
C 278.824413 59.919793 255.736252 50.356364 231.665455 50.356364 
C 207.594657 50.356364 184.506496 59.919793 167.485872 76.940417 
C 150.465247 93.961042 140.901818 117.049202 140.901818 141.12 
C 140.901818 165.190798 150.465247 188.278958 167.485872 205.299583 
C 184.506496 222.320207 207.594657 231.883636 231.665455 231.883636 
L 231.665455 231.883636 
z
" clip-path="url(#pc3e66936ab)" style="fill: none; stroke: #808080; stroke-width: 0.5; stroke-linejoin: miter"/>
   </g>
   <g id="patch_5">
    <path d="M 240.741818 222.807273 
C 262.405536 222.807273 283.184881 214.200186 298.503443 198.881624 
C 313.822005 183.563063 322.429091 162.783718 322.429091 141.12 
C 322.429091 119.456282 313.822005 98.676937 298.503443 83.358376 
C 283.184881 68.039814 262.405536 59.432727 240.741818 59.432727 
C 219.0781 59.432727 198.298756 68.039814 182.980194 83.358376 
C 167.661632 98.676937 159.054545 119.456282 159.054545 141.12 
C 159.054545 162.783718 167.661632 183.563063 182.980194 198.881624 
C 198.298756 214.200186 219.0781 222.807273 240.741818 222.807273 
L 240.741818 222.807273 
z
" clip-path="url(#pc3e66936ab)" style="fill: none; stroke: #808080; stroke-width: 0.5; stroke-linejoin: miter"/>
   </g>
   <g id="patch_6">
    <path d="M 254.356364 209.192727 
C 272.409462 209.192727 289.725582 202.020155 302.491051 189.254687 
C 315.256519 176.489219 322.429091 159.173098 322.429091 141.12 
C 322.429091 123.066902 315.256519 105.750781 302.491051 92.985313 
C 289.725582 80.219845 272.409462 73.047273 254.356364 73.047273 
C 236.303265 73.047273 218.987145 80.219845 206.221677 92.985313 
C 193.456208 105.750781 186.283636 123.066902 186.283636 141.12 
C 186.283636 159.173098 193.456208 176.489219 206.221677 189.254687 
C 218.987145 202.020155 236.303265 209.192727 254.356364 209.192727 
L 254.356364 209.192727 
z
" clip-path="url(#pc3e66936ab)" style="fill: none; stroke: #808080; stroke-width: 0.5; stroke-linejoin: miter"/>
   </g>
   <g id="patch_7">
    <path d="M 271.374545 192.174545 
C 284.914369 192.174545 297.90146 186.795116 307.475561 177.221015 
C 317.049662 167.646914 322.429091 154.659824 322.429091 141.12 
C 322.429091 127.580176 317.049662 114.593086 307.475561 105.018985 
C 297.90146 95.444884 284.914369 90.065455 271.374545 90.065455 
C 257.834722 90.065455 244.847631 95.444884 235.27353 105.018985 
C 225.699429 114.593086 220.32 127.580176 220.32 141.12 
C 220.32 154.659824 225.699429 167.646914 235.27353 177.221015 
C 244.847631 186.795116 257.834722 192.174545 271.374545 192.174545 
L 271.374545 192.174545 
z
" clip-path="url(#pc3e66936ab)" style="fill: none; stroke: #808080; stroke-width: 0.5; stroke-linejoin: miter"/>
   </g>
   <g id="patch_8">
    <path d="M 288.392727 175.156364 
C 297.419276 175.156364 306.077337 171.570078 312.460071 165.187344 
C 318.842805 158.804609 322.429091 150.146549 322.429091 141.12 
C 322.429091 132.093451 318.842805 123.435391 312.460071 117.052656 
C 306.077337 110.669922 297.419276 107.083636 288.392727 107.083636 
C 279.366178 107.083636 270.708118 110.669922 264.325384 117.052656 
C 257.94265 123.435391 254.356364 132.093451 254.356364 141.12 
C 254.356364 150.146549 257.94265 158.804609 264.325384 165.187344 
C 270.708118 171.570078 279.366178 175.156364 288.392727 175.156364 
L 288.392727 175.156364 
z
" clip-path="url(#pc3e66936ab)" style="fill: none; stroke: #808080; stroke-width: 0.5; stroke-linejoin: miter"/>
   </g>
   <g id="patch_9">
    <path d="M 302.007273 161.541818 
C 307.423202 161.541818 312.618038 159.390047 316.447679 155.560406 
C 320.277319 151.730766 322.429091 146.535929 322.429091 141.12 
C 322.429091 135.704071 320.277319 130.509234 316.447679 126.679594 
C 312.618038 122.849953 307.423202 120.698182 302.007273 120.698182 
C 296.591343 120.698182 291.396507 122.849953 287.566867 126.679594 
C 283.737226 130.509234 281.585455 135.704071 281.585455 141.12 
C 281.585455 146.535929 283.737226 151.730766 287.566867 155.560406 
C 291.396507 159.390047 296.591343 161.541818 302.007273 161.541818 
L 302.007273 161.541818 
z
" clip-path="url(#pc3e66936ab)" style="fill: none; stroke: #808080; stroke-width: 0.5; stroke-linejoin: miter"/>
   </g>
   <g id="patch_10">
    <path d="M 311.083636 152.465455 
C 314.092486 152.465455 316.978506 151.270026 319.106084 149.142448 
C 321.233662 147.01487 322.429091 144.12885 322.429091 141.12 
C 322.429091 138.11115 321.233662 135.22513 319.106084 133.097552 
C 316.978506 130.969974 314.092486 129.774545 311.083636 129.774545 
C 308.074787 129.774545 305.188767 130.969974 303.061189 133.097552 
C 300.93361 135.22513 299.738182 138.11115 299.738182 141.12 
C 299.738182 144.12885 300.93361 147.01487 303.061189 149.142448 
C 305.188767 151.270026 308.074787 152.465455 311.083636 152.465455 
L 311.083636 152.465455 
z
" clip-path="url(#pc3e66936ab)" style="fill: none; stroke: #808080; stroke-width: 0.5; stroke-linejoin: miter"/>
   </g>
   <g id="patch_11">
    <path d="M 316.422674 147.126417 
C 318.015594 147.126417 319.543487 146.493543 320.669852 145.367178 
C 321.796217 144.240813 322.429091 142.71292 322.429091 141.12 
C 322.429091 139.52708 321.796217 137.999187 320.669852 136.872822 
C 319.543487 135.746457 318.015594 135.113583 316.422674 135.113583 
C 314.829753 135.113583 313.30186 135.746457 312.175496 136.872822 
C 311.049131 137.999187 310.416257 139.52708 310.416257 141.12 
C 310.416257 142.71292 311.049131 144.240813 312.175496 145.367178 
C 313.30186 146.493543 314.829753 147.126417 316.422674 147.126417 
L 316.422674 147.126417 
z
" clip-path="url(#pc3e66936ab)" style="fill: none; stroke: #808080; stroke-width: 0.5; stroke-linejoin: miter"/>
   </g>
   <g id="patch_12">
    <path d="M 319.334876 144.214215 
C 320.155471 144.214215 320.942568 143.888189 321.522816 143.30794 
C 322.103065 142.727692 322.429091 141.940595 322.429091 141.12 
C 322.429091 140.299405 322.103065 139.512308 321.522816 138.93206 
C 320.942568 138.351811 320.155471 138.025785 319.334876 138.025785 
C 318.514281 138.025785 317.727184 138.351811 317.146936 138.93206 
C 316.566687 139.512308 316.240661 140.299405 316.240661 141.12 
C 316.240661 141.940595 316.566687 142.727692 317.146936 143.30794 
C 317.727184 143.888189 318.514281 144.214215 319.334876 144.214215 
L 319.334876 144.214215 
z
" clip-path="url(#pc3e66936ab)" style="fill: none; stroke: #808080; stroke-width: 0.5; stroke-linejoin: miter"/>
   </g>
   <g id="patch_13">
    <path d="M 322.429091 141.12 
C 430.747681 141.12 534.644404 98.084568 611.237213 21.491759 
C 687.830023 -55.101051 730.865455 -158.997774 730.865455 -267.316364 
C 730.865455 -375.634953 687.830023 -479.531677 611.237213 -556.124486 
C 534.644404 -632.717295 430.747681 -675.752727 322.429091 -675.752727 
C 214.110501 -675.752727 110.213778 -632.717295 33.620968 -556.124486 
C -42.971841 -479.531677 -86.007273 -375.634953 -86.007273 -267.316364 
C -86.007273 -158.997774 -42.971841 -55.101051 33.620968 21.491759 
C 110.213778 98.084568 214.110501 141.12 322.429091 141.12 
L 322.429091 141.12 
z
" clip-path="url(#pc3e66936ab)" style="fill: none; stroke: #808080; stroke-width: 0.5; stroke-linejoin: miter"/>
   </g>
   <g id="patch_14">
    <path d="M 322.429091 141.12 
C 376.588386 141.12 428.536747 119.602284 466.833152 81.305879 
C 505.129557 43.009475 526.647273 -8.938887 526.647273 -63.098182 
C 526.647273 -117.257477 505.129557 -169.205838 466.833152 -207.502243 
C 428.536747 -245.798648 376.588386 -267.316364 322.429091 -267.316364 
C 268.269796 -267.316364 216.321434 -245.798648 178.02503 -207.502243 
C 139.728625 -169.205838 118.210909 -117.257477 118.210909 -63.098182 
C 118.210909 -8.938887 139.728625 43.009475 178.02503 81.305879 
C 216.321434 119.602284 268.269796 141.12 322.429091 141.12 
L 322.429091 141.12 
z
" clip-path="url(#pc3e66936ab)" style="fill: none; stroke: #808080; stroke-width: 0.5; stroke-linejoin: miter"/>
   </g>
   <g id="patch_15">
    <path d="M 322.429091 141.12 
C 349.508738 141.12 375.482919 130.361142 394.631122 111.21294 
C 413.779324 92.064737 424.538182 66.090557 424.538182 39.010909 
C 424.538182 11.931262 413.779324 -14.042919 394.631122 -33.191122 
C 375.482919 -52.339324 349.508738 -63.098182 322.429091 -63.098182 
C 295.349443 -63.098182 269.375263 -52.339324 250.22706 -33.191122 
C 231.078858 -14.042919 220.32 11.931262 220.32 39.010909 
C 220.32 66.090557 231.078858 92.064737 250.22706 111.21294 
C 269.375263 130.361142 295.349443 141.12 322.429091 141.12 
L 322.429091 141.12 
z
" clip-path="url(#pc3e66936ab)" style="fill: none; stroke: #808080; stroke-width: 0.5; stroke-linejoin: miter"/>
   </g>
   <g id="patch_16">
    <path d="M 322.429091 141.12 
C 335.968915 141.12 348.956005 135.740571 358.530106 126.16647 
C 368.104207 116.592369 373.483636 103.605278 373.483636 90.065455 
C 373.483636 76.525631 368.104207 63.53854 358.530106 53.964439 
C 348.956005 44.390338 335.968915 39.010909 322.429091 39.010909 
C 308.889267 39.010909 295.902177 44.390338 286.328076 53.964439 
C 276.753974 63.53854 271.374545 76.525631 271.374545 90.065455 
C 271.374545 103.605278 276.753974 116.592369 286.328076 126.16647 
C 295.902177 135.740571 308.889267 141.12 322.429091 141.12 
L 322.429091 141.12 
z
" clip-path="url(#pc3e66936ab)" style="fill: none; stroke: #808080; stroke-width: 0.5; stroke-linejoin: miter"/>
   </g>
   <g id="patch_17">
    <path d="M 322.429091 141.12 
C 329.199003 141.12 335.692548 138.430286 340.479599 133.643235 
C 345.266649 128.856184 347.956364 122.362639 347.956364 115.592727 
C 347.956364 108.822815 345.266649 102.32927 340.479599 97.54222 
C 335.692548 92.755169 329.199003 90.065455 322.429091 90.065455 
C 315.659179 90.065455 309.165634 92.755169 304.378583 97.54222 
C 299.591533 102.32927 296.901818 108.822815 296.901818 115.592727 
C 296.901818 122.362639 299.591533 128.856184 304.378583 133.643235 
C 309.165634 138.430286 315.659179 141.12 322.429091 141.12 
L 322.429091 141.12 
z
" clip-path="url(#pc3e66936ab)" style="fill: none; stroke: #808080; stroke-width: 0.5; stroke-linejoin: miter"/>
   </g>
   <g id="patch_18">
    <path d="M 322.429091 141.12 
C 325.814047 141.12 329.060819 139.775143 331.454345 137.381617 
C 333.84787 134.988092 335.192727 131.74132 335.192727 128.356364 
C 335.192727 124.971408 333.84787 121.724635 331.454345 119.33111 
C 329.060819 116.937585 325.814047 115.592727 322.429091 115.592727 
C 319.044135 115.592727 315.797362 116.937585 313.403837 119.33111 
C 311.010312 121.724635 309.665455 124.971408 309.665455 128.356364 
C 309.665455 131.74132 311.010312 134.988092 313.403837 137.381617 
C 315.797362 139.775143 319.044135 141.12 322.429091 141.12 
L 322.429091 141.12 
z
" clip-path="url(#pc3e66936ab)" style="fill: none; stroke: #808080; stroke-width: 0.5; stroke-linejoin: miter"/>
   </g>
   <g id="patch_19">
    <path d="M 322.429091 141.12 
C 324.121569 141.12 325.744955 140.447571 326.941718 139.250809 
C 328.13848 138.054046 328.810909 136.43066 328.810909 134.738182 
C 328.810909 133.045704 328.13848 131.422318 326.941718 130.225555 
C 325.744955 129.028792 324.121569 128.356364 322.429091 128.356364 
C 320.736613 128.356364 319.113227 129.028792 317.916464 130.225555 
C 316.719701 131.422318 316.047273 133.045704 316.047273 134.738182 
C 316.047273 136.43066 316.719701 138.054046 317.916464 139.250809 
C 319.113227 140.447571 320.736613 141.12 322.429091 141.12 
L 322.429091 141.12 
z
" clip-path="url(#pc3e66936ab)" style="fill: none; stroke: #808080; stroke-width: 0.5; stroke-linejoin: miter"/>
   </g>
   <g id="patch_20">
    <path d="M 322.429091 141.12 
C 323.27533 141.12 324.087023 140.783786 324.685404 140.185404 
C 325.283786 139.587023 325.62 138.77533 325.62 137.929091 
C 325.62 137.082852 325.283786 136.271159 324.685404 135.672777 
C 324.087023 135.074396 323.27533 134.738182 322.429091 134.738182 
C 321.582852 134.738182 320.771159 135.074396 320.172777 135.672777 
C 319.574396 136.271159 319.238182 137.082852 319.238182 137.929091 
C 319.238182 138.77533 319.574396 139.587023 320.172777 140.185404 
C 320.771159 140.783786 321.582852 141.12 322.429091 141.12 
L 322.429091 141.12 
z
" clip-path="url(#pc3e66936ab)" style="fill: none; stroke: #808080; stroke-width: 0.5; stroke-linejoin: miter"/>
   </g>
   <g id="patch_21">
    <path d="M 322.429091 141.12 
C 214.110501 141.12 110.213778 184.155432 33.620968 260.748241 
C -42.971841 337.341051 -86.007273 441.237774 -86.007273 549.556364 
C -86.007273 657.874953 -42.971841 761.771677 33.620968 838.364486 
C 110.213778 914.957295 214.110501 957.992727 322.429091 957.992727 
C 430.747681 957.992727 534.644404 914.957295 611.237213 838.364486 
C 687.830023 761.771677 730.865455 657.874953 730.865455 549.556364 
C 730.865455 441.237774 687.830023 337.341051 611.237213 260.748241 
C 534.644404 184.155432 430.747681 141.12 322.429091 141.12 
L 322.429091 141.12 
z
" clip-path="url(#pc3e66936ab)" style="fill: none; stroke: #808080; stroke-width: 0.5; stroke-linejoin: miter"/>
   </g>
   <g id="patch_22">
    <path d="M 322.429091 141.12 
C 268.269796 141.12 216.321434 162.637716 178.02503 200.934121 
C 139.728625 239.230525 118.210909 291.178887 118.210909 345.338182 
C 118.210909 399.497477 139.728625 451.445838 178.02503 489.742243 
C 216.321434 528.038648 268.269796 549.556364 322.429091 549.556364 
C 376.588386 549.556364 428.536747 528.038648 466.833152 489.742243 
C 505.129557 451.445838 526.647273 399.497477 526.647273 345.338182 
C 526.647273 291.178887 505.129557 239.230525 466.833152 200.934121 
C 428.536747 162.637716 376.588386 141.12 322.429091 141.12 
L 322.429091 141.12 
z
" clip-path="url(#pc3e66936ab)" style="fill: none; stroke: #808080; stroke-width: 0.5; stroke-linejoin: miter"/>
   </g>
   <g id="patch_23">
    <path d="M 322.429091 141.12 
C 295.349443 141.12 269.375263 151.878858 250.22706 171.02706 
C 231.078858 190.175263 220.32 216.149443 220.32 243.229091 
C 220.32 270.308738 231.078858 296.282919 250.22706 315.431122 
C 269.375263 334.579324 295.349443 345.338182 322.429091 345.338182 
C 349.508738 345.338182 375.482919 334.579324 394.631122 315.431122 
C 413.779324 296.282919 424.538182 270.308738 424.538182 243.229091 
C 424.538182 216.149443 413.779324 190.175263 394.631122 171.02706 
C 375.482919 151.878858 349.508738 141.12 322.429091 141.12 
L 322.429091 141.12 
z
" clip-path="url(#pc3e66936ab)" style="fill: none; stroke: #808080; stroke-width: 0.5; stroke-linejoin: miter"/>
   </g>
   <g id="patch_24">
    <path d="M 322.429091 141.12 
C 308.889267 141.12 295.902177 146.499429 286.328076 156.07353 
C 276.753974 165.647631 271.374545 178.634722 271.374545 192.174545 
C 271.374545 205.714369 276.753974 218.70146 286.328076 228.275561 
C 295.902177 237.849662 308.889267 243.229091 322.429091 243.229091 
C 335.968915 243.229091 348.956005 237.849662 358.530106 228.275561 
C 368.104207 218.70146 373.483636 205.714369 373.483636 192.174545 
C 373.483636 178.634722 368.104207 165.647631 358.530106 156.07353 
C 348.956005 146.499429 335.968915 141.12 322.429091 141.12 
L 322.429091 141.12 
z
" clip-path="url(#pc3e66936ab)" style="fill: none; stroke: #808080; stroke-width: 0.5; stroke-linejoin: miter"/>
   </g>
   <g id="patch_25">
    <path d="M 322.429091 141.12 
C 315.659179 141.12 309.165634 143.809714 304.378583 148.596765 
C 299.591533 153.383816 296.901818 159.877361 296.901818 166.647273 
C 296.901818 173.417185 299.591533 179.91073 304.378583 184.69778 
C 309.165634 189.484831 315.659179 192.174545 322.429091 192.174545 
C 329.199003 192.174545 335.692548 189.484831 340.479599 184.69778 
C 345.266649 179.91073 347.956364 173.417185 347.956364 166.647273 
C 347.956364 159.877361 345.266649 153.383816 340.479599 148.596765 
C 335.692548 143.809714 329.199003 141.12 322.429091 141.12 
L 322.429091 141.12 
z
" clip-path="url(#pc3e66936ab)" style="fill: none; stroke: #808080; stroke-width: 0.5; stroke-linejoin: miter"/>
   </g>
   <g id="patch_26">
    <path d="M 322.429091 141.12 
C 319.044135 141.12 315.797362 142.464857 313.403837 144.858383 
C 311.010312 147.251908 309.665455 150.49868 309.665455 153.883636 
C 309.665455 157.268592 311.010312 160.515365 313.403837 162.90889 
C 315.797362 165.302415 319.044135 166.647273 322.429091 166.647273 
C 325.814047 166.647273 329.060819 165.302415 331.454345 162.90889 
C 333.84787 160.515365 335.192727 157.268592 335.192727 153.883636 
C 335.192727 150.49868 333.84787 147.251908 331.454345 144.858383 
C 329.060819 142.464857 325.814047 141.12 322.429091 141.12 
L 322.429091 141.12 
z
" clip-path="url(#pc3e66936ab)" style="fill: none; stroke: #808080; stroke-width: 0.5; stroke-linejoin: miter"/>
   </g>
   <g id="patch_27">
    <path d="M 322.429091 141.12 
C 320.736613 141.12 319.113227 141.792429 317.916464 142.989191 
C 316.719701 144.185954 316.047273 145.80934 316.047273 147.501818 
C 316.047273 149.194296 316.719701 150.817682 317.916464 152.014445 
C 319.113227 153.211208 320.736613 153.883636 322.429091 153.883636 
C 324.121569 153.883636 325.744955 153.211208 326.941718 152.014445 
C 328.13848 150.817682 328.810909 149.194296 328.810909 147.501818 
C 328.810909 145.80934 328.13848 144.185954 326.941718 142.989191 
C 325.744955 141.792429 324.121569 141.12 322.429091 141.12 
L 322.429091 141.12 
z
" clip-path="url(#pc3e66936ab)" style="fill: none; stroke: #808080; stroke-width: 0.5; stroke-linejoin: miter"/>
   </g>
   <g id="patch_28">
    <path d="M 322.429091 141.12 
C 321.582852 141.12 320.771159 141.456214 320.172777 142.054596 
C 319.574396 142.652977 319.238182 143.46467 319.238182 144.310909 
C 319.238182 145.157148 319.574396 145.968841 320.172777 146.567223 
C 320.771159 147.165604 321.582852 147.501818 322.429091 147.501818 
C 323.27533 147.501818 324.087023 147.165604 324.685404 146.567223 
C 325.283786 145.968841 325.62 145.157148 325.62 144.310909 
C 325.62 143.46467 325.283786 142.652977 324.685404 142.054596 
C 324.087023 141.456214 323.27533 141.12 322.429091 141.12 
L 322.429091 141.12 
z
" clip-path="url(#pc3e66936ab)" style="fill: none; stroke: #808080; stroke-width: 0.5; stroke-linejoin: miter"/>
   </g>
   <g id="patch_29">
    <path d="M 220.32 243.229091 
C 247.399647 243.229091 273.373828 232.470233 292.522031 213.322031 
C 311.670233 194.173828 322.429091 168.199647 322.429091 141.12 
C 322.429091 114.040353 311.670233 88.066172 292.522031 68.917969 
C 273.373828 49.769767 247.399647 39.010909 220.32 39.010909 
C 193.240353 39.010909 167.266172 49.769767 148.117969 68.917969 
C 128.969767 88.066172 118.210909 114.040353 118.210909 141.12 
C 118.210909 168.199647 128.969767 194.173828 148.117969 213.322031 
C 167.266172 232.470233 193.240353 243.229091 220.32 243.229091 
L 220.32 243.229091 
z
" clip-path="url(#pc3e66936ab)" style="fill: none; stroke: #000000; stroke-width: 0.5; stroke-linejoin: miter"/>
   </g>
   <g id="patch_30">
    <path d="M 271.374545 192.174545 
C 284.914369 192.174545 297.90146 186.795116 307.475561 177.221015 
C 317.049662 167.646914 322.429091 154.659824 322.429091 141.12 
C 322.429091 127.580176 317.049662 114.593086 307.475561 105.018985 
C 297.90146 95.444884 284.914369 90.065455 271.374545 90.065455 
C 257.834722 90.065455 244.847631 95.444884 235.27353 105.018985 
C 225.699429 114.593086 220.32 127.580176 220.32 141.12 
C 220.32 154.659824 225.699429 167.646914 235.27353 177.221015 
C 244.847631 186.795116 257.834722 192.174545 271.374545 192.174545 
L 271.374545 192.174545 
z
" clip-path="url(#pc3e66936ab)" style="fill: none; stroke: #000000; stroke-width: 0.5; stroke-linejoin: miter"/>
   </g>
   <g id="patch_31">
    <path d="M 322.429091 141.12 
C 349.508738 141.12 375.482919 130.361142 394.631122 111.21294 
C 413.779324 92.064737 424.538182 66.090557 424.538182 39.010909 
C 424.538182 11.931262 413.779324 -14.042919 394.631122 -33.191122 
C 375.482919 -52.339324 349.508738 -63.098182 322.429091 -63.098182 
C 295.349443 -63.098182 269.375263 -52.339324 250.22706 -33.191122 
C 231.078858 -14.042919 220.32 11.931262 220.32 39.010909 
C 220.32 66.090557 231.078858 92.064737 250.22706 111.21294 
C 269.375263 130.361142 295.349443 141.12 322.429091 141.12 
L 322.429091 141.12 
z
" clip-path="url(#pc3e66936ab)" style="fill: none; stroke: #000000; stroke-width: 0.5; stroke-linejoin: miter"/>
   </g>
   <g id="patch_32">
    <path d="M 322.429091 141.12 
C 295.349443 141.12 269.375263 151.878858 250.22706 171.02706 
C 231.078858 190.175263 220.32 216.149443 220.32 243.229091 
C 220.32 270.308738 231.078858 296.282919 250.22706 315.431122 
C 269.375263 334.579324 295.349443 345.338182 322.429091 345.338182 
C 349.508738 345.338182 375.482919 334.579324 394.631122 315.431122 
C 413.779324 296.282919 424.538182 270.308738 424.538182 243.229091 
C 424.538182 216.149443 413.779324 190.175263 394.631122 171.02706 
C 375.482919 151.878858 349.508738 141.12 322.429091 141.12 
L 322.429091 141.12 
z
" clip-path="url(#pc3e66936ab)" style="fill: none; stroke: #000000; stroke-width: 0.5; stroke-linejoin: miter"/>
   </g>
   <g id="line2d_1">
    <path d="M 108 141.12 
L 332.64 141.12 
" clip-path="url(#pc3e66936ab)" style="fill: none; stroke: #000000; stroke-width: 0.1; stroke-linecap: square"/>
   </g>
   <g id="line2d_2">
    <path d="M 322.429091 253.44 
L 322.429091 28.8 
" clip-path="url(#pc3e66936ab)" style="fill: none; stroke: #000000; stroke-linecap: square"/>
   </g>
   <g id="line2d_3"/>
   <g id="line2d_4">
    <path d="M 223.905969 131.41402 
L 224.521279 130.795546 
L 227.675633 128.746829 
L 228.353433 128.472564 
L 231.536479 127.947825 
L 232.174661 127.988771 
L 234.268306 128.72947 
L 234.862887 128.999957 
L 235.316864 129.377352 
L 236.101164 130.525773 
L 236.720558 131.731886 
L 236.803471 132.359755 
L 236.658169 133.876075 
L 236.50909 134.658843 
L 236.253 135.384226 
L 235.833741 136.077751 
L 234.592911 137.518408 
L 233.855377 138.21132 
L 233.023698 138.817338 
L 232.056623 139.334418 
L 229.740074 140.194585 
L 228.455542 140.513778 
L 227.094223 140.711155 
L 225.640088 140.775586 
L 224.095279 140.715342 
L 222.484202 140.529503 
L 220.827584 140.198159 
L 219.130327 139.703747 
L 217.397536 139.046164 
L 215.652185 138.229904 
L 213.924703 137.24302 
L 212.228059 136.064783 
L 210.558779 134.693254 
L 208.926259 133.153653 
L 207.37175 131.469363 
L 205.943755 129.630583 
L 204.655955 127.609027 
L 203.486397 125.405309 
L 202.424259 123.068032 
L 201.50834 120.654173 
L 200.802051 118.173739 
L 200.329184 115.592217 
L 200.051141 112.894188 
L 199.919727 110.130299 
L 199.944131 107.384892 
L 200.188274 104.697483 
L 200.693101 102.033865 
L 201.419403 99.349519 
L 202.285799 96.667828 
L 203.258286 94.077117 
L 204.384141 91.644163 
L 205.72422 89.347015 
L 207.261779 87.114195 
L 210.582877 82.846342 
L 212.313116 80.962633 
L 214.169969 79.277119 
L 218.251985 76.198427 
L 220.308053 74.773087 
L 222.328179 73.52174 
L 224.38435 72.479716 
L 228.738282 70.738858 
L 232.969274 69.26522 
L 235.003287 68.774994 
L 239.207425 68.152639 
L 243.273307 67.670787 
L 245.16743 67.605845 
L 249.001423 67.831915 
L 252.739432 68.119862 
L 254.447921 68.368702 
L 257.830183 69.206916 
L 262.690882 70.564354 
L 265.616614 71.840411 
L 269.883753 73.837053 
L 272.380831 75.439042 
L 276.065641 77.965119 
L 278.165923 79.835655 
L 281.269733 82.840726 
L 282.988433 84.967862 
L 285.478057 88.450701 
L 286.79312 90.86068 
L 288.568797 94.861314 
L 289.030943 96.200067 
L 289.700983 99.104764 
L 290.23144 102.188561 
L 290.36071 103.732144 
L 290.248492 107.0125 
L 289.817489 110.508511 
L 289.419162 112.25233 
L 288.836834 114.019328 
L 288.07898 115.842486 
L 287.1746 117.705569 
L 286.118077 119.553437 
L 284.858868 121.343715 
L 283.345203 123.075486 
L 281.567177 124.760184 
L 279.547459 126.372282 
L 277.296158 127.842142 
L 274.789584 129.094 
L 271.999862 130.08119 
L 268.937304 130.775124 
L 265.656845 131.127911 
L 262.225979 131.060008 
L 258.700663 130.490239 
L 255.139711 129.373779 
L 251.635531 127.705827 
L 248.316373 125.497922 
L 245.313957 122.76538 
L 242.730495 119.547106 
L 240.637769 115.929687 
L 239.096841 112.040965 
L 238.15999 108.013067 
L 237.845698 103.955967 
L 238.118738 99.964318 
L 238.904365 96.136861 
L 240.126407 92.572539 
L 241.725537 89.339765 
L 243.643146 86.456817 
L 245.797443 83.910216 
L 248.092856 81.692407 
L 250.454741 79.812885 
L 252.850629 78.273182 
L 255.269389 77.0395 
L 257.684065 76.053841 
L 260.044725 75.272604 
L 262.310628 74.687825 
L 264.479425 74.304099 
L 266.575929 74.101107 
L 270.563493 74.044436 
L 274.12659 74.335549 
L 277.357117 74.995276 
L 280.320629 75.797139 
L 282.920633 76.758291 
L 286.460857 78.413684 
L 288.489459 79.55945 
L 292.113514 81.999653 
L 294.392181 83.896738 
L 296.437222 85.727656 
L 299.833268 89.450043 
L 302.56244 93.120252 
L 304.440941 96.11695 
L 306.022509 99.091694 
L 307.575792 102.680522 
L 308.431568 105.062217 
L 309.415389 108.738144 
L 309.901224 111.236039 
L 310.263507 115.135176 
L 310.27137 117.846071 
L 309.890197 121.379147 
L 309.200858 124.333163 
L 308.395932 126.573641 
L 307.331139 128.864969 
L 305.875471 131.124541 
L 304.713776 132.590623 
L 303.323255 133.966748 
L 301.72923 135.265779 
L 299.935071 136.374991 
L 297.90167 137.272427 
L 295.714596 137.894374 
L 293.388449 138.131165 
L 291.00706 137.977695 
L 289.846488 137.731408 
L 288.718183 137.361364 
L 287.631334 136.876857 
L 286.607282 136.293712 
L 285.673698 135.621119 
L 284.84978 134.862346 
L 284.141347 134.026788 
L 283.549829 133.137724 
L 283.082782 132.225686 
L 282.752051 131.314975 
L 282.561107 130.41958 
L 282.54528 128.735801 
L 282.918489 127.348853 
L 283.594145 126.351758 
L 284.395599 125.768715 
L 285.19256 125.641998 
L 285.879142 125.903193 
L 286.131351 126.163265 
L 286.411845 126.926326 
L 286.347312 127.908309 
L 285.82921 129.012619 
L 284.830277 130.149297 
L 284.140122 130.673015 
L 283.309464 131.141287 
L 282.337999 131.540125 
L 281.235935 131.848699 
L 280.015323 132.036069 
L 278.684739 132.068642 
L 277.253885 131.919767 
L 275.743998 131.570043 
L 274.190918 131.000274 
L 272.638043 130.187894 
L 271.128156 129.114217 
L 269.703734 127.775057 
L 268.41328 126.184299 
L 267.312237 124.367472 
L 266.453602 122.355821 
L 265.876481 120.188147 
L 265.602931 117.916526 
L 265.64306 115.605287 
L 265.999727 113.320187 
L 266.664253 111.117184 
L 267.6106 109.040081 
L 268.797108 107.126863 
L 270.177521 105.411532 
L 271.710586 103.919105 
L 273.360363 102.65765 
L 275.088968 101.620323 
L 276.855557 100.79518 
L 278.623474 100.17354 
L 280.368621 99.747132 
L 282.078641 99.500437 
L 283.742815 99.409662 
L 285.346234 99.450607 
L 286.873889 99.607855 
L 289.687607 100.237664 
L 292.20623 101.190342 
L 294.41005 102.356632 
L 296.319592 103.709373 
L 297.980294 105.172495 
L 299.377147 106.716282 
L 300.559978 108.338591 
L 301.539919 109.985407 
L 302.309924 111.67521 
L 302.916248 113.391459 
L 303.334793 115.108424 
L 303.644796 117.728849 
L 303.636525 119.463377 
L 303.444254 121.211484 
L 303.087587 122.941927 
L 302.524353 124.643779 
L 301.768337 126.326435 
L 300.807389 127.939248 
L 299.609241 129.482423 
L 298.194928 130.923488 
L 296.533919 132.206183 
L 294.629482 133.315087 
L 292.506022 134.174335 
L 290.157615 134.731647 
L 287.644404 134.939541 
L 286.342819 134.884096 
L 285.017035 134.715003 
L 283.678385 134.431957 
L 282.344227 134.031178 
L 281.030287 133.505317 
L 279.747593 132.848959 
L 278.506253 132.064047 
L 277.32097 131.158441 
L 276.211249 130.139086 
L 275.194855 129.010372 
L 274.283531 127.777916 
L 273.484834 126.454275 
L 272.807851 125.057627 
L 272.264222 123.606045 
L 271.86324 122.113618 
L 271.606639 120.593009 
L 271.490337 119.061067 
L 271.510248 117.538212 
L 271.664637 116.043641 
L 271.950849 114.589608 
L 272.36 113.184791 
L 272.877795 111.838891 
L 273.490756 110.564671 
L 274.189999 109.372956 
L 275.814453 107.249189 
L 277.650477 105.470347 
L 279.610358 104.056034 
L 281.642534 102.97623 
L 283.668684 102.199486 
L 285.661241 101.710486 
L 287.591409 101.450925 
L 289.421306 101.403648 
L 291.992413 101.654836 
L 293.558358 101.994349 
L 295.717455 102.715852 
L 297.618522 103.626563 
L 299.302607 104.678389 
L 300.755926 105.847231 
L 302.01054 107.082343 
L 303.383397 108.830757 
L 304.186995 110.184723 
L 304.825177 111.553292 
L 305.393312 113.398301 
L 305.604168 114.760436 
L 305.650015 116.090305 
L 305.500833 117.364218 
L 305.184295 118.536839 
L 304.694376 119.593055 
L 304.058746 120.463637 
L 303.324378 121.133269 
L 302.533339 121.550078 
L 301.786615 121.71284 
L 301.142409 121.643304 
L 300.697417 121.383946 
L 300.48503 121.03943 
L 300.516684 120.680109 
L 300.770425 120.41585 
L 301.170795 120.291481 
L 301.841448 120.403495 
L 302.515674 120.836438 
L 303.072066 121.530779 
L 303.445683 122.402383 
L 303.612734 123.375278 
L 303.566785 124.385545 
L 303.229723 125.607076 
L 302.636061 126.72078 
L 301.830522 127.692859 
L 300.831384 128.499316 
L 299.641711 129.09012 
L 298.566401 129.346822 
L 297.724001 129.375004 
L 296.60029 129.173543 
L 295.570418 128.67668 
L 294.932542 128.125801 
L 294.453446 127.477306 
L 294.094329 126.523608 
L 294.069414 125.595538 
L 294.325095 124.818692 
L 294.759161 124.271387 
L 295.260006 123.971799 
L 295.84356 123.911351 
L 296.259654 124.101886 
L 296.454887 124.421488 
L 296.429155 124.761103 
L 296.216666 125.035163 
L 295.873171 125.184855 
L 295.464939 125.180056 
L 294.979512 124.973081 
L 294.589149 124.585475 
L 294.320602 123.999062 
L 294.238303 123.311051 
L 294.279453 121.320026 
L 294.321521 120.330793 
L 294.625296 119.405277 
L 295.145848 118.631698 
L 295.943831 117.963802 
L 296.687798 117.618572 
L 297.489762 117.429363 
L 298.577735 117.445497 
L 299.567172 117.731198 
L 300.38384 118.199368 
L 301.014262 118.76056 
L 301.564221 119.506671 
L 301.983277 120.496108 
L 302.120001 121.3139 
L 302.009111 122.394316 
L 302.019934 122.849722 
L 302.57939 123.422554 
L 302.809135 123.870405 
L 302.914104 124.620498 
L 302.740416 125.39857 
L 302.380481 126.466937 
L 302.15043 127.163015 
L 301.850331 127.659163 
L 301.18846 128.218006 
L 300.628085 128.467765 
L 299.785787 128.567321 
L 299.037328 128.471747 
L 298.248433 128.118552 
L 297.614438 127.650279 
L 297.113592 127.022819 
L 296.689942 125.978856 
L 296.66952 125.062222 
L 296.879048 124.271694 
L 297.13044 123.809446 
L 297.67121 123.218643 
L 298.080974 122.943663 
L 298.881407 122.6598 
L 299.424117 122.635395 
L 299.909952 122.724843 
L 300.315529 122.899245 
L 300.628392 123.126642 
L 300.846292 123.37538 
L 301.006093 123.649237 
L 301.053574 123.854578 
L 301.053574 123.854578 
" clip-path="url(#p54a8ec955c)" style="fill: none; stroke: #348abd; stroke-linecap: square"/>
   </g>
   <g id="line2d_5">
    <path d="M 315.595542 177.014205 
L 314.448142 179.965157 
L 310.740765 186.078735 
L 308.922917 189.565352 
L 307.419157 192.827023 
L 305.821251 195.561606 
L 303.719234 198.045614 
L 301.218378 200.750075 
L 298.789203 203.773015 
L 296.716797 206.720292 
L 294.736084 209.178772 
L 292.370421 211.253935 
L 289.543837 213.417729 
L 286.651903 215.923486 
L 284.085596 218.508174 
L 281.74597 220.703417 
L 279.159853 222.433349 
L 276.088514 224.100586 
L 272.8054 226.072313 
L 267.012854 230.140952 
L 264.171872 231.538111 
L 257.237746 234.092063 
L 250.519376 237.228242 
L 247.379215 238.22789 
L 239.934646 239.541013 
L 232.342733 241.406342 
L 228.895836 241.874103 
L 225.208166 241.848882 
L 221.093885 241.708482 
L 212.848474 241.885846 
L 209.169483 241.633432 
L 205.428921 240.816764 
L 201.327403 239.708472 
L 192.908815 237.785655 
L 189.208892 236.621203 
L 185.656618 234.892088 
L 177.912257 230.547857 
L 174.091232 228.500978 
L 170.737051 226.340349 
L 167.736269 223.70859 
L 158.507037 214.309244 
L 155.926842 211.306113 
L 153.846063 208.016567 
L 148.064442 196.784771 
L 146.547509 193.344409 
L 145.566854 189.845948 
L 143.502412 178.421983 
L 143.04966 175.033901 
L 143.06079 171.786321 
L 144.436097 158.597605 
L 145.132584 155.883953 
L 148.11325 147.597801 
L 148.975766 145.176692 
L 150.025243 143.062217 
L 153.939391 136.76566 
L 155.027669 134.877152 
L 156.182523 133.284965 
L 160.302625 128.67331 
L 161.443592 127.21846 
L 162.562095 126.019393 
L 166.478081 122.67532 
L 168.602562 120.609653 
L 172.132371 118.138409 
L 174.072853 116.45994 
L 178.119742 113.767425 
L 179.751343 112.547528 
L 181.635971 111.448119 
L 184.766329 109.097976 
L 185.636911 108.547098 
L 187.166403 107.217127 
L 188.534155 106.118739 
L 190.143394 104.871885 
L 192.187924 102.848696 
L 193.809621 101.455928 
L 196.900157 98.264917 
L 198.773144 96.410309 
L 200.604777 94.451346 
L 206.736632 88.972581 
L 209.947656 86.683397 
L 213.781138 84.173352 
L 215.884585 82.968056 
L 218.209405 81.867524 
L 220.815638 80.842145 
L 223.682452 79.865369 
L 226.753894 78.987435 
L 230.019343 78.318825 
L 233.526892 77.950211 
L 237.313505 77.907938 
L 241.339769 78.196294 
L 245.504288 78.865313 
L 249.71251 80.016695 
L 253.910726 81.737743 
L 258.04788 84.043979 
L 262.02023 86.890372 
L 265.675224 90.2274 
L 268.872566 94.023101 
L 271.533529 98.228259 
L 273.629318 102.735355 
L 275.138184 107.390202 
L 276.032762 112.047908 
L 276.314073 116.609938 
L 276.040727 121.007674 
L 275.311464 125.168211 
L 274.217058 129.012517 
L 272.818062 132.49025 
L 271.167366 135.602025 
L 269.339205 138.377452 
L 267.419962 140.834707 
L 265.472129 142.971748 
L 263.516638 144.794906 
L 261.559411 146.344003 
L 259.625873 147.675199 
L 255.989258 149.791615 
L 254.305173 150.578876 
L 251.120697 151.74394 
L 248.273895 152.577763 
L 245.779983 153.058391 
L 241.537656 153.517269 
L 237.483619 153.478978 
L 233.445103 152.999576 
L 225.827254 151.799283 
L 224.715796 151.820318 
L 223.306282 152.097544 
L 221.817123 152.560915 
L 216.694515 154.608713 
L 214.785483 155.089749 
L 213.066374 155.377594 
L 210.20201 155.506762 
L 207.602313 155.19778 
L 205.674391 154.753095 
L 203.598615 153.961035 
L 201.387749 152.829973 
L 200.286605 152.108776 
L 198.109435 150.260908 
L 197.043722 149.14894 
L 196.032842 147.924141 
L 195.110082 146.57528 
L 194.287798 145.089185 
L 193.56558 143.473819 
L 192.952721 141.758692 
L 192.477608 139.972804 
L 192.170157 138.127285 
L 192.038947 136.223154 
L 192.07152 134.274504 
L 192.255521 132.316256 
L 192.595748 130.385782 
L 193.104149 128.50095 
L 193.777865 126.661046 
L 194.591981 124.867704 
L 195.518314 123.139508 
L 196.545123 121.501985 
L 197.676492 119.965141 
L 198.911604 118.517949 
L 201.610755 115.849838 
L 204.518822 113.533085 
L 207.672462 111.548799 
L 211.013982 109.823359 
L 214.555227 108.419359 
L 218.371759 107.307289 
L 220.370136 106.86965 
L 222.43376 106.539225 
L 224.578562 106.329799 
L 226.811279 106.245048 
L 229.12211 106.292938 
L 231.494002 106.497564 
L 233.916438 106.892726 
L 236.385232 107.505687 
L 238.8867 108.35064 
L 241.387965 109.437387 
L 243.842973 110.782368 
L 246.20639 112.404881 
L 248.43921 114.311769 
L 250.50018 116.487713 
L 252.338246 118.900858 
L 253.899289 121.51434 
L 255.141344 124.289767 
L 256.044091 127.178637 
L 256.60324 130.117745 
L 256.820835 133.037657 
L 256.705349 135.878026 
L 256.279963 138.594536 
L 255.585927 141.153185 
L 254.673685 143.522423 
L 253.588673 145.675597 
L 252.367551 147.600762 
L 251.045136 149.303839 
L 249.660537 150.799635 
L 248.252963 152.099995 
L 246.850188 153.21278 
L 245.465589 154.150039 
L 242.788084 155.591717 
L 240.324294 156.589629 
L 238.101583 157.225361 
L 235.187696 157.767254 
L 232.760665 157.974841 
L 229.53994 158.038762 
L 225.331106 158.133008 
L 223.743922 158.325994 
L 221.359573 158.824695 
L 216.386451 159.877236 
L 214.454956 160.032442 
L 212.280951 159.996397 
L 209.858822 159.608893 
L 208.164321 159.113562 
L 206.42571 158.356015 
L 204.698739 157.351567 
L 203.073264 156.055088 
L 201.577774 154.481281 
L 200.315604 152.685795 
L 199.334744 150.680474 
L 198.651123 148.571615 
L 198.319065 146.425078 
L 198.290576 144.295899 
L 198.547993 142.287822 
L 199.063848 140.411261 
L 199.749 138.712063 
L 200.590379 137.218922 
L 202.004488 135.309074 
L 203.515805 133.814401 
L 205.007108 132.642801 
L 206.925227 131.494482 
L 208.688141 130.701503 
L 210.65517 130.023295 
L 213.041562 129.397774 
L 217.822616 128.479916 
L 220.440795 128.244656 
L 221.909941 128.292239 
L 223.503047 128.545674 
L 225.176002 129.109622 
L 226.41193 129.793039 
L 227.56658 130.698848 
L 228.565105 131.846963 
L 229.096072 132.707845 
L 229.662471 134.122362 
L 229.863422 135.084944 
L 229.907023 136.522028 
L 229.661859 137.837907 
L 229.199304 138.990311 
L 228.563471 139.927978 
L 227.848605 140.640904 
L 226.837419 141.267752 
L 225.857682 141.548348 
L 224.989857 141.532623 
L 224.448577 141.366389 
L 223.887487 140.96653 
L 223.566354 140.405032 
L 223.517444 139.921954 
L 223.62619 139.426725 
L 224.056784 138.794261 
L 224.591836 138.411454 
L 225.272699 138.147196 
L 226.101621 138.040798 
L 227.018765 138.142193 
L 227.994213 138.457199 
L 228.970682 139.03095 
L 229.879759 139.843636 
L 230.677334 140.903427 
L 231.277429 142.17397 
L 231.653088 143.605131 
L 231.746109 145.151777 
L 231.549345 146.722113 
L 231.066573 148.272538 
L 230.306882 149.718198 
L 229.327451 151.023765 
L 228.144926 152.150539 
L 226.829455 153.067581 
L 225.406054 153.784386 
L 223.922307 154.273183 
L 222.418342 154.567155 
L 220.412205 154.645881 
L 218.952453 154.484957 
L 217.543143 154.172707 
L 215.765935 153.506854 
L 214.540421 152.843451 
L 213.048505 151.778453 
L 211.745593 150.515364 
L 210.665688 149.08359 
L 210.020869 147.931289 
L 209.366145 146.312247 
L 208.972923 144.626937 
L 208.854068 142.924778 
L 208.938308 141.674861 
L 209.264445 140.048569 
L 209.841157 138.512032 
L 210.650065 137.113239 
L 211.383412 136.178737 
L 212.525809 135.08668 
L 213.834337 134.221612 
L 214.89474 133.753135 
L 215.998335 133.429552 
L 217.512204 133.282719 
L 218.617739 133.398 
L 219.663643 133.683497 
L 220.602332 134.157794 
L 221.376421 134.758297 
L 222.130701 135.691881 
L 222.539647 136.644048 
L 222.67096 137.652375 
L 222.53107 138.676427 
L 222.511465 139.504022 
L 222.556904 140.326817 
L 222.408641 140.977456 
L 222.102212 141.47779 
L 221.558073 141.89123 
L 221.015771 142.05052 
L 220.496138 142.013965 
L 220.019187 141.769618 
L 219.620349 141.245084 
L 219.520486 140.56177 
L 219.623718 140.125764 
L 220.069935 139.575192 
L 220.615197 139.329109 
L 221.170977 139.358822 
L 221.700821 139.610419 
L 222.019708 139.966984 
L 222.2033 140.617623 
L 222.133253 141.052812 
L 221.734619 141.556823 
L 221.469646 141.672614 
L 221.132993 141.527415 
L 221.105832 141.325443 
L 221.463928 141.159108 
L 221.838362 141.266833 
L 222.116507 141.547531 
L 222.329201 142.331218 
L 222.058101 143.215789 
L 221.282378 143.939947 
L 220.23964 144.246785 
L 219.451358 144.224831 
L 218.252495 143.60411 
L 218.252495 143.60411 
" clip-path="url(#p54a8ec955c)" style="fill: none; stroke: #b74331; stroke-linecap: square"/>
   </g>
   <g id="line2d_6">
    <path d="M 315.595542 177.014205 
L 314.448142 179.965157 
L 310.740765 186.078735 
L 308.922917 189.565352 
L 307.419157 192.827023 
L 305.821251 195.561606 
L 303.719234 198.045614 
L 301.218378 200.750075 
L 298.789203 203.773015 
L 296.716797 206.720292 
L 294.736084 209.178772 
L 292.370421 211.253935 
L 289.543837 213.417729 
L 286.651903 215.923486 
L 284.085596 218.508174 
L 281.74597 220.703417 
L 279.159853 222.433349 
L 276.088514 224.100586 
L 272.8054 226.072313 
L 267.012854 230.140952 
L 264.171872 231.538111 
L 257.237746 234.092063 
L 250.519376 237.228242 
L 247.379215 238.22789 
L 239.934646 239.541013 
L 232.342733 241.406342 
L 228.895836 241.874103 
L 225.208166 241.848882 
L 221.093885 241.708482 
L 212.848474 241.885846 
L 209.169483 241.633432 
L 205.428921 240.816764 
L 201.327403 239.708472 
L 192.908815 237.785655 
L 189.208892 236.621203 
L 185.656618 234.892088 
L 177.912257 230.547857 
L 174.091232 228.500978 
L 170.737051 226.340349 
L 167.736269 223.70859 
L 158.507037 214.309244 
L 155.926842 211.306113 
L 153.846063 208.016567 
L 148.064442 196.784771 
L 146.547509 193.344409 
L 145.566854 189.845948 
L 143.502412 178.421983 
L 143.04966 175.033901 
L 143.06079 171.786321 
L 144.436097 158.597605 
L 145.132584 155.883953 
L 148.11325 147.597801 
L 148.975766 145.176692 
L 150.025243 143.062217 
L 153.939391 136.76566 
L 155.027669 134.877152 
L 156.182523 133.284965 
L 160.302625 128.67331 
L 161.443592 127.21846 
L 162.562095 126.019393 
L 166.478081 122.67532 
L 168.602562 120.609653 
L 172.132371 118.138409 
L 174.072853 116.45994 
L 178.119742 113.767425 
L 179.751343 112.547528 
L 181.635971 111.448119 
L 184.766329 109.097976 
L 185.636911 108.547098 
L 187.166403 107.217127 
L 188.534155 106.118739 
L 190.143394 104.871885 
L 192.187924 102.848696 
L 193.809621 101.455928 
L 196.900157 98.264917 
L 198.773144 96.410309 
L 200.604777 94.451346 
L 206.736632 88.972581 
L 209.947656 86.683397 
L 213.781138 84.173352 
L 215.884585 82.968056 
L 218.209405 81.867524 
L 220.815638 80.842145 
L 223.682452 79.865369 
L 226.753894 78.987435 
L 230.019343 78.318825 
L 233.526892 77.950211 
L 237.313505 77.907938 
L 241.339769 78.196294 
L 245.504288 78.865313 
L 249.71251 80.016695 
L 253.910726 81.737743 
L 258.04788 84.043979 
L 262.02023 86.890372 
L 265.675224 90.2274 
L 268.872566 94.023101 
L 271.533529 98.228259 
L 273.629318 102.735355 
L 275.138184 107.390202 
L 276.032762 112.047908 
L 276.314073 116.609938 
L 276.040727 121.007674 
L 275.311464 125.168211 
L 274.217058 129.012517 
L 272.818062 132.49025 
L 271.167366 135.602025 
L 269.339205 138.377452 
L 267.419962 140.834707 
L 265.472129 142.971748 
L 263.516638 144.794906 
L 261.559411 146.344003 
L 259.625873 147.675199 
L 255.989258 149.791615 
L 254.305173 150.578876 
L 251.120697 151.74394 
L 248.273895 152.577763 
L 245.779983 153.058391 
L 241.537656 153.517269 
L 237.483619 153.478978 
L 233.445103 152.999576 
L 225.827254 151.799283 
L 224.715796 151.820318 
L 223.306282 152.097544 
L 221.817123 152.560915 
L 216.694515 154.608713 
L 214.785483 155.089749 
L 213.066374 155.377594 
L 210.20201 155.506762 
L 207.602313 155.19778 
L 205.674391 154.753095 
L 203.598615 153.961035 
L 201.387749 152.829973 
L 200.286605 152.108776 
L 198.109435 150.260908 
L 197.043722 149.14894 
L 196.032842 147.924141 
L 195.110082 146.57528 
L 194.287798 145.089185 
L 193.56558 143.473819 
L 192.952721 141.758692 
L 192.477608 139.972804 
L 192.170157 138.127285 
L 192.038947 136.223154 
L 192.07152 134.274504 
L 192.255521 132.316256 
L 192.595748 130.385782 
L 193.104149 128.50095 
L 193.777865 126.661046 
L 194.591981 124.867704 
L 195.518314 123.139508 
L 196.545123 121.501985 
L 197.676492 119.965141 
L 198.911604 118.517949 
L 201.610755 115.849838 
L 204.518822 113.533085 
L 207.672462 111.548799 
L 211.013982 109.823359 
L 214.555227 108.419359 
L 218.371759 107.307289 
L 220.370136 106.86965 
L 222.43376 106.539225 
L 224.578562 106.329799 
L 226.811279 106.245048 
L 229.12211 106.292938 
L 231.494002 106.497564 
L 233.916438 106.892726 
L 236.385232 107.505687 
L 238.8867 108.35064 
L 241.387965 109.437387 
L 243.842973 110.782368 
L 246.20639 112.404881 
L 248.43921 114.311769 
L 250.50018 116.487713 
L 252.338246 118.900858 
L 253.899289 121.51434 
L 255.141344 124.289767 
L 256.044091 127.178637 
L 256.60324 130.117745 
L 256.820835 133.037657 
L 256.705349 135.878026 
L 256.279963 138.594536 
L 255.585927 141.153185 
L 254.673685 143.522423 
L 253.588673 145.675597 
L 252.367551 147.600762 
L 251.045136 149.303839 
L 249.660537 150.799635 
L 248.252963 152.099995 
L 246.850188 153.21278 
L 245.465589 154.150039 
L 242.788084 155.591717 
L 240.324294 156.589629 
L 238.101583 157.225361 
L 235.187696 157.767254 
L 232.760665 157.974841 
L 229.53994 158.038762 
L 225.331106 158.133008 
L 223.743922 158.325994 
L 221.359573 158.824695 
L 216.386451 159.877236 
L 214.454956 160.032442 
L 212.280951 159.996397 
L 209.858822 159.608893 
L 208.164321 159.113562 
L 206.42571 158.356015 
L 204.698739 157.351567 
L 203.073264 156.055088 
L 201.577774 154.481281 
L 200.315604 152.685795 
L 199.334744 150.680474 
L 198.651123 148.571615 
L 198.319065 146.425078 
L 198.290576 144.295899 
L 198.547993 142.287822 
L 199.063848 140.411261 
L 199.749 138.712063 
L 200.590379 137.218922 
L 202.004488 135.309074 
L 203.515805 133.814401 
L 205.007108 132.642801 
L 206.925227 131.494482 
L 208.688141 130.701503 
L 210.65517 130.023295 
L 213.041562 129.397774 
L 217.822616 128.479916 
L 220.440795 128.244656 
L 221.909941 128.292239 
L 223.503047 128.545674 
L 225.176002 129.109622 
L 226.41193 129.793039 
L 227.56658 130.698848 
L 228.565105 131.846963 
L 229.096072 132.707845 
L 229.662471 134.122362 
L 229.863422 135.084944 
L 229.907023 136.522028 
L 229.661859 137.837907 
L 229.199304 138.990311 
L 228.563471 139.927978 
L 227.848605 140.640904 
L 226.837419 141.267752 
L 225.857682 141.548348 
L 224.989857 141.532623 
L 224.448577 141.366389 
L 223.887487 140.96653 
L 223.566354 140.405032 
L 223.517444 139.921954 
L 223.62619 139.426725 
L 224.056784 138.794261 
L 224.591836 138.411454 
L 225.272699 138.147196 
L 226.101621 138.040798 
L 227.018765 138.142193 
L 227.994213 138.457199 
L 228.970682 139.03095 
L 229.879759 139.843636 
L 230.677334 140.903427 
L 231.277429 142.17397 
L 231.653088 143.605131 
L 231.746109 145.151777 
L 231.549345 146.722113 
L 231.066573 148.272538 
L 230.306882 149.718198 
L 229.327451 151.023765 
L 228.144926 152.150539 
L 226.829455 153.067581 
L 225.406054 153.784386 
L 223.922307 154.273183 
L 222.418342 154.567155 
L 220.412205 154.645881 
L 218.952453 154.484957 
L 217.543143 154.172707 
L 215.765935 153.506854 
L 214.540421 152.843451 
L 213.048505 151.778453 
L 211.745593 150.515364 
L 210.665688 149.08359 
L 210.020869 147.931289 
L 209.366145 146.312247 
L 208.972923 144.626937 
L 208.854068 142.924778 
L 208.938308 141.674861 
L 209.264445 140.048569 
L 209.841157 138.512032 
L 210.650065 137.113239 
L 211.383412 136.178737 
L 212.525809 135.08668 
L 213.834337 134.221612 
L 214.89474 133.753135 
L 215.998335 133.429552 
L 217.512204 133.282719 
L 218.617739 133.398 
L 219.663643 133.683497 
L 220.602332 134.157794 
L 221.376421 134.758297 
L 222.130701 135.691881 
L 222.539647 136.644048 
L 222.67096 137.652375 
L 222.53107 138.676427 
L 222.511465 139.504022 
L 222.556904 140.326817 
L 222.408641 140.977456 
L 222.102212 141.47779 
L 221.558073 141.89123 
L 221.015771 142.05052 
L 220.496138 142.013965 
L 220.019187 141.769618 
L 219.620349 141.245084 
L 219.520486 140.56177 
L 219.623718 140.125764 
L 220.069935 139.575192 
L 220.615197 139.329109 
L 221.170977 139.358822 
L 221.700821 139.610419 
L 222.019708 139.966984 
L 222.2033 140.617623 
L 222.133253 141.052812 
L 221.734619 141.556823 
L 221.469646 141.672614 
L 221.132993 141.527415 
L 221.105832 141.325443 
L 221.463928 141.159108 
L 221.838362 141.266833 
L 222.116507 141.547531 
L 222.329201 142.331218 
L 222.058101 143.215789 
L 221.282378 143.939947 
L 220.23964 144.246785 
L 219.451358 144.224831 
L 218.252495 143.60411 
L 218.252495 143.60411 
" clip-path="url(#p54a8ec955c)" style="fill: none; stroke: #8eba42; stroke-linecap: square"/>
   </g>
   <g id="line2d_7">
    <path d="M 223.905969 131.41402 
L 224.521279 130.795546 
L 227.675633 128.746829 
L 228.353433 128.472564 
L 231.536479 127.947825 
L 232.174661 127.988771 
L 234.268306 128.72947 
L 234.862887 128.999957 
L 235.316864 129.377352 
L 236.101164 130.525773 
L 236.720558 131.731886 
L 236.803471 132.359755 
L 236.658169 133.876075 
L 236.50909 134.658843 
L 236.253 135.384226 
L 235.833741 136.077751 
L 234.592911 137.518408 
L 233.855377 138.21132 
L 233.023698 138.817338 
L 232.056623 139.334418 
L 229.740074 140.194585 
L 228.455542 140.513778 
L 227.094223 140.711155 
L 225.640088 140.775586 
L 224.095279 140.715342 
L 222.484202 140.529503 
L 220.827584 140.198159 
L 219.130327 139.703747 
L 217.397536 139.046164 
L 215.652185 138.229904 
L 213.924703 137.24302 
L 212.228059 136.064783 
L 210.558779 134.693254 
L 208.926259 133.153653 
L 207.37175 131.469363 
L 205.943755 129.630583 
L 204.655955 127.609027 
L 203.486397 125.405309 
L 202.424259 123.068032 
L 201.50834 120.654173 
L 200.802051 118.173739 
L 200.329184 115.592217 
L 200.051141 112.894188 
L 199.919727 110.130299 
L 199.944131 107.384892 
L 200.188274 104.697483 
L 200.693101 102.033865 
L 201.419403 99.349519 
L 202.285799 96.667828 
L 203.258286 94.077117 
L 204.384141 91.644163 
L 205.72422 89.347015 
L 207.261779 87.114195 
L 210.582877 82.846342 
L 212.313116 80.962633 
L 214.169969 79.277119 
L 218.251985 76.198427 
L 220.308053 74.773087 
L 222.328179 73.52174 
L 224.38435 72.479716 
L 228.738282 70.738858 
L 232.969274 69.26522 
L 235.003287 68.774994 
L 239.207425 68.152639 
L 243.273307 67.670787 
L 245.16743 67.605845 
L 249.001423 67.831915 
L 252.739432 68.119862 
L 254.447921 68.368702 
L 257.830183 69.206916 
L 262.690882 70.564354 
L 265.616614 71.840411 
L 269.883753 73.837053 
L 272.380831 75.439042 
L 276.065641 77.965119 
L 278.165923 79.835655 
L 281.269733 82.840726 
L 282.988433 84.967862 
L 285.478057 88.450701 
L 286.79312 90.86068 
L 288.568797 94.861314 
L 289.030943 96.200067 
L 289.700983 99.104764 
L 290.23144 102.188561 
L 290.36071 103.732144 
L 290.248492 107.0125 
L 289.817489 110.508511 
L 289.419162 112.25233 
L 288.836834 114.019328 
L 288.07898 115.842486 
L 287.1746 117.705569 
L 286.118077 119.553437 
L 284.858868 121.343715 
L 283.345203 123.075486 
L 281.567177 124.760184 
L 279.547459 126.372282 
L 277.296158 127.842142 
L 274.789584 129.094 
L 271.999862 130.08119 
L 268.937304 130.775124 
L 265.656845 131.127911 
L 262.225979 131.060008 
L 258.700663 130.490239 
L 255.139711 129.373779 
L 251.635531 127.705827 
L 248.316373 125.497922 
L 245.313957 122.76538 
L 242.730495 119.547106 
L 240.637769 115.929687 
L 239.096841 112.040965 
L 238.15999 108.013067 
L 237.845698 103.955967 
L 238.118738 99.964318 
L 238.904365 96.136861 
L 240.126407 92.572539 
L 241.725537 89.339765 
L 243.643146 86.456817 
L 245.797443 83.910216 
L 248.092856 81.692407 
L 250.454741 79.812885 
L 252.850629 78.273182 
L 255.269389 77.0395 
L 257.684065 76.053841 
L 260.044725 75.272604 
L 262.310628 74.687825 
L 264.479425 74.304099 
L 266.575929 74.101107 
L 270.563493 74.044436 
L 274.12659 74.335549 
L 277.357117 74.995276 
L 280.320629 75.797139 
L 282.920633 76.758291 
L 286.460857 78.413684 
L 288.489459 79.55945 
L 292.113514 81.999653 
L 294.392181 83.896738 
L 296.437222 85.727656 
L 299.833268 89.450043 
L 302.56244 93.120252 
L 304.440941 96.11695 
L 306.022509 99.091694 
L 307.575792 102.680522 
L 308.431568 105.062217 
L 309.415389 108.738144 
L 309.901224 111.236039 
L 310.263507 115.135176 
L 310.27137 117.846071 
L 309.890197 121.379147 
L 309.200858 124.333163 
L 308.395932 126.573641 
L 307.331139 128.864969 
L 305.875471 131.124541 
L 304.713776 132.590623 
L 303.323255 133.966748 
L 301.72923 135.265779 
L 299.935071 136.374991 
L 297.90167 137.272427 
L 295.714596 137.894374 
L 293.388449 138.131165 
L 291.00706 137.977695 
L 289.846488 137.731408 
L 288.718183 137.361364 
L 287.631334 136.876857 
L 286.607282 136.293712 
L 285.673698 135.621119 
L 284.84978 134.862346 
L 284.141347 134.026788 
L 283.549829 133.137724 
L 283.082782 132.225686 
L 282.752051 131.314975 
L 282.561107 130.41958 
L 282.54528 128.735801 
L 282.918489 127.348853 
L 283.594145 126.351758 
L 284.395599 125.768715 
L 285.19256 125.641998 
L 285.879142 125.903193 
L 286.131351 126.163265 
L 286.411845 126.926326 
L 286.347312 127.908309 
L 285.82921 129.012619 
L 284.830277 130.149297 
L 284.140122 130.673015 
L 283.309464 131.141287 
L 282.337999 131.540125 
L 281.235935 131.848699 
L 280.015323 132.036069 
L 278.684739 132.068642 
L 277.253885 131.919767 
L 275.743998 131.570043 
L 274.190918 131.000274 
L 272.638043 130.187894 
L 271.128156 129.114217 
L 269.703734 127.775057 
L 268.41328 126.184299 
L 267.312237 124.367472 
L 266.453602 122.355821 
L 265.876481 120.188147 
L 265.602931 117.916526 
L 265.64306 115.605287 
L 265.999727 113.320187 
L 266.664253 111.117184 
L 267.6106 109.040081 
L 268.797108 107.126863 
L 270.177521 105.411532 
L 271.710586 103.919105 
L 273.360363 102.65765 
L 275.088968 101.620323 
L 276.855557 100.79518 
L 278.623474 100.17354 
L 280.368621 99.747132 
L 282.078641 99.500437 
L 283.742815 99.409662 
L 285.346234 99.450607 
L 286.873889 99.607855 
L 289.687607 100.237664 
L 292.20623 101.190342 
L 294.41005 102.356632 
L 296.319592 103.709373 
L 297.980294 105.172495 
L 299.377147 106.716282 
L 300.559978 108.338591 
L 301.539919 109.985407 
L 302.309924 111.67521 
L 302.916248 113.391459 
L 303.334793 115.108424 
L 303.644796 117.728849 
L 303.636525 119.463377 
L 303.444254 121.211484 
L 303.087587 122.941927 
L 302.524353 124.643779 
L 301.768337 126.326435 
L 300.807389 127.939248 
L 299.609241 129.482423 
L 298.194928 130.923488 
L 296.533919 132.206183 
L 294.629482 133.315087 
L 292.506022 134.174335 
L 290.157615 134.731647 
L 287.644404 134.939541 
L 286.342819 134.884096 
L 285.017035 134.715003 
L 283.678385 134.431957 
L 282.344227 134.031178 
L 281.030287 133.505317 
L 279.747593 132.848959 
L 278.506253 132.064047 
L 277.32097 131.158441 
L 276.211249 130.139086 
L 275.194855 129.010372 
L 274.283531 127.777916 
L 273.484834 126.454275 
L 272.807851 125.057627 
L 272.264222 123.606045 
L 271.86324 122.113618 
L 271.606639 120.593009 
L 271.490337 119.061067 
L 271.510248 117.538212 
L 271.664637 116.043641 
L 271.950849 114.589608 
L 272.36 113.184791 
L 272.877795 111.838891 
L 273.490756 110.564671 
L 274.189999 109.372956 
L 275.814453 107.249189 
L 277.650477 105.470347 
L 279.610358 104.056034 
L 281.642534 102.97623 
L 283.668684 102.199486 
L 285.661241 101.710486 
L 287.591409 101.450925 
L 289.421306 101.403648 
L 291.992413 101.654836 
L 293.558358 101.994349 
L 295.717455 102.715852 
L 297.618522 103.626563 
L 299.302607 104.678389 
L 300.755926 105.847231 
L 302.01054 107.082343 
L 303.383397 108.830757 
L 304.186995 110.184723 
L 304.825177 111.553292 
L 305.393312 113.398301 
L 305.604168 114.760436 
L 305.650015 116.090305 
L 305.500833 117.364218 
L 305.184295 118.536839 
L 304.694376 119.593055 
L 304.058746 120.463637 
L 303.324378 121.133269 
L 302.533339 121.550078 
L 301.786615 121.71284 
L 301.142409 121.643304 
L 300.697417 121.383946 
L 300.48503 121.03943 
L 300.516684 120.680109 
L 300.770425 120.41585 
L 301.170795 120.291481 
L 301.841448 120.403495 
L 302.515674 120.836438 
L 303.072066 121.530779 
L 303.445683 122.402383 
L 303.612734 123.375278 
L 303.566785 124.385545 
L 303.229723 125.607076 
L 302.636061 126.72078 
L 301.830522 127.692859 
L 300.831384 128.499316 
L 299.641711 129.09012 
L 298.566401 129.346822 
L 297.724001 129.375004 
L 296.60029 129.173543 
L 295.570418 128.67668 
L 294.932542 128.125801 
L 294.453446 127.477306 
L 294.094329 126.523608 
L 294.069414 125.595538 
L 294.325095 124.818692 
L 294.759161 124.271387 
L 295.260006 123.971799 
L 295.84356 123.911351 
L 296.259654 124.101886 
L 296.454887 124.421488 
L 296.429155 124.761103 
L 296.216666 125.035163 
L 295.873171 125.184855 
L 295.464939 125.180056 
L 294.979512 124.973081 
L 294.589149 124.585475 
L 294.320602 123.999062 
L 294.238303 123.311051 
L 294.279453 121.320026 
L 294.321521 120.330793 
L 294.625296 119.405277 
L 295.145848 118.631698 
L 295.943831 117.963802 
L 296.687798 117.618572 
L 297.489762 117.429363 
L 298.577735 117.445497 
L 299.567172 117.731198 
L 300.38384 118.199368 
L 301.014262 118.76056 
L 301.564221 119.506671 
L 301.983277 120.496108 
L 302.120001 121.3139 
L 302.009111 122.394316 
L 302.019934 122.849722 
L 302.57939 123.422554 
L 302.809135 123.870405 
L 302.914104 124.620498 
L 302.740416 125.39857 
L 302.380481 126.466937 
L 302.15043 127.163015 
L 301.850331 127.659163 
L 301.18846 128.218006 
L 300.628085 128.467765 
L 299.785787 128.567321 
L 299.037328 128.471747 
L 298.248433 128.118552 
L 297.614438 127.650279 
L 297.113592 127.022819 
L 296.689942 125.978856 
L 296.66952 125.062222 
L 296.879048 124.271694 
L 297.13044 123.809446 
L 297.67121 123.218643 
L 298.080974 122.943663 
L 298.881407 122.6598 
L 299.424117 122.635395 
L 299.909952 122.724843 
L 300.315529 122.899245 
L 300.628392 123.126642 
L 300.846292 123.37538 
L 301.006093 123.649237 
L 301.053574 123.854578 
L 301.053574 123.854578 
" clip-path="url(#p54a8ec955c)" style="fill: none; stroke: #fbc15e; stroke-linecap: square"/>
   </g>
   <g id="patch_33">
    <path d="M 108 253.44 
L 108 28.8 
" style="fill: none"/>
   </g>
   <g id="patch_34">
    <path d="M 332.64 253.44 
L 332.64 28.8 
" style="fill: none"/>
   </g>
   <g id="patch_35">
    <path d="M 108 253.44 
L 332.64 253.44 
" style="fill: none"/>
   </g>
   <g id="patch_36">
    <path d="M 108 28.8 
L 332.64 28.8 
" style="fill: none"/>
   </g>
   <g id="legend_1">
    <g id="patch_37">
     <path d="M 112.5 88.84125 
L 216.696094 88.84125 
L 216.696094 33.3 
L 112.5 33.3 
z
" style="fill: #e5e5e5; opacity: 0.8; stroke: #cccccc; stroke-width: 0.5; stroke-linejoin: miter"/>
    </g>
    <g id="line2d_8">
     <path d="M 116.1 40.588594 
L 125.1 40.588594 
L 134.1 40.588594 
" style="fill: none; stroke: #348abd; stroke-linecap: square"/>
    </g>
    <g id="text_1">
     <!-- waveguide, S11 -->
     <g transform="translate(141.3 43.738594)scale(0.09 -0.09)">
      <defs>
       <path id="DejaVuSans-77" d="M 269 3500 
L 844 3500 
L 1563 769 
L 2278 3500 
L 2956 3500 
L 3675 769 
L 4391 3500 
L 4966 3500 
L 4050 0 
L 3372 0 
L 2619 2869 
L 1863 0 
L 1184 0 
L 269 3500 
z
" transform="scale(0.015625)"/>
       <path id="DejaVuSans-61" d="M 2194 1759 
Q 1497 1759 1228 1600 
Q 959 1441 959 1056 
Q 959 750 1161 570 
Q 1363 391 1709 391 
Q 2188 391 2477 730 
Q 2766 1069 2766 1631 
L 2766 1759 
L 2194 1759 
z
M 3341 1997 
L 3341 0 
L 2766 0 
L 2766 531 
Q 2569 213 2275 61 
Q 1981 -91 1556 -91 
Q 1019 -91 701 211 
Q 384 513 384 1019 
Q 384 1609 779 1909 
Q 1175 2209 1959 2209 
L 2766 2209 
L 2766 2266 
Q 2766 2663 2505 2880 
Q 2244 3097 1772 3097 
Q 1472 3097 1187 3025 
Q 903 2953 641 2809 
L 641 3341 
Q 956 3463 1253 3523 
Q 1550 3584 1831 3584 
Q 2591 3584 2966 3190 
Q 3341 2797 3341 1997 
z
" transform="scale(0.015625)"/>
       <path id="DejaVuSans-76" d="M 191 3500 
L 800 3500 
L 1894 563 
L 2988 3500 
L 3597 3500 
L 2284 0 
L 1503 0 
L 191 3500 
z
" transform="scale(0.015625)"/>
       <path id="DejaVuSans-65" d="M 3597 1894 
L 3597 1613 
L 953 1613 
Q 991 1019 1311 708 
Q 1631 397 2203 397 
Q 2534 397 2845 478 
Q 3156 559 3463 722 
L 3463 178 
Q 3153 47 2828 -22 
Q 2503 -91 2169 -91 
Q 1331 -91 842 396 
Q 353 884 353 1716 
Q 353 2575 817 3079 
Q 1281 3584 2069 3584 
Q 2775 3584 3186 3129 
Q 3597 2675 3597 1894 
z
M 3022 2063 
Q 3016 2534 2758 2815 
Q 2500 3097 2075 3097 
Q 1594 3097 1305 2825 
Q 1016 2553 972 2059 
L 3022 2063 
z
" transform="scale(0.015625)"/>
       <path id="DejaVuSans-67" d="M 2906 1791 
Q 2906 2416 2648 2759 
Q 2391 3103 1925 3103 
Q 1463 3103 1205 2759 
Q 947 2416 947 1791 
Q 947 1169 1205 825 
Q 1463 481 1925 481 
Q 2391 481 2648 825 
Q 2906 1169 2906 1791 
z
M 3481 434 
Q 3481 -459 3084 -895 
Q 2688 -1331 1869 -1331 
Q 1566 -1331 1297 -1286 
Q 1028 -1241 775 -1147 
L 775 -588 
Q 1028 -725 1275 -790 
Q 1522 -856 1778 -856 
Q 2344 -856 2625 -561 
Q 2906 -266 2906 331 
L 2906 616 
Q 2728 306 2450 153 
Q 2172 0 1784 0 
Q 1141 0 747 490 
Q 353 981 353 1791 
Q 353 2603 747 3093 
Q 1141 3584 1784 3584 
Q 2172 3584 2450 3431 
Q 2728 3278 2906 2969 
L 2906 3500 
L 3481 3500 
L 3481 434 
z
" transform="scale(0.015625)"/>
       <path id="DejaVuSans-75" d="M 544 1381 
L 544 3500 
L 1119 3500 
L 1119 1403 
Q 1119 906 1312 657 
Q 1506 409 1894 409 
Q 2359 409 2629 706 
Q 2900 1003 2900 1516 
L 2900 3500 
L 3475 3500 
L 3475 0 
L 2900 0 
L 2900 538 
Q 2691 219 2414 64 
Q 2138 -91 1772 -91 
Q 1169 -91 856 284 
Q 544 659 544 1381 
z
M 1991 3584 
L 1991 3584 
z
" transform="scale(0.015625)"/>
       <path id="DejaVuSans-69" d="M 603 3500 
L 1178 3500 
L 1178 0 
L 603 0 
L 603 3500 
z
M 603 4863 
L 1178 4863 
L 1178 4134 
L 603 4134 
L 603 4863 
z
" transform="scale(0.015625)"/>
       <path id="DejaVuSans-64" d="M 2906 2969 
L 2906 4863 
L 3481 4863 
L 3481 0 
L 2906 0 
L 2906 525 
Q 2725 213 2448 61 
Q 2172 -91 1784 -91 
Q 1150 -91 751 415 
Q 353 922 353 1747 
Q 353 2572 751 3078 
Q 1150 3584 1784 3584 
Q 2172 3584 2448 3432 
Q 2725 3281 2906 2969 
z
M 947 1747 
Q 947 1113 1208 752 
Q 1469 391 1925 391 
Q 2381 391 2643 752 
Q 2906 1113 2906 1747 
Q 2906 2381 2643 2742 
Q 2381 3103 1925 3103 
Q 1469 3103 1208 2742 
Q 947 2381 947 1747 
z
" transform="scale(0.015625)"/>
       <path id="DejaVuSans-2c" d="M 750 794 
L 1409 794 
L 1409 256 
L 897 -744 
L 494 -744 
L 750 256 
L 750 794 
z
" transform="scale(0.015625)"/>
       <path id="DejaVuSans-20" transform="scale(0.015625)"/>
       <path id="DejaVuSans-53" d="M 3425 4513 
L 3425 3897 
Q 3066 4069 2747 4153 
Q 2428 4238 2131 4238 
Q 1616 4238 1336 4038 
Q 1056 3838 1056 3469 
Q 1056 3159 1242 3001 
Q 1428 2844 1947 2747 
L 2328 2669 
Q 3034 2534 3370 2195 
Q 3706 1856 3706 1288 
Q 3706 609 3251 259 
Q 2797 -91 1919 -91 
Q 1588 -91 1214 -16 
Q 841 59 441 206 
L 441 856 
Q 825 641 1194 531 
Q 1563 422 1919 422 
Q 2459 422 2753 634 
Q 3047 847 3047 1241 
Q 3047 1584 2836 1778 
Q 2625 1972 2144 2069 
L 1759 2144 
Q 1053 2284 737 2584 
Q 422 2884 422 3419 
Q 422 4038 858 4394 
Q 1294 4750 2059 4750 
Q 2388 4750 2728 4690 
Q 3069 4631 3425 4513 
z
" transform="scale(0.015625)"/>
       <path id="DejaVuSans-31" d="M 794 531 
L 1825 531 
L 1825 4091 
L 703 3866 
L 703 4441 
L 1819 4666 
L 2450 4666 
L 2450 531 
L 3481 531 
L 3481 0 
L 794 0 
L 794 531 
z
" transform="scale(0.015625)"/>
      </defs>
      <use xlink:href="#DejaVuSans-77"/>
      <use xlink:href="#DejaVuSans-61" x="81.787109"/>
      <use xlink:href="#DejaVuSans-76" x="143.066406"/>
      <use xlink:href="#DejaVuSans-65" x="202.246094"/>
      <use xlink:href="#DejaVuSans-67" x="263.769531"/>
      <use xlink:href="#DejaVuSans-75" x="327.246094"/>
      <use xlink:href="#DejaVuSans-69" x="390.625"/>
      <use xlink:href="#DejaVuSans-64" x="418.408203"/>
      <use xlink:href="#DejaVuSans-65" x="481.884766"/>
      <use xlink:href="#DejaVuSans-2c" x="543.408203"/>
      <use xlink:href="#DejaVuSans-20" x="575.195312"/>
      <use xlink:href="#DejaVuSans-53" x="606.982422"/>
      <use xlink:href="#DejaVuSans-31" x="670.458984"/>
      <use xlink:href="#DejaVuSans-31" x="734.082031"/>
     </g>
    </g>
    <g id="line2d_9">
     <path d="M 116.1 53.798906 
L 125.1 53.798906 
L 134.1 53.798906 
" style="fill: none; stroke: #b74331; stroke-linecap: square"/>
    </g>
    <g id="text_2">
     <!-- waveguide, S12 -->
     <g transform="translate(141.3 56.948906)scale(0.09 -0.09)">
      <defs>
       <path id="DejaVuSans-32" d="M 1228 531 
L 3431 531 
L 3431 0 
L 469 0 
L 469 531 
Q 828 903 1448 1529 
Q 2069 2156 2228 2338 
Q 2531 2678 2651 2914 
Q 2772 3150 2772 3378 
Q 2772 3750 2511 3984 
Q 2250 4219 1831 4219 
Q 1534 4219 1204 4116 
Q 875 4013 500 3803 
L 500 4441 
Q 881 4594 1212 4672 
Q 1544 4750 1819 4750 
Q 2544 4750 2975 4387 
Q 3406 4025 3406 3419 
Q 3406 3131 3298 2873 
Q 3191 2616 2906 2266 
Q 2828 2175 2409 1742 
Q 1991 1309 1228 531 
z
" transform="scale(0.015625)"/>
      </defs>
      <use xlink:href="#DejaVuSans-77"/>
      <use xlink:href="#DejaVuSans-61" x="81.787109"/>
      <use xlink:href="#DejaVuSans-76" x="143.066406"/>
      <use xlink:href="#DejaVuSans-65" x="202.246094"/>
      <use xlink:href="#DejaVuSans-67" x="263.769531"/>
      <use xlink:href="#DejaVuSans-75" x="327.246094"/>
      <use xlink:href="#DejaVuSans-69" x="390.625"/>
      <use xlink:href="#DejaVuSans-64" x="418.408203"/>
      <use xlink:href="#DejaVuSans-65" x="481.884766"/>
      <use xlink:href="#DejaVuSans-2c" x="543.408203"/>
      <use xlink:href="#DejaVuSans-20" x="575.195312"/>
      <use xlink:href="#DejaVuSans-53" x="606.982422"/>
      <use xlink:href="#DejaVuSans-31" x="670.458984"/>
      <use xlink:href="#DejaVuSans-32" x="734.082031"/>
     </g>
    </g>
    <g id="line2d_10">
     <path d="M 116.1 67.009219 
L 125.1 67.009219 
L 134.1 67.009219 
" style="fill: none; stroke: #8eba42; stroke-linecap: square"/>
    </g>
    <g id="text_3">
     <!-- waveguide, S21 -->
     <g transform="translate(141.3 70.159219)scale(0.09 -0.09)">
      <use xlink:href="#DejaVuSans-77"/>
      <use xlink:href="#DejaVuSans-61" x="81.787109"/>
      <use xlink:href="#DejaVuSans-76" x="143.066406"/>
      <use xlink:href="#DejaVuSans-65" x="202.246094"/>
      <use xlink:href="#DejaVuSans-67" x="263.769531"/>
      <use xlink:href="#DejaVuSans-75" x="327.246094"/>
      <use xlink:href="#DejaVuSans-69" x="390.625"/>
      <use xlink:href="#DejaVuSans-64" x="418.408203"/>
      <use xlink:href="#DejaVuSans-65" x="481.884766"/>
      <use xlink:href="#DejaVuSans-2c" x="543.408203"/>
      <use xlink:href="#DejaVuSans-20" x="575.195312"/>
      <use xlink:href="#DejaVuSans-53" x="606.982422"/>
      <use xlink:href="#DejaVuSans-32" x="670.458984"/>
      <use xlink:href="#DejaVuSans-31" x="734.082031"/>
     </g>
    </g>
    <g id="line2d_11">
     <path d="M 116.1 80.219531 
L 125.1 80.219531 
L 134.1 80.219531 
" style="fill: none; stroke: #fbc15e; stroke-linecap: square"/>
    </g>
    <g id="text_4">
     <!-- waveguide, S22 -->
     <g transform="translate(141.3 83.369531)scale(0.09 -0.09)">
      <use xlink:href="#DejaVuSans-77"/>
      <use xlink:href="#DejaVuSans-61" x="81.787109"/>
      <use xlink:href="#DejaVuSans-76" x="143.066406"/>
      <use xlink:href="#DejaVuSans-65" x="202.246094"/>
      <use xlink:href="#DejaVuSans-67" x="263.769531"/>
      <use xlink:href="#DejaVuSans-75" x="327.246094"/>
      <use xlink:href="#DejaVuSans-69" x="390.625"/>
      <use xlink:href="#DejaVuSans-64" x="418.408203"/>
      <use xlink:href="#DejaVuSans-65" x="481.884766"/>
      <use xlink:href="#DejaVuSans-2c" x="543.408203"/>
      <use xlink:href="#DejaVuSans-20" x="575.195312"/>
      <use xlink:href="#DejaVuSans-53" x="606.982422"/>
      <use xlink:href="#DejaVuSans-32" x="670.458984"/>
      <use xlink:href="#DejaVuSans-32" x="734.082031"/>
     </g>
    </g>
   </g>
  </g>
 </g>
 <defs>
  <clipPath id="p54a8ec955c">
   <rect x="108" y="28.8" width="224.64" height="224.64"/>
  </clipPath>
  <clipPath id="pc3e66936ab">
   <path d="M 220.32 243.229091 
C 247.399647 243.229091 273.373828 232.470233 292.522031 213.322031 
C 311.670233 194.173828 322.429091 168.199647 322.429091 141.12 
C 322.429091 114.040353 311.670233 88.066172 292.522031 68.917969 
C 273.373828 49.769767 247.399647 39.010909 220.32 39.010909 
C 193.240353 39.010909 167.266172 49.769767 148.117969 68.917969 
C 128.969767 88.066172 118.210909 114.040353 118.210909 141.12 
C 118.210909 168.199647 128.969767 194.173828 148.117969 213.322031 
C 167.266172 232.470233 193.240353 243.229091 220.32 243.229091 
z
"/>
  </clipPath>
 </defs>
</svg>
