<?xml version="1.0" encoding="utf-8" standalone="no"?>
<!DOCTYPE svg PUBLIC "-//W3C//DTD SVG 1.1//EN"
  "http://www.w3.org/Graphics/SVG/1.1/DTD/svg11.dtd">
<svg xmlns:xlink="http://www.w3.org/1999/xlink" width="460.8pt" height="345.6pt" viewBox="0 0 460.8 345.6" xmlns="http://www.w3.org/2000/svg" version="1.1">
 <metadata>
  <rdf:RDF xmlns:dc="http://purl.org/dc/elements/1.1/" xmlns:cc="http://creativecommons.org/ns#" xmlns:rdf="http://www.w3.org/1999/02/22-rdf-syntax-ns#">
   <cc:Work>
    <dc:type rdf:resource="http://purl.org/dc/dcmitype/StillImage"/>
    <dc:date>2025-03-29T22:16:11.049841</dc:date>
    <dc:format>image/svg+xml</dc:format>
    <dc:creator>
     <cc:Agent>
      <dc:title>Matplotlib v3.5.3, https://matplotlib.org/</dc:title>
     </cc:Agent>
    </dc:creator>
   </cc:Work>
  </rdf:RDF>
 </metadata>
 <defs>
  <style type="text/css">*{stroke-linejoin: round; stroke-linecap: butt}</style>
 </defs>
 <g id="figure_1">
  <g id="patch_1">
   <path d="M 0 345.6 
L 460.8 345.6 
L 460.8 0 
L 0 0 
z
" style="fill: #ffffff"/>
  </g>
  <g id="axes_1">
   <g id="patch_2">
    <path d="M 57.6 307.584 
L 414.72 307.584 
L 414.72 41.472 
L 57.6 41.472 
z
" style="fill: #ffffff"/>
   </g>
   <g id="matplotlib.axis_1">
    <g id="xtick_1">
     <g id="line2d_1">
      <path d="M 70.553388 307.584 
L 70.553388 41.472 
" clip-path="url(#pd53ae070f5)" style="fill: none; stroke: #b0b0b0; stroke-width: 0.8; stroke-linecap: square"/>
     </g>
     <g id="line2d_2">
      <defs>
       <path id="m43d9a4780c" d="M 0 0 
L 0 3.5 
" style="stroke: #000000; stroke-width: 0.8"/>
      </defs>
      <g>
       <use xlink:href="#m43d9a4780c" x="70.553388" y="307.584" style="stroke: #000000; stroke-width: 0.8"/>
      </g>
     </g>
     <g id="text_1">
      <!-- 0 -->
      <g transform="translate(67.372138 322.182437)scale(0.1 -0.1)">
       <defs>
        <path id="DejaVuSans-30" d="M 2034 4250 
Q 1547 4250 1301 3770 
Q 1056 3291 1056 2328 
Q 1056 1369 1301 889 
Q 1547 409 2034 409 
Q 2525 409 2770 889 
Q 3016 1369 3016 2328 
Q 3016 3291 2770 3770 
Q 2525 4250 2034 4250 
z
M 2034 4750 
Q 2819 4750 3233 4129 
Q 3647 3509 3647 2328 
Q 3647 1150 3233 529 
Q 2819 -91 2034 -91 
Q 1250 -91 836 529 
Q 422 1150 422 2328 
Q 422 3509 836 4129 
Q 1250 4750 2034 4750 
z
" transform="scale(0.015625)"/>
       </defs>
       <use xlink:href="#DejaVuSans-30"/>
      </g>
     </g>
    </g>
    <g id="xtick_2">
     <g id="line2d_3">
      <path d="M 136.140165 307.584 
L 136.140165 41.472 
" clip-path="url(#pd53ae070f5)" style="fill: none; stroke: #b0b0b0; stroke-width: 0.8; stroke-linecap: square"/>
     </g>
     <g id="line2d_4">
      <g>
       <use xlink:href="#m43d9a4780c" x="136.140165" y="307.584" style="stroke: #000000; stroke-width: 0.8"/>
      </g>
     </g>
     <g id="text_2">
      <!-- 2 -->
      <g transform="translate(132.958915 322.182437)scale(0.1 -0.1)">
       <defs>
        <path id="DejaVuSans-32" d="M 1228 531 
L 3431 531 
L 3431 0 
L 469 0 
L 469 531 
Q 828 903 1448 1529 
Q 2069 2156 2228 2338 
Q 2531 2678 2651 2914 
Q 2772 3150 2772 3378 
Q 2772 3750 2511 3984 
Q 2250 4219 1831 4219 
Q 1534 4219 1204 4116 
Q 875 4013 500 3803 
L 500 4441 
Q 881 4594 1212 4672 
Q 1544 4750 1819 4750 
Q 2544 4750 2975 4387 
Q 3406 4025 3406 3419 
Q 3406 3131 3298 2873 
Q 3191 2616 2906 2266 
Q 2828 2175 2409 1742 
Q 1991 1309 1228 531 
z
" transform="scale(0.015625)"/>
       </defs>
       <use xlink:href="#DejaVuSans-32"/>
      </g>
     </g>
    </g>
    <g id="xtick_3">
     <g id="line2d_5">
      <path d="M 201.726942 307.584 
L 201.726942 41.472 
" clip-path="url(#pd53ae070f5)" style="fill: none; stroke: #b0b0b0; stroke-width: 0.8; stroke-linecap: square"/>
     </g>
     <g id="line2d_6">
      <g>
       <use xlink:href="#m43d9a4780c" x="201.726942" y="307.584" style="stroke: #000000; stroke-width: 0.8"/>
      </g>
     </g>
     <g id="text_3">
      <!-- 4 -->
      <g transform="translate(198.545692 322.182437)scale(0.1 -0.1)">
       <defs>
        <path id="DejaVuSans-34" d="M 2419 4116 
L 825 1625 
L 2419 1625 
L 2419 4116 
z
M 2253 4666 
L 3047 4666 
L 3047 1625 
L 3713 1625 
L 3713 1100 
L 3047 1100 
L 3047 0 
L 2419 0 
L 2419 1100 
L 313 1100 
L 313 1709 
L 2253 4666 
z
" transform="scale(0.015625)"/>
       </defs>
       <use xlink:href="#DejaVuSans-34"/>
      </g>
     </g>
    </g>
    <g id="xtick_4">
     <g id="line2d_7">
      <path d="M 267.313719 307.584 
L 267.313719 41.472 
" clip-path="url(#pd53ae070f5)" style="fill: none; stroke: #b0b0b0; stroke-width: 0.8; stroke-linecap: square"/>
     </g>
     <g id="line2d_8">
      <g>
       <use xlink:href="#m43d9a4780c" x="267.313719" y="307.584" style="stroke: #000000; stroke-width: 0.8"/>
      </g>
     </g>
     <g id="text_4">
      <!-- 6 -->
      <g transform="translate(264.132469 322.182437)scale(0.1 -0.1)">
       <defs>
        <path id="DejaVuSans-36" d="M 2113 2584 
Q 1688 2584 1439 2293 
Q 1191 2003 1191 1497 
Q 1191 994 1439 701 
Q 1688 409 2113 409 
Q 2538 409 2786 701 
Q 3034 994 3034 1497 
Q 3034 2003 2786 2293 
Q 2538 2584 2113 2584 
z
M 3366 4563 
L 3366 3988 
Q 3128 4100 2886 4159 
Q 2644 4219 2406 4219 
Q 1781 4219 1451 3797 
Q 1122 3375 1075 2522 
Q 1259 2794 1537 2939 
Q 1816 3084 2150 3084 
Q 2853 3084 3261 2657 
Q 3669 2231 3669 1497 
Q 3669 778 3244 343 
Q 2819 -91 2113 -91 
Q 1303 -91 875 529 
Q 447 1150 447 2328 
Q 447 3434 972 4092 
Q 1497 4750 2381 4750 
Q 2619 4750 2861 4703 
Q 3103 4656 3366 4563 
z
" transform="scale(0.015625)"/>
       </defs>
       <use xlink:href="#DejaVuSans-36"/>
      </g>
     </g>
    </g>
    <g id="xtick_5">
     <g id="line2d_9">
      <path d="M 332.900496 307.584 
L 332.900496 41.472 
" clip-path="url(#pd53ae070f5)" style="fill: none; stroke: #b0b0b0; stroke-width: 0.8; stroke-linecap: square"/>
     </g>
     <g id="line2d_10">
      <g>
       <use xlink:href="#m43d9a4780c" x="332.900496" y="307.584" style="stroke: #000000; stroke-width: 0.8"/>
      </g>
     </g>
     <g id="text_5">
      <!-- 8 -->
      <g transform="translate(329.719246 322.182437)scale(0.1 -0.1)">
       <defs>
        <path id="DejaVuSans-38" d="M 2034 2216 
Q 1584 2216 1326 1975 
Q 1069 1734 1069 1313 
Q 1069 891 1326 650 
Q 1584 409 2034 409 
Q 2484 409 2743 651 
Q 3003 894 3003 1313 
Q 3003 1734 2745 1975 
Q 2488 2216 2034 2216 
z
M 1403 2484 
Q 997 2584 770 2862 
Q 544 3141 544 3541 
Q 544 4100 942 4425 
Q 1341 4750 2034 4750 
Q 2731 4750 3128 4425 
Q 3525 4100 3525 3541 
Q 3525 3141 3298 2862 
Q 3072 2584 2669 2484 
Q 3125 2378 3379 2068 
Q 3634 1759 3634 1313 
Q 3634 634 3220 271 
Q 2806 -91 2034 -91 
Q 1263 -91 848 271 
Q 434 634 434 1313 
Q 434 1759 690 2068 
Q 947 2378 1403 2484 
z
M 1172 3481 
Q 1172 3119 1398 2916 
Q 1625 2713 2034 2713 
Q 2441 2713 2670 2916 
Q 2900 3119 2900 3481 
Q 2900 3844 2670 4047 
Q 2441 4250 2034 4250 
Q 1625 4250 1398 4047 
Q 1172 3844 1172 3481 
z
" transform="scale(0.015625)"/>
       </defs>
       <use xlink:href="#DejaVuSans-38"/>
      </g>
     </g>
    </g>
    <g id="xtick_6">
     <g id="line2d_11">
      <path d="M 398.487273 307.584 
L 398.487273 41.472 
" clip-path="url(#pd53ae070f5)" style="fill: none; stroke: #b0b0b0; stroke-width: 0.8; stroke-linecap: square"/>
     </g>
     <g id="line2d_12">
      <g>
       <use xlink:href="#m43d9a4780c" x="398.487273" y="307.584" style="stroke: #000000; stroke-width: 0.8"/>
      </g>
     </g>
     <g id="text_6">
      <!-- 10 -->
      <g transform="translate(392.124773 322.182437)scale(0.1 -0.1)">
       <defs>
        <path id="DejaVuSans-31" d="M 794 531 
L 1825 531 
L 1825 4091 
L 703 3866 
L 703 4441 
L 1819 4666 
L 2450 4666 
L 2450 531 
L 3481 531 
L 3481 0 
L 794 0 
L 794 531 
z
" transform="scale(0.015625)"/>
       </defs>
       <use xlink:href="#DejaVuSans-31"/>
       <use xlink:href="#DejaVuSans-30" x="63.623047"/>
      </g>
     </g>
    </g>
    <g id="text_7">
     <!-- Frequency (GHz) -->
     <g transform="translate(194.581094 335.860562)scale(0.1 -0.1)">
      <defs>
       <path id="DejaVuSans-46" d="M 628 4666 
L 3309 4666 
L 3309 4134 
L 1259 4134 
L 1259 2759 
L 3109 2759 
L 3109 2228 
L 1259 2228 
L 1259 0 
L 628 0 
L 628 4666 
z
" transform="scale(0.015625)"/>
       <path id="DejaVuSans-72" d="M 2631 2963 
Q 2534 3019 2420 3045 
Q 2306 3072 2169 3072 
Q 1681 3072 1420 2755 
Q 1159 2438 1159 1844 
L 1159 0 
L 581 0 
L 581 3500 
L 1159 3500 
L 1159 2956 
Q 1341 3275 1631 3429 
Q 1922 3584 2338 3584 
Q 2397 3584 2469 3576 
Q 2541 3569 2628 3553 
L 2631 2963 
z
" transform="scale(0.015625)"/>
       <path id="DejaVuSans-65" d="M 3597 1894 
L 3597 1613 
L 953 1613 
Q 991 1019 1311 708 
Q 1631 397 2203 397 
Q 2534 397 2845 478 
Q 3156 559 3463 722 
L 3463 178 
Q 3153 47 2828 -22 
Q 2503 -91 2169 -91 
Q 1331 -91 842 396 
Q 353 884 353 1716 
Q 353 2575 817 3079 
Q 1281 3584 2069 3584 
Q 2775 3584 3186 3129 
Q 3597 2675 3597 1894 
z
M 3022 2063 
Q 3016 2534 2758 2815 
Q 2500 3097 2075 3097 
Q 1594 3097 1305 2825 
Q 1016 2553 972 2059 
L 3022 2063 
z
" transform="scale(0.015625)"/>
       <path id="DejaVuSans-71" d="M 947 1747 
Q 947 1113 1208 752 
Q 1469 391 1925 391 
Q 2381 391 2643 752 
Q 2906 1113 2906 1747 
Q 2906 2381 2643 2742 
Q 2381 3103 1925 3103 
Q 1469 3103 1208 2742 
Q 947 2381 947 1747 
z
M 2906 525 
Q 2725 213 2448 61 
Q 2172 -91 1784 -91 
Q 1150 -91 751 415 
Q 353 922 353 1747 
Q 353 2572 751 3078 
Q 1150 3584 1784 3584 
Q 2172 3584 2448 3432 
Q 2725 3281 2906 2969 
L 2906 3500 
L 3481 3500 
L 3481 -1331 
L 2906 -1331 
L 2906 525 
z
" transform="scale(0.015625)"/>
       <path id="DejaVuSans-75" d="M 544 1381 
L 544 3500 
L 1119 3500 
L 1119 1403 
Q 1119 906 1312 657 
Q 1506 409 1894 409 
Q 2359 409 2629 706 
Q 2900 1003 2900 1516 
L 2900 3500 
L 3475 3500 
L 3475 0 
L 2900 0 
L 2900 538 
Q 2691 219 2414 64 
Q 2138 -91 1772 -91 
Q 1169 -91 856 284 
Q 544 659 544 1381 
z
M 1991 3584 
L 1991 3584 
z
" transform="scale(0.015625)"/>
       <path id="DejaVuSans-6e" d="M 3513 2113 
L 3513 0 
L 2938 0 
L 2938 2094 
Q 2938 2591 2744 2837 
Q 2550 3084 2163 3084 
Q 1697 3084 1428 2787 
Q 1159 2491 1159 1978 
L 1159 0 
L 581 0 
L 581 3500 
L 1159 3500 
L 1159 2956 
Q 1366 3272 1645 3428 
Q 1925 3584 2291 3584 
Q 2894 3584 3203 3211 
Q 3513 2838 3513 2113 
z
" transform="scale(0.015625)"/>
       <path id="DejaVuSans-63" d="M 3122 3366 
L 3122 2828 
Q 2878 2963 2633 3030 
Q 2388 3097 2138 3097 
Q 1578 3097 1268 2742 
Q 959 2388 959 1747 
Q 959 1106 1268 751 
Q 1578 397 2138 397 
Q 2388 397 2633 464 
Q 2878 531 3122 666 
L 3122 134 
Q 2881 22 2623 -34 
Q 2366 -91 2075 -91 
Q 1284 -91 818 406 
Q 353 903 353 1747 
Q 353 2603 823 3093 
Q 1294 3584 2113 3584 
Q 2378 3584 2631 3529 
Q 2884 3475 3122 3366 
z
" transform="scale(0.015625)"/>
       <path id="DejaVuSans-79" d="M 2059 -325 
Q 1816 -950 1584 -1140 
Q 1353 -1331 966 -1331 
L 506 -1331 
L 506 -850 
L 844 -850 
Q 1081 -850 1212 -737 
Q 1344 -625 1503 -206 
L 1606 56 
L 191 3500 
L 800 3500 
L 1894 763 
L 2988 3500 
L 3597 3500 
L 2059 -325 
z
" transform="scale(0.015625)"/>
       <path id="DejaVuSans-20" transform="scale(0.015625)"/>
       <path id="DejaVuSans-28" d="M 1984 4856 
Q 1566 4138 1362 3434 
Q 1159 2731 1159 2009 
Q 1159 1288 1364 580 
Q 1569 -128 1984 -844 
L 1484 -844 
Q 1016 -109 783 600 
Q 550 1309 550 2009 
Q 550 2706 781 3412 
Q 1013 4119 1484 4856 
L 1984 4856 
z
" transform="scale(0.015625)"/>
       <path id="DejaVuSans-47" d="M 3809 666 
L 3809 1919 
L 2778 1919 
L 2778 2438 
L 4434 2438 
L 4434 434 
Q 4069 175 3628 42 
Q 3188 -91 2688 -91 
Q 1594 -91 976 548 
Q 359 1188 359 2328 
Q 359 3472 976 4111 
Q 1594 4750 2688 4750 
Q 3144 4750 3555 4637 
Q 3966 4525 4313 4306 
L 4313 3634 
Q 3963 3931 3569 4081 
Q 3175 4231 2741 4231 
Q 1884 4231 1454 3753 
Q 1025 3275 1025 2328 
Q 1025 1384 1454 906 
Q 1884 428 2741 428 
Q 3075 428 3337 486 
Q 3600 544 3809 666 
z
" transform="scale(0.015625)"/>
       <path id="DejaVuSans-48" d="M 628 4666 
L 1259 4666 
L 1259 2753 
L 3553 2753 
L 3553 4666 
L 4184 4666 
L 4184 0 
L 3553 0 
L 3553 2222 
L 1259 2222 
L 1259 0 
L 628 0 
L 628 4666 
z
" transform="scale(0.015625)"/>
       <path id="DejaVuSans-7a" d="M 353 3500 
L 3084 3500 
L 3084 2975 
L 922 459 
L 3084 459 
L 3084 0 
L 275 0 
L 275 525 
L 2438 3041 
L 353 3041 
L 353 3500 
z
" transform="scale(0.015625)"/>
       <path id="DejaVuSans-29" d="M 513 4856 
L 1013 4856 
Q 1481 4119 1714 3412 
Q 1947 2706 1947 2009 
Q 1947 1309 1714 600 
Q 1481 -109 1013 -844 
L 513 -844 
Q 928 -128 1133 580 
Q 1338 1288 1338 2009 
Q 1338 2731 1133 3434 
Q 928 4138 513 4856 
z
" transform="scale(0.015625)"/>
      </defs>
      <use xlink:href="#DejaVuSans-46"/>
      <use xlink:href="#DejaVuSans-72" x="50.269531"/>
      <use xlink:href="#DejaVuSans-65" x="89.132812"/>
      <use xlink:href="#DejaVuSans-71" x="150.65625"/>
      <use xlink:href="#DejaVuSans-75" x="214.132812"/>
      <use xlink:href="#DejaVuSans-65" x="277.511719"/>
      <use xlink:href="#DejaVuSans-6e" x="339.035156"/>
      <use xlink:href="#DejaVuSans-63" x="402.414062"/>
      <use xlink:href="#DejaVuSans-79" x="457.394531"/>
      <use xlink:href="#DejaVuSans-20" x="516.574219"/>
      <use xlink:href="#DejaVuSans-28" x="548.361328"/>
      <use xlink:href="#DejaVuSans-47" x="587.375"/>
      <use xlink:href="#DejaVuSans-48" x="664.865234"/>
      <use xlink:href="#DejaVuSans-7a" x="740.060547"/>
      <use xlink:href="#DejaVuSans-29" x="792.550781"/>
     </g>
    </g>
   </g>
   <g id="matplotlib.axis_2">
    <g id="ytick_1">
     <g id="line2d_13">
      <path d="M 57.6 260.593314 
L 414.72 260.593314 
" clip-path="url(#pd53ae070f5)" style="fill: none; stroke: #b0b0b0; stroke-width: 0.8; stroke-linecap: square"/>
     </g>
     <g id="line2d_14">
      <defs>
       <path id="md6551c4efe" d="M 0 0 
L -3.5 0 
" style="stroke: #000000; stroke-width: 0.8"/>
      </defs>
      <g>
       <use xlink:href="#md6551c4efe" x="57.6" y="260.593314" style="stroke: #000000; stroke-width: 0.8"/>
      </g>
     </g>
     <g id="text_8">
      <!-- 100 -->
      <g transform="translate(31.5125 264.392532)scale(0.1 -0.1)">
       <use xlink:href="#DejaVuSans-31"/>
       <use xlink:href="#DejaVuSans-30" x="63.623047"/>
       <use xlink:href="#DejaVuSans-30" x="127.246094"/>
      </g>
     </g>
    </g>
    <g id="ytick_2">
     <g id="line2d_15">
      <path d="M 57.6 207.347081 
L 414.72 207.347081 
" clip-path="url(#pd53ae070f5)" style="fill: none; stroke: #b0b0b0; stroke-width: 0.8; stroke-linecap: square"/>
     </g>
     <g id="line2d_16">
      <g>
       <use xlink:href="#md6551c4efe" x="57.6" y="207.347081" style="stroke: #000000; stroke-width: 0.8"/>
      </g>
     </g>
     <g id="text_9">
      <!-- 200 -->
      <g transform="translate(31.5125 211.146299)scale(0.1 -0.1)">
       <use xlink:href="#DejaVuSans-32"/>
       <use xlink:href="#DejaVuSans-30" x="63.623047"/>
       <use xlink:href="#DejaVuSans-30" x="127.246094"/>
      </g>
     </g>
    </g>
    <g id="ytick_3">
     <g id="line2d_17">
      <path d="M 57.6 154.100848 
L 414.72 154.100848 
" clip-path="url(#pd53ae070f5)" style="fill: none; stroke: #b0b0b0; stroke-width: 0.8; stroke-linecap: square"/>
     </g>
     <g id="line2d_18">
      <g>
       <use xlink:href="#md6551c4efe" x="57.6" y="154.100848" style="stroke: #000000; stroke-width: 0.8"/>
      </g>
     </g>
     <g id="text_10">
      <!-- 300 -->
      <g transform="translate(31.5125 157.900066)scale(0.1 -0.1)">
       <defs>
        <path id="DejaVuSans-33" d="M 2597 2516 
Q 3050 2419 3304 2112 
Q 3559 1806 3559 1356 
Q 3559 666 3084 287 
Q 2609 -91 1734 -91 
Q 1441 -91 1130 -33 
Q 819 25 488 141 
L 488 750 
Q 750 597 1062 519 
Q 1375 441 1716 441 
Q 2309 441 2620 675 
Q 2931 909 2931 1356 
Q 2931 1769 2642 2001 
Q 2353 2234 1838 2234 
L 1294 2234 
L 1294 2753 
L 1863 2753 
Q 2328 2753 2575 2939 
Q 2822 3125 2822 3475 
Q 2822 3834 2567 4026 
Q 2313 4219 1838 4219 
Q 1578 4219 1281 4162 
Q 984 4106 628 3988 
L 628 4550 
Q 988 4650 1302 4700 
Q 1616 4750 1894 4750 
Q 2613 4750 3031 4423 
Q 3450 4097 3450 3541 
Q 3450 3153 3228 2886 
Q 3006 2619 2597 2516 
z
" transform="scale(0.015625)"/>
       </defs>
       <use xlink:href="#DejaVuSans-33"/>
       <use xlink:href="#DejaVuSans-30" x="63.623047"/>
       <use xlink:href="#DejaVuSans-30" x="127.246094"/>
      </g>
     </g>
    </g>
    <g id="ytick_4">
     <g id="line2d_19">
      <path d="M 57.6 100.854615 
L 414.72 100.854615 
" clip-path="url(#pd53ae070f5)" style="fill: none; stroke: #b0b0b0; stroke-width: 0.8; stroke-linecap: square"/>
     </g>
     <g id="line2d_20">
      <g>
       <use xlink:href="#md6551c4efe" x="57.6" y="100.854615" style="stroke: #000000; stroke-width: 0.8"/>
      </g>
     </g>
     <g id="text_11">
      <!-- 400 -->
      <g transform="translate(31.5125 104.653833)scale(0.1 -0.1)">
       <use xlink:href="#DejaVuSans-34"/>
       <use xlink:href="#DejaVuSans-30" x="63.623047"/>
       <use xlink:href="#DejaVuSans-30" x="127.246094"/>
      </g>
     </g>
    </g>
    <g id="ytick_5">
     <g id="line2d_21">
      <path d="M 57.6 47.608382 
L 414.72 47.608382 
" clip-path="url(#pd53ae070f5)" style="fill: none; stroke: #b0b0b0; stroke-width: 0.8; stroke-linecap: square"/>
     </g>
     <g id="line2d_22">
      <g>
       <use xlink:href="#md6551c4efe" x="57.6" y="47.608382" style="stroke: #000000; stroke-width: 0.8"/>
      </g>
     </g>
     <g id="text_12">
      <!-- 500 -->
      <g transform="translate(31.5125 51.4076)scale(0.1 -0.1)">
       <defs>
        <path id="DejaVuSans-35" d="M 691 4666 
L 3169 4666 
L 3169 4134 
L 1269 4134 
L 1269 2991 
Q 1406 3038 1543 3061 
Q 1681 3084 1819 3084 
Q 2600 3084 3056 2656 
Q 3513 2228 3513 1497 
Q 3513 744 3044 326 
Q 2575 -91 1722 -91 
Q 1428 -91 1123 -41 
Q 819 9 494 109 
L 494 744 
Q 775 591 1075 516 
Q 1375 441 1709 441 
Q 2250 441 2565 725 
Q 2881 1009 2881 1497 
Q 2881 1984 2565 2268 
Q 2250 2553 1709 2553 
Q 1456 2553 1204 2497 
Q 953 2441 691 2322 
L 691 4666 
z
" transform="scale(0.015625)"/>
       </defs>
       <use xlink:href="#DejaVuSans-35"/>
       <use xlink:href="#DejaVuSans-30" x="63.623047"/>
       <use xlink:href="#DejaVuSans-30" x="127.246094"/>
      </g>
     </g>
    </g>
    <g id="text_13">
     <!-- Impedance Magnitude (Ω) -->
     <g transform="translate(25.432812 239.747531)rotate(-90)scale(0.1 -0.1)">
      <defs>
       <path id="DejaVuSans-49" d="M 628 4666 
L 1259 4666 
L 1259 0 
L 628 0 
L 628 4666 
z
" transform="scale(0.015625)"/>
       <path id="DejaVuSans-6d" d="M 3328 2828 
Q 3544 3216 3844 3400 
Q 4144 3584 4550 3584 
Q 5097 3584 5394 3201 
Q 5691 2819 5691 2113 
L 5691 0 
L 5113 0 
L 5113 2094 
Q 5113 2597 4934 2840 
Q 4756 3084 4391 3084 
Q 3944 3084 3684 2787 
Q 3425 2491 3425 1978 
L 3425 0 
L 2847 0 
L 2847 2094 
Q 2847 2600 2669 2842 
Q 2491 3084 2119 3084 
Q 1678 3084 1418 2786 
Q 1159 2488 1159 1978 
L 1159 0 
L 581 0 
L 581 3500 
L 1159 3500 
L 1159 2956 
Q 1356 3278 1631 3431 
Q 1906 3584 2284 3584 
Q 2666 3584 2933 3390 
Q 3200 3197 3328 2828 
z
" transform="scale(0.015625)"/>
       <path id="DejaVuSans-70" d="M 1159 525 
L 1159 -1331 
L 581 -1331 
L 581 3500 
L 1159 3500 
L 1159 2969 
Q 1341 3281 1617 3432 
Q 1894 3584 2278 3584 
Q 2916 3584 3314 3078 
Q 3713 2572 3713 1747 
Q 3713 922 3314 415 
Q 2916 -91 2278 -91 
Q 1894 -91 1617 61 
Q 1341 213 1159 525 
z
M 3116 1747 
Q 3116 2381 2855 2742 
Q 2594 3103 2138 3103 
Q 1681 3103 1420 2742 
Q 1159 2381 1159 1747 
Q 1159 1113 1420 752 
Q 1681 391 2138 391 
Q 2594 391 2855 752 
Q 3116 1113 3116 1747 
z
" transform="scale(0.015625)"/>
       <path id="DejaVuSans-64" d="M 2906 2969 
L 2906 4863 
L 3481 4863 
L 3481 0 
L 2906 0 
L 2906 525 
Q 2725 213 2448 61 
Q 2172 -91 1784 -91 
Q 1150 -91 751 415 
Q 353 922 353 1747 
Q 353 2572 751 3078 
Q 1150 3584 1784 3584 
Q 2172 3584 2448 3432 
Q 2725 3281 2906 2969 
z
M 947 1747 
Q 947 1113 1208 752 
Q 1469 391 1925 391 
Q 2381 391 2643 752 
Q 2906 1113 2906 1747 
Q 2906 2381 2643 2742 
Q 2381 3103 1925 3103 
Q 1469 3103 1208 2742 
Q 947 2381 947 1747 
z
" transform="scale(0.015625)"/>
       <path id="DejaVuSans-61" d="M 2194 1759 
Q 1497 1759 1228 1600 
Q 959 1441 959 1056 
Q 959 750 1161 570 
Q 1363 391 1709 391 
Q 2188 391 2477 730 
Q 2766 1069 2766 1631 
L 2766 1759 
L 2194 1759 
z
M 3341 1997 
L 3341 0 
L 2766 0 
L 2766 531 
Q 2569 213 2275 61 
Q 1981 -91 1556 -91 
Q 1019 -91 701 211 
Q 384 513 384 1019 
Q 384 1609 779 1909 
Q 1175 2209 1959 2209 
L 2766 2209 
L 2766 2266 
Q 2766 2663 2505 2880 
Q 2244 3097 1772 3097 
Q 1472 3097 1187 3025 
Q 903 2953 641 2809 
L 641 3341 
Q 956 3463 1253 3523 
Q 1550 3584 1831 3584 
Q 2591 3584 2966 3190 
Q 3341 2797 3341 1997 
z
" transform="scale(0.015625)"/>
       <path id="DejaVuSans-4d" d="M 628 4666 
L 1569 4666 
L 2759 1491 
L 3956 4666 
L 4897 4666 
L 4897 0 
L 4281 0 
L 4281 4097 
L 3078 897 
L 2444 897 
L 1241 4097 
L 1241 0 
L 628 0 
L 628 4666 
z
" transform="scale(0.015625)"/>
       <path id="DejaVuSans-67" d="M 2906 1791 
Q 2906 2416 2648 2759 
Q 2391 3103 1925 3103 
Q 1463 3103 1205 2759 
Q 947 2416 947 1791 
Q 947 1169 1205 825 
Q 1463 481 1925 481 
Q 2391 481 2648 825 
Q 2906 1169 2906 1791 
z
M 3481 434 
Q 3481 -459 3084 -895 
Q 2688 -1331 1869 -1331 
Q 1566 -1331 1297 -1286 
Q 1028 -1241 775 -1147 
L 775 -588 
Q 1028 -725 1275 -790 
Q 1522 -856 1778 -856 
Q 2344 -856 2625 -561 
Q 2906 -266 2906 331 
L 2906 616 
Q 2728 306 2450 153 
Q 2172 0 1784 0 
Q 1141 0 747 490 
Q 353 981 353 1791 
Q 353 2603 747 3093 
Q 1141 3584 1784 3584 
Q 2172 3584 2450 3431 
Q 2728 3278 2906 2969 
L 2906 3500 
L 3481 3500 
L 3481 434 
z
" transform="scale(0.015625)"/>
       <path id="DejaVuSans-69" d="M 603 3500 
L 1178 3500 
L 1178 0 
L 603 0 
L 603 3500 
z
M 603 4863 
L 1178 4863 
L 1178 4134 
L 603 4134 
L 603 4863 
z
" transform="scale(0.015625)"/>
       <path id="DejaVuSans-74" d="M 1172 4494 
L 1172 3500 
L 2356 3500 
L 2356 3053 
L 1172 3053 
L 1172 1153 
Q 1172 725 1289 603 
Q 1406 481 1766 481 
L 2356 481 
L 2356 0 
L 1766 0 
Q 1100 0 847 248 
Q 594 497 594 1153 
L 594 3053 
L 172 3053 
L 172 3500 
L 594 3500 
L 594 4494 
L 1172 4494 
z
" transform="scale(0.015625)"/>
       <path id="DejaVuSans-3a9" d="M 4647 556 
L 4647 0 
L 2772 0 
L 2772 556 
Q 3325 859 3634 1378 
Q 3944 1897 3944 2528 
Q 3944 3278 3531 3731 
Q 3119 4184 2444 4184 
Q 1769 4184 1355 3729 
Q 941 3275 941 2528 
Q 941 1897 1250 1378 
Q 1563 859 2119 556 
L 2119 0 
L 244 0 
L 244 556 
L 1241 556 
Q 747 991 519 1456 
Q 294 1922 294 2497 
Q 294 3491 894 4106 
Q 1491 4722 2444 4722 
Q 3391 4722 3994 4106 
Q 4594 3494 4594 2528 
Q 4594 1922 4372 1459 
Q 4150 997 3647 556 
L 4647 556 
z
" transform="scale(0.015625)"/>
      </defs>
      <use xlink:href="#DejaVuSans-49"/>
      <use xlink:href="#DejaVuSans-6d" x="29.492188"/>
      <use xlink:href="#DejaVuSans-70" x="126.904297"/>
      <use xlink:href="#DejaVuSans-65" x="190.380859"/>
      <use xlink:href="#DejaVuSans-64" x="251.904297"/>
      <use xlink:href="#DejaVuSans-61" x="315.380859"/>
      <use xlink:href="#DejaVuSans-6e" x="376.660156"/>
      <use xlink:href="#DejaVuSans-63" x="440.039062"/>
      <use xlink:href="#DejaVuSans-65" x="495.019531"/>
      <use xlink:href="#DejaVuSans-20" x="556.542969"/>
      <use xlink:href="#DejaVuSans-4d" x="588.330078"/>
      <use xlink:href="#DejaVuSans-61" x="674.609375"/>
      <use xlink:href="#DejaVuSans-67" x="735.888672"/>
      <use xlink:href="#DejaVuSans-6e" x="799.365234"/>
      <use xlink:href="#DejaVuSans-69" x="862.744141"/>
      <use xlink:href="#DejaVuSans-74" x="890.527344"/>
      <use xlink:href="#DejaVuSans-75" x="929.736328"/>
      <use xlink:href="#DejaVuSans-64" x="993.115234"/>
      <use xlink:href="#DejaVuSans-65" x="1056.591797"/>
      <use xlink:href="#DejaVuSans-20" x="1118.115234"/>
      <use xlink:href="#DejaVuSans-28" x="1149.902344"/>
      <use xlink:href="#DejaVuSans-3a9" x="1188.916016"/>
      <use xlink:href="#DejaVuSans-29" x="1265.332031"/>
     </g>
    </g>
   </g>
   <g id="line2d_23">
    <path d="M 73.832727 285.296413 
L 74.482686 284.522433 
L 75.782604 282.744482 
L 79.0324 278.192746 
L 80.332318 277.131854 
L 80.982277 277.075845 
L 81.632236 277.232508 
L 82.282195 277.705225 
L 83.257133 279.08735 
L 83.907093 280.303783 
L 85.207011 283.432942 
L 88.456806 291.845518 
L 89.431744 293.714336 
L 90.406683 294.944929 
L 91.056642 295.401556 
L 91.706601 295.488 
L 92.35656 295.310324 
L 93.006519 294.833825 
L 93.981458 293.64342 
L 94.956396 292.041571 
L 96.581294 288.73168 
L 99.18113 282.424264 
L 100.806028 278.081225 
L 102.430925 273.463696 
L 103.730844 269.548005 
L 106.0057 262.094289 
L 107.305618 257.299864 
L 108.605536 252.108864 
L 110.555414 242.978337 
L 112.180311 233.908132 
L 113.805209 223.251638 
L 115.430106 212.0984 
L 116.080066 208.429724 
L 116.405045 207.273092 
L 116.730025 206.632376 
L 117.055004 206.534332 
L 117.379984 207.122967 
L 117.704963 208.608718 
L 118.029943 211.104818 
L 118.679902 218.723823 
L 119.65484 234.323645 
L 120.954758 255.783036 
L 121.929697 267.77892 
L 122.579656 273.090855 
L 123.229615 276.334904 
L 123.554595 277.249632 
L 123.879574 277.739639 
L 124.204554 277.864774 
L 124.529533 277.692772 
L 124.854513 277.277625 
L 125.504472 275.851763 
L 126.47941 272.793993 
L 128.104308 266.689751 
L 138.178673 227.337426 
L 140.12855 219.09398 
L 142.078428 210.175046 
L 144.028305 200.273083 
L 145.978182 189.006433 
L 147.928059 175.884196 
L 149.552957 163.102976 
L 151.177854 148.042112 
L 152.802752 130.092957 
L 154.427649 108.81264 
L 157.677445 62.597276 
L 158.327404 56.295478 
L 158.652383 54.371917 
L 158.977363 53.568 
L 159.302342 53.838771 
L 159.627322 55.101327 
L 159.952301 57.436092 
L 160.277281 61.039587 
L 160.92724 72.089235 
L 161.902179 94.715658 
L 164.502015 161.378767 
L 165.476953 179.978497 
L 166.451892 193.811485 
L 167.101851 200.287794 
L 167.75181 204.868532 
L 168.401769 207.616575 
L 168.726749 208.368591 
L 169.051728 208.780633 
L 169.376708 208.880796 
L 169.701687 208.673563 
L 170.026667 208.177114 
L 170.676626 206.540367 
L 171.651564 203.124088 
L 172.626503 199.513793 
L 173.276462 197.756225 
L 173.601441 197.205868 
L 173.926421 196.984264 
L 174.2514 197.165357 
L 174.57638 197.780125 
L 174.90136 198.833057 
L 175.551319 202.313943 
L 176.201278 207.65239 
L 177.176216 218.047907 
L 178.801114 236.331624 
L 179.776052 244.498221 
L 180.426011 247.994068 
L 181.075971 249.853224 
L 181.40095 250.194763 
L 181.72593 250.163522 
L 182.050909 249.789653 
L 182.375889 249.113295 
L 183.025848 246.987136 
L 183.675807 243.983856 
L 184.650745 238.321376 
L 185.950663 229.23356 
L 187.575561 216.2002 
L 189.200459 201.570207 
L 190.825356 185.255885 
L 192.775233 163.401538 
L 195.700049 130.355136 
L 196.350008 125.10556 
L 196.999967 121.751886 
L 197.324947 120.902451 
L 197.649926 120.74378 
L 197.974906 121.364747 
L 198.299885 122.773804 
L 198.949844 127.765458 
L 199.599803 135.492495 
L 200.574742 151.017318 
L 203.499558 201.722192 
L 204.474496 214.789706 
L 205.449435 225.077196 
L 206.424373 232.572547 
L 207.074333 236.153282 
L 207.724292 238.667518 
L 208.374251 240.252208 
L 208.69923 240.727825 
L 209.02421 241.003186 
L 209.349189 241.095481 
L 209.674169 241.026205 
L 209.999148 240.810848 
L 210.649107 239.967134 
L 211.299066 238.646415 
L 212.274005 235.989523 
L 213.573923 231.455967 
L 215.198821 224.692327 
L 217.148698 215.471375 
L 219.423554 203.516107 
L 222.023391 188.461979 
L 224.623227 171.931578 
L 228.522981 146.765759 
L 229.822899 139.98373 
L 230.472858 137.380411 
L 231.122817 135.397045 
L 231.772776 134.12963 
L 232.097756 133.837666 
L 232.422735 133.748917 
L 232.747715 133.832953 
L 233.072695 134.093784 
L 233.397674 134.557691 
L 234.047633 136.064163 
L 235.022572 139.16804 
L 237.297428 147.376446 
L 237.947387 149.075766 
L 238.597346 150.221735 
L 239.247305 150.854636 
L 239.572285 150.921731 
L 239.897265 150.822167 
L 240.547224 150.235578 
L 241.197183 149.11528 
L 241.847142 147.43507 
L 242.82208 144.214889 
L 244.121998 138.744238 
L 248.671712 118.386398 
L 249.64665 115.561957 
L 250.296609 114.109805 
L 250.946568 113.193501 
L 251.596527 112.704727 
L 251.921507 112.598115 
L 252.246486 112.63031 
L 252.896446 113.10175 
L 253.546405 113.92151 
L 254.196364 115.209646 
L 255.171302 117.931051 
L 256.146241 121.559895 
L 257.446159 127.62197 
L 259.071057 136.784414 
L 261.995872 153.931072 
L 263.29579 160.141218 
L 264.270729 163.742691 
L 265.245667 166.423058 
L 265.895627 167.629783 
L 266.545586 168.464116 
L 267.195545 168.854099 
L 267.845504 168.907795 
L 268.495463 168.656278 
L 269.145422 168.09273 
L 270.12036 166.928692 
L 272.070238 163.810859 
L 273.370156 161.766401 
L 274.345094 160.436641 
L 275.320033 159.488256 
L 275.969992 159.016989 
L 276.619951 158.786896 
L 277.594889 158.718165 
L 278.244848 158.942327 
L 279.219787 159.533626 
L 280.194726 160.500803 
L 281.494644 162.10638 
L 286.369337 168.98119 
L 287.669255 170.404938 
L 288.969173 171.553303 
L 290.59407 172.578802 
L 292.868927 173.473853 
L 295.793743 174.562327 
L 296.768681 175.063662 
L 298.393579 176.205102 
L 301.968354 179.281787 
L 302.618313 179.619161 
L 303.268272 179.746855 
L 303.918231 179.687074 
L 304.56819 179.303418 
L 305.218149 178.639525 
L 305.868108 177.670013 
L 306.843047 175.586115 
L 307.817985 172.900681 
L 309.442883 167.411863 
L 313.342637 153.237138 
L 314.967535 148.315386 
L 316.267453 145.063916 
L 317.242391 142.99454 
L 318.54231 140.700561 
L 320.167207 138.602664 
L 321.467125 137.457112 
L 322.117084 136.994807 
L 324.391941 135.990643 
L 327.966716 134.544256 
L 329.916593 133.022705 
L 331.86647 130.743336 
L 334.141327 127.423255 
L 335.441245 125.376409 
L 337.716102 122.196737 
L 339.665979 120.112277 
L 340.965897 119.062479 
L 341.940835 118.518252 
L 342.590794 118.216323 
L 343.565733 117.906905 
L 344.215692 117.678732 
L 345.190631 117.483003 
L 345.84059 117.24976 
L 346.815528 117.05198 
L 347.790467 116.679741 
L 348.440426 116.485363 
L 349.415364 115.991053 
L 350.065324 115.766819 
L 351.040262 115.207282 
L 352.015201 114.833138 
L 352.66516 114.512613 
L 354.615037 114.2239 
L 356.239934 114.673708 
L 357.864832 116.008367 
L 359.814709 118.888434 
L 362.089566 123.602429 
L 363.064505 125.817556 
L 365.339361 131.578201 
L 371.838952 147.016751 
L 372.81389 148.954293 
L 374.438788 152.000319 
L 376.063686 154.546529 
L 377.688583 156.447244 
L 379.313481 157.57254 
L 380.938378 157.842349 
L 382.563276 157.250066 
L 384.513153 155.432661 
L 387.112989 151.807579 
L 387.762948 150.710584 
L 388.737887 149.026299 
L 389.387846 147.899023 
L 390.362785 146.127221 
L 391.012744 145.055405 
L 391.987682 143.310554 
L 392.637641 142.371027 
L 393.61258 140.759275 
L 394.262539 140.012161 
L 395.237477 138.621334 
L 395.887437 138.10161 
L 396.862375 136.990418 
L 397.837314 136.456399 
L 398.487273 135.893602 
L 398.487273 135.893602 
" clip-path="url(#pd53ae070f5)" style="fill: none; stroke: #1f77b4; stroke-width: 1.5; stroke-linecap: square"/>
   </g>
   <g id="line2d_24">
    <path d="M 73.832727 285.296413 
L 74.482686 284.522433 
L 75.782604 282.744482 
L 79.0324 278.192746 
L 80.332318 277.131854 
L 80.982277 277.075845 
L 81.632236 277.232508 
L 82.282195 277.705225 
L 83.257133 279.08735 
L 83.907093 280.303783 
L 85.207011 283.432942 
L 88.456806 291.845518 
L 89.431744 293.714336 
L 90.406683 294.944929 
L 91.056642 295.401556 
L 91.706601 295.488 
L 92.35656 295.310324 
L 93.006519 294.833825 
L 93.981458 293.64342 
L 94.956396 292.041571 
L 96.581294 288.73168 
L 99.18113 282.424264 
L 100.806028 278.081225 
L 102.430925 273.463696 
L 103.730844 269.548005 
L 106.0057 262.094289 
L 107.305618 257.299864 
L 108.605536 252.108864 
L 110.555414 242.978337 
L 112.180311 233.908132 
L 113.805209 223.251638 
L 115.430106 212.0984 
L 116.080066 208.429724 
L 116.405045 207.273092 
L 116.730025 206.632376 
L 117.055004 206.534332 
L 117.379984 207.122967 
L 117.704963 208.608718 
L 118.029943 211.104818 
L 118.679902 218.723823 
L 119.65484 234.323645 
L 120.954758 255.783036 
L 121.929697 267.77892 
L 122.579656 273.090855 
L 123.229615 276.334904 
L 123.554595 277.249632 
L 123.879574 277.739639 
L 124.204554 277.864774 
L 124.529533 277.692772 
L 124.854513 277.277625 
L 125.504472 275.851763 
L 126.47941 272.793993 
L 128.104308 266.689751 
L 138.178673 227.337426 
L 140.12855 219.09398 
L 142.078428 210.175046 
L 144.028305 200.273083 
L 145.978182 189.006433 
L 147.928059 175.884196 
L 149.552957 163.102976 
L 151.177854 148.042112 
L 152.802752 130.092957 
L 154.427649 108.81264 
L 157.677445 62.597276 
L 158.327404 56.295478 
L 158.652383 54.371917 
L 158.977363 53.568 
L 159.302342 53.838771 
L 159.627322 55.101327 
L 159.952301 57.436092 
L 160.277281 61.039587 
L 160.92724 72.089235 
L 161.902179 94.715658 
L 164.502015 161.378767 
L 165.476953 179.978497 
L 166.451892 193.811485 
L 167.101851 200.287794 
L 167.75181 204.868532 
L 168.401769 207.616575 
L 168.726749 208.368591 
L 169.051728 208.780633 
L 169.376708 208.880796 
L 169.701687 208.673563 
L 170.026667 208.177114 
L 170.676626 206.540367 
L 171.651564 203.124088 
L 172.626503 199.513793 
L 173.276462 197.756225 
L 173.601441 197.205868 
L 173.926421 196.984264 
L 174.2514 197.165357 
L 174.57638 197.780125 
L 174.90136 198.833057 
L 175.551319 202.313943 
L 176.201278 207.65239 
L 177.176216 218.047907 
L 178.801114 236.331624 
L 179.776052 244.498221 
L 180.426011 247.994068 
L 181.075971 249.853224 
L 181.40095 250.194763 
L 181.72593 250.163522 
L 182.050909 249.789653 
L 182.375889 249.113295 
L 183.025848 246.987136 
L 183.675807 243.983856 
L 184.650745 238.321376 
L 185.950663 229.23356 
L 187.575561 216.2002 
L 189.200459 201.570207 
L 190.825356 185.255885 
L 192.775233 163.401538 
L 195.700049 130.355136 
L 196.350008 125.10556 
L 196.999967 121.751886 
L 197.324947 120.902451 
L 197.649926 120.74378 
L 197.974906 121.364747 
L 198.299885 122.773804 
L 198.949844 127.765458 
L 199.599803 135.492495 
L 200.574742 151.017318 
L 203.499558 201.722192 
L 204.474496 214.789706 
L 205.449435 225.077196 
L 206.424373 232.572547 
L 207.074333 236.153282 
L 207.724292 238.667518 
L 208.374251 240.252208 
L 208.69923 240.727825 
L 209.02421 241.003186 
L 209.349189 241.095481 
L 209.674169 241.026205 
L 209.999148 240.810848 
L 210.649107 239.967134 
L 211.299066 238.646415 
L 212.274005 235.989523 
L 213.573923 231.455967 
L 215.198821 224.692327 
L 217.148698 215.471375 
L 219.423554 203.516107 
L 222.023391 188.461979 
L 224.623227 171.931578 
L 228.522981 146.765759 
L 229.822899 139.98373 
L 230.472858 137.380411 
L 231.122817 135.397045 
L 231.772776 134.12963 
L 232.097756 133.837666 
L 232.422735 133.748917 
L 232.747715 133.832953 
L 233.072695 134.093784 
L 233.397674 134.557691 
L 234.047633 136.064163 
L 235.022572 139.16804 
L 237.297428 147.376446 
L 237.947387 149.075766 
L 238.597346 150.221735 
L 239.247305 150.854636 
L 239.572285 150.921731 
L 239.897265 150.822167 
L 240.547224 150.235578 
L 241.197183 149.11528 
L 241.847142 147.43507 
L 242.82208 144.214889 
L 244.121998 138.744238 
L 248.671712 118.386398 
L 249.64665 115.561957 
L 250.296609 114.109805 
L 250.946568 113.193501 
L 251.596527 112.704727 
L 251.921507 112.598115 
L 252.246486 112.63031 
L 252.896446 113.10175 
L 253.546405 113.92151 
L 254.196364 115.209646 
L 255.171302 117.931051 
L 256.146241 121.559895 
L 257.446159 127.62197 
L 259.071057 136.784414 
L 261.995872 153.931072 
L 263.29579 160.141218 
L 264.270729 163.742691 
L 265.245667 166.423058 
L 265.895627 167.629783 
L 266.545586 168.464116 
L 267.195545 168.854099 
L 267.845504 168.907795 
L 268.495463 168.656278 
L 269.145422 168.09273 
L 270.12036 166.928692 
L 272.070238 163.810859 
L 273.370156 161.766401 
L 274.345094 160.436641 
L 275.320033 159.488256 
L 275.969992 159.016989 
L 276.619951 158.786896 
L 277.594889 158.718165 
L 278.244848 158.942327 
L 279.219787 159.533626 
L 280.194726 160.500803 
L 281.494644 162.10638 
L 286.369337 168.98119 
L 287.669255 170.404938 
L 288.969173 171.553303 
L 290.59407 172.578802 
L 292.868927 173.473853 
L 295.793743 174.562327 
L 296.768681 175.063662 
L 298.393579 176.205102 
L 301.968354 179.281787 
L 302.618313 179.619161 
L 303.268272 179.746855 
L 303.918231 179.687074 
L 304.56819 179.303418 
L 305.218149 178.639525 
L 305.868108 177.670013 
L 306.843047 175.586115 
L 307.817985 172.900681 
L 309.442883 167.411863 
L 313.342637 153.237138 
L 314.967535 148.315386 
L 316.267453 145.063916 
L 317.242391 142.99454 
L 318.54231 140.700561 
L 320.167207 138.602664 
L 321.467125 137.457112 
L 322.117084 136.994807 
L 324.391941 135.990643 
L 327.966716 134.544256 
L 329.916593 133.022705 
L 331.86647 130.743336 
L 334.141327 127.423255 
L 335.441245 125.376409 
L 337.716102 122.196737 
L 339.665979 120.112277 
L 340.965897 119.062479 
L 341.940835 118.518252 
L 342.590794 118.216323 
L 343.565733 117.906905 
L 344.215692 117.678732 
L 345.190631 117.483003 
L 345.84059 117.24976 
L 346.815528 117.05198 
L 347.790467 116.679741 
L 348.440426 116.485363 
L 349.415364 115.991053 
L 350.065324 115.766819 
L 351.040262 115.207282 
L 352.015201 114.833138 
L 352.66516 114.512613 
L 354.615037 114.2239 
L 356.239934 114.673708 
L 357.864832 116.008367 
L 359.814709 118.888434 
L 362.089566 123.602429 
L 363.064505 125.817556 
L 365.339361 131.578201 
L 371.838952 147.016751 
L 372.81389 148.954293 
L 374.438788 152.000319 
L 376.063686 154.546529 
L 377.688583 156.447244 
L 379.313481 157.57254 
L 380.938378 157.842349 
L 382.563276 157.250066 
L 384.513153 155.432661 
L 387.112989 151.807579 
L 387.762948 150.710584 
L 388.737887 149.026299 
L 389.387846 147.899023 
L 390.362785 146.127221 
L 391.012744 145.055405 
L 391.987682 143.310554 
L 392.637641 142.371027 
L 393.61258 140.759275 
L 394.262539 140.012161 
L 395.237477 138.621334 
L 395.887437 138.10161 
L 396.862375 136.990418 
L 397.837314 136.456399 
L 398.487273 135.893602 
L 398.487273 135.893602 
" clip-path="url(#pd53ae070f5)" style="fill: none; stroke: #ff7f0e; stroke-width: 1.5; stroke-linecap: square"/>
   </g>
   <g id="patch_3">
    <path d="M 57.6 307.584 
L 57.6 41.472 
" style="fill: none; stroke: #000000; stroke-width: 0.8; stroke-linejoin: miter; stroke-linecap: square"/>
   </g>
   <g id="patch_4">
    <path d="M 414.72 307.584 
L 414.72 41.472 
" style="fill: none; stroke: #000000; stroke-width: 0.8; stroke-linejoin: miter; stroke-linecap: square"/>
   </g>
   <g id="patch_5">
    <path d="M 57.6 307.584 
L 414.72 307.584 
" style="fill: none; stroke: #000000; stroke-width: 0.8; stroke-linejoin: miter; stroke-linecap: square"/>
   </g>
   <g id="patch_6">
    <path d="M 57.6 41.472 
L 414.72 41.472 
" style="fill: none; stroke: #000000; stroke-width: 0.8; stroke-linejoin: miter; stroke-linecap: square"/>
   </g>
   <g id="legend_1">
    <g id="patch_7">
     <path d="M 334.32 79.672 
L 407.72 79.672 
Q 409.72 79.672 409.72 77.672 
L 409.72 48.472 
Q 409.72 46.472 407.72 46.472 
L 334.32 46.472 
Q 332.32 46.472 332.32 48.472 
L 332.32 77.672 
Q 332.32 79.672 334.32 79.672 
z
" style="fill: #ffffff; opacity: 0.8; stroke: #cccccc; stroke-linejoin: miter"/>
    </g>
    <g id="line2d_25">
     <path d="M 336.32 54.672 
L 346.32 54.672 
L 356.32 54.672 
" style="fill: none; stroke: #1f77b4; stroke-width: 1.5; stroke-linecap: square"/>
    </g>
    <g id="text_14">
     <!-- $|Z_{11}|$ (Ω) -->
     <g transform="translate(364.32 58.172)scale(0.1 -0.1)">
      <defs>
       <path id="DejaVuSans-7c" d="M 1344 4891 
L 1344 -1509 
L 813 -1509 
L 813 4891 
L 1344 4891 
z
" transform="scale(0.015625)"/>
       <path id="DejaVuSans-Oblique-5a" d="M 838 4666 
L 4500 4666 
L 4409 4184 
L 794 531 
L 3769 531 
L 3669 0 
L -141 0 
L -50 481 
L 3566 4134 
L 738 4134 
L 838 4666 
z
" transform="scale(0.015625)"/>
      </defs>
      <use xlink:href="#DejaVuSans-7c" transform="translate(0 0.578125)"/>
      <use xlink:href="#DejaVuSans-Oblique-5a" transform="translate(33.691406 0.578125)"/>
      <use xlink:href="#DejaVuSans-31" transform="translate(102.197266 -15.828125)scale(0.7)"/>
      <use xlink:href="#DejaVuSans-31" transform="translate(146.733398 -15.828125)scale(0.7)"/>
      <use xlink:href="#DejaVuSans-7c" transform="translate(194.003906 0.578125)"/>
      <use xlink:href="#DejaVuSans-20" transform="translate(227.695312 0.578125)"/>
      <use xlink:href="#DejaVuSans-28" transform="translate(259.482422 0.578125)"/>
      <use xlink:href="#DejaVuSans-3a9" transform="translate(298.496094 0.578125)"/>
      <use xlink:href="#DejaVuSans-29" transform="translate(374.912109 0.578125)"/>
     </g>
    </g>
    <g id="line2d_26">
     <path d="M 336.32 69.772 
L 346.32 69.772 
L 356.32 69.772 
" style="fill: none; stroke: #ff7f0e; stroke-width: 1.5; stroke-linecap: square"/>
    </g>
    <g id="text_15">
     <!-- $|Z_{11}|$ (Ω) -->
     <g transform="translate(364.32 73.272)scale(0.1 -0.1)">
      <use xlink:href="#DejaVuSans-7c" transform="translate(0 0.578125)"/>
      <use xlink:href="#DejaVuSans-Oblique-5a" transform="translate(33.691406 0.578125)"/>
      <use xlink:href="#DejaVuSans-31" transform="translate(102.197266 -15.828125)scale(0.7)"/>
      <use xlink:href="#DejaVuSans-31" transform="translate(146.733398 -15.828125)scale(0.7)"/>
      <use xlink:href="#DejaVuSans-7c" transform="translate(194.003906 0.578125)"/>
      <use xlink:href="#DejaVuSans-20" transform="translate(227.695312 0.578125)"/>
      <use xlink:href="#DejaVuSans-28" transform="translate(259.482422 0.578125)"/>
      <use xlink:href="#DejaVuSans-3a9" transform="translate(298.496094 0.578125)"/>
      <use xlink:href="#DejaVuSans-29" transform="translate(374.912109 0.578125)"/>
     </g>
    </g>
   </g>
  </g>
 </g>
 <defs>
  <clipPath id="pd53ae070f5">
   <rect x="57.6" y="41.472" width="357.12" height="266.112"/>
  </clipPath>
 </defs>
</svg>
