<?xml version="1.0" encoding="UTF-8" standalone="no"?>
<!-- Created with Inkscape (http://www.inkscape.org/) -->

<svg
   width="88.568092mm"
   height="24.432573mm"
   viewBox="0 0 88.568092 24.432573"
   version="1.1"
   id="svg1"
   xmlns:inkscape="http://www.inkscape.org/namespaces/inkscape"
   xmlns:sodipodi="http://sodipodi.sourceforge.net/DTD/sodipodi-0.dtd"
   xmlns="http://www.w3.org/2000/svg"
   xmlns:svg="http://www.w3.org/2000/svg">
  <sodipodi:namedview
     id="namedview1"
     pagecolor="#ffffff"
     bordercolor="#000000"
     borderopacity="0.25"
     inkscape:showpageshadow="2"
     inkscape:pageopacity="0.0"
     inkscape:pagecheckerboard="0"
     inkscape:deskcolor="#d1d1d1"
     inkscape:document-units="mm">
    <inkscape:page
       x="0"
       y="0"
       width="88.568092"
       height="24.432573"
       id="page2"
       margin="0"
       bleed="0" />
  </sodipodi:namedview>
  <defs
     id="defs1">
    <clipPath
       clipPathUnits="userSpaceOnUse"
       id="clipPath545">
      <path
         d="M 0,0 H 326.25006 V 89.999989 H 0 Z"
         transform="matrix(1,0,0,-1,-3.2487362e-5,89.999989)"
         id="path545" />
    </clipPath>
    <clipPath
       clipPathUnits="userSpaceOnUse"
       id="clipPath546">
      <path
         d="M 0,0 H 326.25006 V 89.999989 H 0 Z"
         transform="matrix(1,0,0,-1,-3.2487362e-5,89.999989)"
         id="path546" />
    </clipPath>
    <clipPath
       clipPathUnits="userSpaceOnUse"
       id="clipPath547">
      <path
         d="M 0,0 H 326.25006 V 89.999989 H 0 Z"
         transform="matrix(1,0,0,-1,-3.2487362e-5,89.999989)"
         id="path547" />
    </clipPath>
    <clipPath
       clipPathUnits="userSpaceOnUse"
       id="clipPath548">
      <path
         d="M 0,0 H 326.25006 V 89.999989 H 0 Z"
         transform="matrix(1,0,0,-1,-3.2487362e-5,89.999989)"
         id="path548" />
    </clipPath>
    <clipPath
       clipPathUnits="userSpaceOnUse"
       id="clipPath549">
      <path
         d="M 0,0 H 326.25006 V 89.999989 H 0 Z"
         transform="matrix(1,0,0,-1,-3.2487362e-5,89.999989)"
         id="path549" />
    </clipPath>
    <clipPath
       clipPathUnits="userSpaceOnUse"
       id="clipPath550">
      <path
         d="M 0,0 H 326.25006 V 89.999989 H 0 Z"
         transform="matrix(-1,0,0,1,3.2487362e-5,-89.999989)"
         id="path550" />
    </clipPath>
    <clipPath
       clipPathUnits="userSpaceOnUse"
       id="clipPath551">
      <path
         d="M 0,0 H 326.25006 V 89.999989 H 0 Z"
         transform="matrix(1,0,0,-1,-3.2487362e-5,89.999989)"
         id="path551" />
    </clipPath>
    <clipPath
       clipPathUnits="userSpaceOnUse"
       id="clipPath552">
      <path
         d="M 0,0 H 326.25006 V 89.999989 H 0 Z"
         transform="matrix(1,0,0,-1,-3.2487362e-5,89.999989)"
         id="path552" />
    </clipPath>
    <clipPath
       clipPathUnits="userSpaceOnUse"
       id="clipPath553">
      <path
         d="M 0,0 H 326.25006 V 89.999989 H 0 Z"
         transform="matrix(1,0,0,-1,-3.2487362e-5,89.999989)"
         id="path553" />
    </clipPath>
    <clipPath
       clipPathUnits="userSpaceOnUse"
       id="clipPath554">
      <path
         d="M 0,0 H 326.25006 V 89.999989 H 0 Z"
         transform="matrix(-1,0,0,1,3.2487362e-5,-89.999989)"
         id="path554" />
    </clipPath>
    <clipPath
       clipPathUnits="userSpaceOnUse"
       id="clipPath555">
      <path
         d="M 0,0 H 326.25006 V 89.999989 H 0 Z"
         transform="matrix(1,0,0,-1,-3.2487362e-5,89.999989)"
         id="path555" />
    </clipPath>
    <clipPath
       clipPathUnits="userSpaceOnUse"
       id="clipPath556">
      <path
         d="M 0,0 H 326.25006 V 89.999989 H 0 Z"
         transform="matrix(1,0,0,-1,-3.2487362e-5,89.999989)"
         id="path556" />
    </clipPath>
    <clipPath
       clipPathUnits="userSpaceOnUse"
       id="clipPath557">
      <path
         d="M 0,0 H 326.25006 V 89.999989 H 0 Z"
         transform="matrix(1,0,0,-1,-3.2487362e-5,89.999989)"
         id="path557" />
    </clipPath>
    <clipPath
       clipPathUnits="userSpaceOnUse"
       id="clipPath558">
      <path
         d="M 0,0 H 326.25006 V 89.999989 H 0 Z"
         transform="matrix(1,0,0,-1,-3.2487362e-5,89.999989)"
         id="path558" />
    </clipPath>
    <clipPath
       clipPathUnits="userSpaceOnUse"
       id="clipPath559">
      <path
         d="M 0,0 H 326.25006 V 89.999989 H 0 Z"
         transform="matrix(1,0,0,-1,-3.2487362e-5,89.999989)"
         id="path559" />
    </clipPath>
    <clipPath
       clipPathUnits="userSpaceOnUse"
       id="clipPath560">
      <path
         d="M 0,0 H 326.25006 V 89.999989 H 0 Z"
         transform="matrix(1,0,0,-1,-3.2487362e-5,89.999989)"
         id="path560" />
    </clipPath>
    <clipPath
       clipPathUnits="userSpaceOnUse"
       id="clipPath561">
      <path
         d="M 0,0 H 326.25006 V 89.999989 H 0 Z"
         transform="matrix(1,0,0,-1,-3.2487362e-5,89.999989)"
         id="path561" />
    </clipPath>
    <clipPath
       clipPathUnits="userSpaceOnUse"
       id="clipPath562">
      <path
         d="M 0,0 H 326.25006 V 89.999989 H 0 Z"
         transform="matrix(1,0,0,-1,-3.2487362e-5,89.999989)"
         id="path562" />
    </clipPath>
    <clipPath
       clipPathUnits="userSpaceOnUse"
       id="clipPath563">
      <path
         d="M 0,0 H 326.25006 V 89.999989 H 0 Z"
         transform="matrix(1,0,0,-1,-3.2487362e-5,89.999989)"
         id="path563" />
    </clipPath>
    <clipPath
       clipPathUnits="userSpaceOnUse"
       id="clipPath564">
      <path
         d="M 0,0 H 326.25006 V 89.999989 H 0 Z"
         transform="matrix(1,0,0,-1,-3.2487362e-5,89.999989)"
         id="path564" />
    </clipPath>
    <clipPath
       clipPathUnits="userSpaceOnUse"
       id="clipPath565">
      <path
         d="M 0,0 H 326.25006 V 89.999989 H 0 Z"
         transform="matrix(1,0,0,-1,-3.2487362e-5,89.999989)"
         id="path565" />
    </clipPath>
    <clipPath
       clipPathUnits="userSpaceOnUse"
       id="clipPath566">
      <path
         d="M 0,0 H 326.25006 V 89.999989 H 0 Z"
         transform="matrix(1,0,0,-1,-3.2487362e-5,89.999989)"
         id="path566" />
    </clipPath>
    <clipPath
       clipPathUnits="userSpaceOnUse"
       id="clipPath567">
      <path
         d="M 0,0 H 326.25006 V 89.999989 H 0 Z"
         transform="matrix(1,0,0,-1,-3.2487362e-5,89.999989)"
         id="path567" />
    </clipPath>
    <clipPath
       clipPathUnits="userSpaceOnUse"
       id="clipPath568">
      <path
         d="M 0,0 H 326.25006 V 89.999989 H 0 Z"
         transform="matrix(1,0,0,-1,-3.2487362e-5,89.999989)"
         id="path568" />
    </clipPath>
    <clipPath
       clipPathUnits="userSpaceOnUse"
       id="clipPath569">
      <path
         d="M 0,0 H 326.25006 V 89.999989 H 0 Z"
         transform="matrix(1,0,0,-1,-128.69336,60.415)"
         id="path569" />
    </clipPath>
    <clipPath
       clipPathUnits="userSpaceOnUse"
       id="clipPath570">
      <path
         d="M 0,0 H 326.25006 V 89.999989 H 0 Z"
         transform="matrix(1,0,0,-1,-119.06859,80.665005)"
         id="path570" />
    </clipPath>
    <clipPath
       clipPathUnits="userSpaceOnUse"
       id="clipPath571">
      <path
         d="M 0,0 H 326.25006 V 89.999989 H 0 Z"
         transform="matrix(1,0,0,-1,-3.2487362e-5,89.999989)"
         id="path571" />
    </clipPath>
    <clipPath
       clipPathUnits="userSpaceOnUse"
       id="clipPath572">
      <path
         d="M 0,0 H 326.25006 V 89.999989 H 0 Z"
         transform="matrix(1,0,0,-1,-3.2487362e-5,89.999989)"
         id="path572" />
    </clipPath>
    <clipPath
       clipPathUnits="userSpaceOnUse"
       id="clipPath573">
      <path
         d="M 0,0 H 326.25006 V 89.999989 H 0 Z"
         transform="matrix(1,0,0,-1,-3.2487362e-5,89.999989)"
         id="path573" />
    </clipPath>
    <clipPath
       clipPathUnits="userSpaceOnUse"
       id="clipPath574">
      <path
         d="M 0,0 H 326.25006 V 89.999989 H 0 Z"
         transform="matrix(1,0,0,-1,-3.2487362e-5,89.999989)"
         id="path574" />
    </clipPath>
    <clipPath
       clipPathUnits="userSpaceOnUse"
       id="clipPath575">
      <path
         d="M 0,0 H 326.25006 V 89.999989 H 0 Z"
         transform="matrix(1,0,0,-1,-3.2487362e-5,89.999989)"
         id="path575" />
    </clipPath>
    <clipPath
       clipPathUnits="userSpaceOnUse"
       id="clipPath577">
      <path
         d="m 165.066,61.855 h 8.508 v 7.73 h -8.508 z"
         transform="matrix(1.02604,0,0,1.02604,1251.9707,74.759078)"
         id="path577" />
    </clipPath>
    <clipPath
       clipPathUnits="userSpaceOnUse"
       id="clipPath576">
      <path
         d="M 0,0 H 327 V 90 H 0 Z"
         transform="translate(-3.2487362e-5)"
         id="path576" />
    </clipPath>
    <clipPath
       clipPathUnits="userSpaceOnUse"
       id="clipPath578">
      <path
         d="M 0,0 H 326.25006 V 89.999989 H 0 Z"
         transform="matrix(1,0,0,-1,-3.2487362e-5,89.999989)"
         id="path578" />
    </clipPath>
    <clipPath
       clipPathUnits="userSpaceOnUse"
       id="clipPath580">
      <path
         d="m 83.457,61.863 h 7.191 v 7.836 h -7.191 z"
         transform="matrix(1.02604,0,0,1.02604,1251.9707,74.759078)"
         id="path580" />
    </clipPath>
    <clipPath
       clipPathUnits="userSpaceOnUse"
       id="clipPath579">
      <path
         d="M 0,0 H 327 V 90 H 0 Z"
         transform="translate(-3.2487362e-5)"
         id="path579" />
    </clipPath>
    <clipPath
       clipPathUnits="userSpaceOnUse"
       id="clipPath581">
      <path
         d="M 0,0 H 326.25006 V 89.999989 H 0 Z"
         transform="matrix(1,0,0,-1,-3.2487362e-5,89.999989)"
         id="path581" />
    </clipPath>
    <clipPath
       clipPathUnits="userSpaceOnUse"
       id="clipPath583">
      <path
         d="m 247.496,61.938 h 8.297 v 7.531 h -8.297 z"
         transform="matrix(1.02604,0,0,1.02604,1251.9707,74.759078)"
         id="path583" />
    </clipPath>
    <clipPath
       clipPathUnits="userSpaceOnUse"
       id="clipPath582">
      <path
         d="M 0,0 H 327 V 90 H 0 Z"
         transform="translate(-3.2487362e-5)"
         id="path582" />
    </clipPath>
    <clipPath
       clipPathUnits="userSpaceOnUse"
       id="clipPath584">
      <path
         d="M 0,0 H 326.25006 V 89.999989 H 0 Z"
         transform="matrix(1,0,0,-1,-3.2487362e-5,89.999989)"
         id="path584" />
    </clipPath>
    <clipPath
       clipPathUnits="userSpaceOnUse"
       id="clipPath585">
      <path
         d="M 0,0 H 326.25006 V 89.999989 H 0 Z"
         transform="matrix(1,0,0,-1,-3.2487362e-5,89.999989)"
         id="path585" />
    </clipPath>
    <clipPath
       clipPathUnits="userSpaceOnUse"
       id="clipPath587">
      <path
         d="m 31.922,47.395 h 3 v 5.449 h -3 z"
         transform="matrix(1.02604,0,0,1.02604,1251.9707,74.759078)"
         id="path587" />
    </clipPath>
    <clipPath
       clipPathUnits="userSpaceOnUse"
       id="clipPath586">
      <path
         d="M 0,0 H 327 V 90 H 0 Z"
         transform="translate(-3.2487362e-5)"
         id="path586" />
    </clipPath>
    <clipPath
       clipPathUnits="userSpaceOnUse"
       id="clipPath588">
      <path
         d="M 0,0 H 326.25006 V 89.999989 H 0 Z"
         transform="matrix(1,0,0,-1,-3.2487362e-5,89.999989)"
         id="path588" />
    </clipPath>
    <clipPath
       clipPathUnits="userSpaceOnUse"
       id="clipPath589">
      <path
         d="M 0,0 H 326.25006 V 89.999989 H 0 Z"
         transform="matrix(1,0,0,-1,-3.2487362e-5,89.999989)"
         id="path589" />
    </clipPath>
    <clipPath
       clipPathUnits="userSpaceOnUse"
       id="clipPath591">
      <path
         d="m 34.984,78.75 h 4 v 5.449 h -4 z"
         transform="matrix(1.02604,0,0,1.02604,1251.9707,74.759078)"
         id="path591" />
    </clipPath>
    <clipPath
       clipPathUnits="userSpaceOnUse"
       id="clipPath590">
      <path
         d="M 0,0 H 327 V 90 H 0 Z"
         transform="translate(-3.2487362e-5)"
         id="path590" />
    </clipPath>
    <clipPath
       clipPathUnits="userSpaceOnUse"
       id="clipPath592">
      <path
         d="M 0,0 H 326.25006 V 89.999989 H 0 Z"
         transform="matrix(1,0,0,-1,-3.2487362e-5,89.999989)"
         id="path592" />
    </clipPath>
    <clipPath
       clipPathUnits="userSpaceOnUse"
       id="clipPath593">
      <path
         d="M 0,0 H 326.25006 V 89.999989 H 0 Z"
         transform="matrix(1,0,0,-1,-3.2487362e-5,89.999989)"
         id="path593" />
    </clipPath>
    <clipPath
       clipPathUnits="userSpaceOnUse"
       id="clipPath595">
      <path
         d="m 291.922,78.75 h 4 v 5.449 h -4 z"
         transform="matrix(1.02604,0,0,1.02604,1251.9707,74.759078)"
         id="path595" />
    </clipPath>
    <clipPath
       clipPathUnits="userSpaceOnUse"
       id="clipPath594">
      <path
         d="M 0,0 H 327 V 90 H 0 Z"
         transform="translate(-3.2487362e-5)"
         id="path594" />
    </clipPath>
    <clipPath
       clipPathUnits="userSpaceOnUse"
       id="clipPath596">
      <path
         d="M 0,0 H 326.25006 V 89.999989 H 0 Z"
         transform="matrix(1,0,0,-1,-3.2487362e-5,89.999989)"
         id="path596" />
    </clipPath>
    <clipPath
       clipPathUnits="userSpaceOnUse"
       id="clipPath597">
      <path
         d="M 0,0 H 326.25006 V 89.999989 H 0 Z"
         transform="matrix(1,0,0,-1,-3.2487362e-5,89.999989)"
         id="path597" />
    </clipPath>
    <clipPath
       clipPathUnits="userSpaceOnUse"
       id="clipPath599">
      <path
         d="m 295.828,47.395 h 4 v 5.449 h -4 z"
         transform="matrix(1.02604,0,0,1.02604,1251.9707,74.759078)"
         id="path599" />
    </clipPath>
    <clipPath
       clipPathUnits="userSpaceOnUse"
       id="clipPath598">
      <path
         d="M 0,0 H 327 V 90 H 0 Z"
         transform="translate(-3.2487362e-5)"
         id="path598" />
    </clipPath>
  </defs>
  <g
     inkscape:label="Layer 1"
     inkscape:groupmode="layer"
     id="layer1"
     transform="translate(-60.589577,-136.26042)">
    <g
       id="g646"
       transform="matrix(0.26458333,0,0,0.26458333,-270.661,116.48041)">
      <path
         d="m 0.008,0 h 326.234 c 0.004,0 0.008,0.004 0.008,0.008 v 89.984 c 0,0.004 -0.004,0.008 -0.008,0.008 L 0.008,90 C 0.004,90 0,89.996 0,89.992 V 0.008 C 0,0.004 0.004,0 0.008,0 Z"
         style="fill:#ffffff;fill-opacity:1;fill-rule:nonzero;stroke:none"
         transform="matrix(1.02604,0,0,1.02604,1251.9707,74.759078)"
         clip-path="url(#clipPath545)"
         id="path600" />
      <path
         d="m 213.699,42.492 h 64.656 c 0.149,0 0.27,0.117 0.27,0.266 v 41.984 c 0,0.149 -0.121,0.27 -0.27,0.27 h -64.656 c -0.152,0 -0.269,-0.121 -0.269,-0.27 V 42.758 c 0,-0.149 0.117,-0.266 0.269,-0.266 z"
         style="fill:#ffffff;fill-opacity:1;fill-rule:nonzero;stroke:#2d2d2d;stroke-width:1.41732;stroke-linecap:round;stroke-linejoin:round;stroke-miterlimit:4;stroke-dasharray:none;stroke-opacity:1"
         transform="matrix(1.02604,0,0,1.02604,1251.9707,74.759078)"
         clip-path="url(#clipPath546)"
         id="path601" />
      <path
         d="m 130.82,42.492 h 64.66 c 0.149,0 0.27,0.117 0.27,0.266 v 41.984 c 0,0.149 -0.121,0.27 -0.27,0.27 h -64.66 c -0.148,0 -0.265,-0.121 -0.265,-0.27 V 42.758 c 0,-0.149 0.117,-0.266 0.265,-0.266 z"
         style="fill:#ffffff;fill-opacity:1;fill-rule:nonzero;stroke:#2d2d2d;stroke-width:1.41732;stroke-linecap:round;stroke-linejoin:round;stroke-miterlimit:4;stroke-dasharray:none;stroke-opacity:1"
         transform="matrix(1.02604,0,0,1.02604,1251.9707,74.759078)"
         clip-path="url(#clipPath547)"
         id="path602" />
      <path
         d="m 47.945,42.492 h 64.66 c 0.149,0 0.27,0.117 0.27,0.266 v 41.984 c 0,0.149 -0.121,0.27 -0.27,0.27 h -64.66 c -0.148,0 -0.265,-0.121 -0.265,-0.27 V 42.758 c 0,-0.149 0.117,-0.266 0.265,-0.266 z"
         style="fill:#ffffff;fill-opacity:1;fill-rule:nonzero;stroke:#2d2d2d;stroke-width:1.41732;stroke-linecap:round;stroke-linejoin:round;stroke-miterlimit:4;stroke-dasharray:none;stroke-opacity:1"
         transform="matrix(1.02604,0,0,1.02604,1251.9707,74.759078)"
         clip-path="url(#clipPath548)"
         id="path603" />
      <path
         d="M 303.75,63.75 H 278.625"
         style="fill:none;stroke:#2d2d2d;stroke-width:1.41732;stroke-linecap:butt;stroke-linejoin:miter;stroke-miterlimit:4;stroke-dasharray:none;stroke-opacity:1"
         transform="matrix(1.02604,0,0,1.02604,1251.9707,74.759078)"
         clip-path="url(#clipPath549)"
         id="path604" />
      <path
         d="m -301.586,-63.75 c 0,1.219 -0.988,2.211 -2.207,2.211 -1.219,0 -2.211,-0.992 -2.211,-2.211 0,-1.219 0.992,-2.211 2.211,-2.211 1.219,0 2.207,0.992 2.207,2.211 z"
         style="fill:#000000;fill-opacity:1;fill-rule:evenodd;stroke:#000000;stroke-width:0.589106;stroke-linecap:butt;stroke-linejoin:miter;stroke-miterlimit:4;stroke-dasharray:none;stroke-opacity:1"
         transform="matrix(-1.02604,0,0,-1.02604,1251.9707,74.759078)"
         clip-path="url(#clipPath550)"
         id="path605" />
      <path
         d="M 213.43,63.75 H 195.75"
         style="fill:none;stroke:#2d2d2d;stroke-width:1.41732;stroke-linecap:butt;stroke-linejoin:miter;stroke-miterlimit:4;stroke-dasharray:none;stroke-opacity:1"
         transform="matrix(1.02604,0,0,1.02604,1251.9707,74.759078)"
         clip-path="url(#clipPath551)"
         id="path606" />
      <path
         d="m 130.555,63.75 h -17.68"
         style="fill:none;stroke:#2d2d2d;stroke-width:1.41732;stroke-linecap:butt;stroke-linejoin:miter;stroke-miterlimit:4;stroke-dasharray:none;stroke-opacity:1"
         transform="matrix(1.02604,0,0,1.02604,1251.9707,74.759078)"
         clip-path="url(#clipPath552)"
         id="path607" />
      <path
         d="M 47.68,63.75 H 22.5"
         style="fill:none;stroke:#2d2d2d;stroke-width:1.41732;stroke-linecap:butt;stroke-linejoin:miter;stroke-miterlimit:4;stroke-dasharray:none;stroke-opacity:1"
         transform="matrix(1.02604,0,0,1.02604,1251.9707,74.759078)"
         clip-path="url(#clipPath553)"
         id="path608" />
      <path
         d="m -20.336,-63.75 c 0,1.219 -0.988,2.211 -2.207,2.211 -1.219,0 -2.211,-0.992 -2.211,-2.211 0,-1.219 0.992,-2.211 2.211,-2.211 1.219,0 2.207,0.992 2.207,2.211 z"
         style="fill:#000000;fill-opacity:1;fill-rule:evenodd;stroke:#000000;stroke-width:0.589106;stroke-linecap:butt;stroke-linejoin:miter;stroke-miterlimit:4;stroke-dasharray:none;stroke-opacity:1"
         transform="matrix(-1.02604,0,0,-1.02604,1251.9707,74.759078)"
         clip-path="url(#clipPath554)"
         id="path609" />
      <path
         d="M 122.25,31.715 V 60"
         style="fill:none;stroke:#2d2d2d;stroke-width:1.41732;stroke-linecap:round;stroke-linejoin:round;stroke-miterlimit:4;stroke-dasharray:4.25197, 4.25197;stroke-dashoffset:0;stroke-opacity:1"
         transform="matrix(1.02604,0,0,1.02604,1251.9707,74.759078)"
         clip-path="url(#clipPath555)"
         id="path610" />
      <path
         d="M 41.25,11.266 V 60"
         style="fill:none;stroke:#2d2d2d;stroke-width:1.41733;stroke-linecap:round;stroke-linejoin:round;stroke-miterlimit:4;stroke-dasharray:4.25197, 4.25197;stroke-dashoffset:0;stroke-opacity:1"
         transform="matrix(1.02604,0,0,1.02604,1251.9707,74.759078)"
         clip-path="url(#clipPath556)"
         id="path611" />
      <path
         d="M 285,11.258 V 60"
         style="fill:none;stroke:#2d2d2d;stroke-width:1.41733;stroke-linecap:round;stroke-linejoin:round;stroke-miterlimit:4;stroke-dasharray:4.25194, 4.25194;stroke-dashoffset:0;stroke-opacity:1"
         transform="matrix(1.02604,0,0,1.02604,1251.9707,74.759078)"
         clip-path="url(#clipPath557)"
         id="path612" />
      <path
         d="M 204,31.715 V 60"
         style="fill:none;stroke:#2d2d2d;stroke-width:1.41732;stroke-linecap:round;stroke-linejoin:round;stroke-miterlimit:4;stroke-dasharray:4.25197, 4.25197;stroke-dashoffset:0;stroke-opacity:1"
         transform="matrix(1.02604,0,0,1.02604,1251.9707,74.759078)"
         clip-path="url(#clipPath558)"
         id="path613" />
      <path
         d="M 198.461,36 H 127.844"
         style="fill:none;stroke:#2d2d2d;stroke-width:1.41732;stroke-linecap:round;stroke-linejoin:round;stroke-miterlimit:4;stroke-dasharray:none;stroke-opacity:1"
         transform="matrix(1.02604,0,0,1.02604,1251.9707,74.759078)"
         clip-path="url(#clipPath559)"
         id="path614" />
      <path
         d="m 198.316,33.254 4.297,2.148 c 0.492,0.246 0.492,0.95 0,1.196 l -4.297,2.148 c -0.546,0.274 -1.195,-0.125 -1.195,-0.738 v -4.016 c 0,-0.613 0.649,-1.012 1.195,-0.738 z"
         style="fill:#2d2d2d;fill-opacity:1;fill-rule:evenodd;stroke:none"
         transform="matrix(1.02604,0,0,1.02604,1251.9707,74.759078)"
         clip-path="url(#clipPath560)"
         id="path615" />
      <path
         d="m 127.984,38.746 -4.293,-2.148 c -0.492,-0.246 -0.492,-0.95 0,-1.196 l 4.293,-2.148 c 0.551,-0.274 1.196,0.125 1.196,0.738 v 4.016 c 0,0.613 -0.645,1.012 -1.196,0.738 z"
         style="fill:#2d2d2d;fill-opacity:1;fill-rule:evenodd;stroke:none"
         transform="matrix(1.02604,0,0,1.02604,1251.9707,74.759078)"
         clip-path="url(#clipPath561)"
         id="path616" />
      <path
         d="M 279,15 H 47.301"
         style="fill:none;stroke:#2d2d2d;stroke-width:1.41732;stroke-linecap:round;stroke-linejoin:round;stroke-miterlimit:4;stroke-dasharray:none;stroke-opacity:1"
         transform="matrix(1.02604,0,0,1.02604,1251.9707,74.759078)"
         clip-path="url(#clipPath562)"
         id="path617" />
      <path
         d="m 278.859,12.254 4.293,2.148 c 0.493,0.246 0.493,0.95 0,1.196 l -4.293,2.148 c -0.55,0.274 -1.195,-0.125 -1.195,-0.738 v -4.016 c 0,-0.613 0.645,-1.012 1.195,-0.738 z"
         style="fill:#2d2d2d;fill-opacity:1;fill-rule:evenodd;stroke:none"
         transform="matrix(1.02604,0,0,1.02604,1251.9707,74.759078)"
         clip-path="url(#clipPath563)"
         id="path618" />
      <path
         d="m 47.441,17.746 -4.293,-2.148 c -0.492,-0.246 -0.492,-0.95 0,-1.196 l 4.293,-2.148 c 0.551,-0.274 1.2,0.125 1.2,0.738 v 4.016 c 0,0.613 -0.649,1.012 -1.2,0.738 z"
         style="fill:#2d2d2d;fill-opacity:1;fill-rule:evenodd;stroke:none"
         transform="matrix(1.02604,0,0,1.02604,1251.9707,74.759078)"
         clip-path="url(#clipPath564)"
         id="path619" />
      <path
         d="m 292.332,56.25 h 6.727"
         style="fill:none;stroke:#2d2d2d;stroke-width:1.41732;stroke-linecap:round;stroke-linejoin:round;stroke-miterlimit:4;stroke-dasharray:none;stroke-opacity:1"
         transform="matrix(1.02604,0,0,1.02604,1251.9707,74.759078)"
         clip-path="url(#clipPath565)"
         id="path620" />
      <path
         d="m 293.285,58.156 -5.242,-1.906 5.242,-1.906 c -0.953,1.109 -0.953,2.699 0,3.812 z"
         style="fill:#2d2d2d;fill-opacity:1;fill-rule:evenodd;stroke:none"
         transform="matrix(1.02604,0,0,1.02604,1251.9707,74.759078)"
         clip-path="url(#clipPath566)"
         id="path621" />
      <path
         d="M 295.477,71.25 H 288.75"
         style="fill:none;stroke:#2d2d2d;stroke-width:1.41732;stroke-linecap:round;stroke-linejoin:round;stroke-miterlimit:4;stroke-dasharray:none;stroke-opacity:1"
         transform="matrix(1.02604,0,0,1.02604,1251.9707,74.759078)"
         clip-path="url(#clipPath567)"
         id="path622" />
      <path
         d="m 294.523,69.344 5.243,1.906 -5.243,1.906 c 0.954,-1.109 0.954,-2.699 0,-3.812 z"
         style="fill:#2d2d2d;fill-opacity:1;fill-rule:evenodd;stroke:none"
         transform="matrix(1.02604,0,0,1.02604,1251.9707,74.759078)"
         clip-path="url(#clipPath568)"
         id="path623" />
      <text
         xml:space="preserve"
         transform="matrix(1.02604,0,0,1.02604,1384.0152,105.11446)"
         clip-path="url(#clipPath569)"
         id="text623"><tspan
           style="font-style:italic;font-variant:normal;font-weight:normal;font-size:9px;font-family:'Open Sans';writing-mode:lr-tb;fill:#000000;fill-opacity:1;fill-rule:nonzero;stroke:none"
           x="0"
           y="0"
           id="tspan623">Calibration plane</tspan></text>
      <text
         xml:space="preserve"
         transform="matrix(1.02604,0,0,1.02604,1374.1398,84.337145)"
         clip-path="url(#clipPath570)"
         id="text624"><tspan
           style="font-style:italic;font-variant:normal;font-weight:normal;font-size:10px;font-family:'Open Sans';writing-mode:lr-tb;fill:#000000;fill-opacity:1;fill-rule:nonzero;stroke:none"
           x="0"
           y="0"
           id="tspan624">Measurement plane</tspan></text>
      <path
         d="M 33.918,56.25 H 27.191"
         style="fill:none;stroke:#2d2d2d;stroke-width:1.41732;stroke-linecap:round;stroke-linejoin:round;stroke-miterlimit:4;stroke-dasharray:none;stroke-opacity:1"
         transform="matrix(1.02604,0,0,1.02604,1251.9707,74.759078)"
         clip-path="url(#clipPath571)"
         id="path624" />
      <path
         d="m 32.965,54.344 5.242,1.906 -5.242,1.906 c 0.953,-1.109 0.953,-2.699 0,-3.812 z"
         style="fill:#2d2d2d;fill-opacity:1;fill-rule:evenodd;stroke:none"
         transform="matrix(1.02604,0,0,1.02604,1251.9707,74.759078)"
         clip-path="url(#clipPath572)"
         id="path625" />
      <path
         d="M 30.773,71.25 H 37.5"
         style="fill:none;stroke:#2d2d2d;stroke-width:1.41732;stroke-linecap:round;stroke-linejoin:round;stroke-miterlimit:4;stroke-dasharray:none;stroke-opacity:1"
         transform="matrix(1.02604,0,0,1.02604,1251.9707,74.759078)"
         clip-path="url(#clipPath573)"
         id="path626" />
      <path
         d="m 31.727,73.156 -5.243,-1.906 5.243,-1.906 c -0.954,1.109 -0.954,2.699 0,3.812 z"
         style="fill:#2d2d2d;fill-opacity:1;fill-rule:evenodd;stroke:none"
         transform="matrix(1.02604,0,0,1.02604,1251.9707,74.759078)"
         clip-path="url(#clipPath574)"
         id="path627" />
      <path
         d="m 160.43,58.848 c 0.043,-0.223 0.066,-0.246 0.332,-0.266 h 0.597 c 1.352,0 2.039,0.086 2.039,1.262 0,0.375 -0.043,0.621 -0.089,0.976 0,0.067 -0.043,0.219 -0.043,0.243 0,0.265 0.265,0.265 0.355,0.265 0.266,0 0.309,-0.109 0.356,-0.398 l 0.398,-2.727 c 0,-0.289 -0.199,-0.289 -0.488,-0.289 h -8.578 c -0.332,0 -0.418,0 -0.508,0.289 l -0.91,2.617 c 0,0.02 -0.086,0.219 -0.086,0.266 0,0.242 0.265,0.242 0.332,0.242 0.242,0 0.265,-0.066 0.375,-0.355 0.754,-2.059 1.242,-2.391 3.258,-2.391 0.421,0 0.445,0 0.73,0.02 l -2.016,8.132 c -0.089,0 -0.464,0.067 -1.175,0.067 h -0.598 c -0.266,0 -0.508,0 -0.508,0.398 0,0.266 0.242,0.266 0.332,0.266 0.442,0 0.887,-0.02 1.352,-0.02 0.465,0 0.929,-0.023 1.394,-0.023 0.489,0 0.953,0.023 1.442,0.023 0.441,0 0.91,0.02 1.351,0.02 0.176,0 0.446,0 0.446,-0.418 0,-0.246 -0.247,-0.246 -0.489,-0.246 h -0.578 c -0.332,0 -0.664,0 -1.019,-0.043 z"
         style="fill:#000000;fill-opacity:1;fill-rule:nonzero;stroke:none"
         transform="matrix(1.02604,0,0,1.02604,1251.9707,74.759078)"
         clip-path="url(#clipPath575)"
         id="path628" />
      <g
         clip-path="url(#clipPath577)"
         id="g629">
        <path
           d="m 165.277,62.828 v 0.352 h 0.243 c 0.753,0 0.777,0.113 0.777,0.468 v 5.141 c 0,0.332 -0.024,0.441 -0.777,0.441 h -0.243 v 0.356 h 3.899 c 1.816,0 3.324,-1.461 3.324,-3.324 0,-1.883 -1.484,-3.434 -3.324,-3.434 z m 2.391,6.402 c -0.465,0 -0.488,-0.089 -0.488,-0.375 v -5.273 c 0,-0.312 0.023,-0.402 0.488,-0.402 h 1.219 c 0.843,0 1.574,0.355 2.039,0.933 0.398,0.532 0.554,1.285 0.554,2.149 0,1.152 -0.289,1.75 -0.64,2.148 -0.445,0.512 -1.152,0.82 -1.93,0.82 z"
           style="fill:#000000;fill-opacity:1;fill-rule:nonzero;stroke:none"
           transform="matrix(1.02604,0,0,1.02604,1251.9707,74.759078)"
           clip-path="url(#clipPath576)"
           id="path629" />
      </g>
      <path
         d="m 81.711,64.137 c 0.09,-0.18 0.09,-0.246 0.09,-0.246 0,-0.27 -0.27,-0.27 -0.336,-0.27 -0.223,0 -0.246,0.024 -0.426,0.426 -0.855,1.887 -1.598,2.832 -4.023,2.832 h -1.868 c -0.199,0 -0.246,0 -0.335,-0.024 l 0.988,-4.023 h 0.988 c 0.856,0 1.149,0.137 1.149,0.629 0,0.227 -0.114,0.609 -0.114,0.652 l -0.023,0.137 c 0,0.223 0.179,0.27 0.34,0.27 0.269,0 0.289,-0.09 0.359,-0.36 l 0.785,-3.191 c 0.067,-0.18 0.067,-0.203 0.067,-0.227 0,-0.269 -0.293,-0.269 -0.336,-0.269 -0.27,0 -0.317,0.113 -0.383,0.382 -0.293,1.079 -0.719,1.305 -1.797,1.305 H 75.98 l 0.899,-3.664 c 0.203,-0.023 0.359,-0.023 0.496,-0.023 h 1.887 c 1.551,0 2.179,0.34 2.179,1.707 0,0.273 -0.043,0.586 -0.043,0.812 0,0.27 0.27,0.27 0.336,0.27 0.293,0 0.317,-0.137 0.336,-0.407 l 0.27,-2.562 V 58.07 c 0,-0.269 -0.223,-0.269 -0.469,-0.269 h -7.933 c -0.317,0 -0.317,0.019 -0.383,0.066 -0.114,0.09 -0.137,0.336 -0.137,0.36 0,0.246 0.203,0.246 0.586,0.246 0.293,0 0.586,0.023 0.875,0.023 l -2.02,8.09 c -0.07,0.227 -0.07,0.246 -0.339,0.269 -0.247,0.024 -0.516,0.024 -0.743,0.024 -0.379,0 -0.402,0 -0.468,0.023 -0.184,0.114 -0.184,0.336 -0.184,0.403 0,0.25 0.25,0.25 0.496,0.25 h 8.18 c 0.359,0 0.406,0 0.539,-0.293 z"
         style="fill:#000000;fill-opacity:1;fill-rule:nonzero;stroke:none"
         transform="matrix(1.02604,0,0,1.02604,1251.9707,74.759078)"
         clip-path="url(#clipPath578)"
         id="path630" />
      <g
         clip-path="url(#clipPath580)"
         id="g631">
        <path
           d="M 89.426,67.074 H 89.09 c -0.113,0.965 -0.246,2.27 -2.16,2.27 h -0.989 c -0.468,0 -0.492,-0.09 -0.492,-0.383 V 63.68 c 0,-0.336 0,-0.473 0.942,-0.473 h 0.359 v -0.359 c -0.223,0.023 -1.504,0.043 -1.75,0.043 -0.383,0 -1.531,-0.043 -1.531,-0.043 v 0.359 h 0.25 c 0.761,0 0.785,0.113 0.785,0.473 v 5.215 c 0,0.335 -0.024,0.449 -0.785,0.449 h -0.25 v 0.359 h 5.664 z"
           style="fill:#000000;fill-opacity:1;fill-rule:nonzero;stroke:none"
           transform="matrix(1.02604,0,0,1.02604,1251.9707,74.759078)"
           clip-path="url(#clipPath579)"
           id="path631" />
      </g>
      <path
         d="m 246.609,64.121 c 0.086,-0.172 0.086,-0.238 0.086,-0.238 0,-0.258 -0.261,-0.258 -0.324,-0.258 -0.219,0 -0.238,0.023 -0.41,0.41 -0.824,1.817 -1.535,2.723 -3.867,2.723 h -1.793 c -0.196,0 -0.238,0 -0.324,-0.024 l 0.949,-3.867 h 0.949 c 0.82,0 1.102,0.133 1.102,0.606 0,0.218 -0.106,0.586 -0.106,0.629 l -0.023,0.128 c 0,0.215 0.172,0.258 0.324,0.258 0.258,0 0.281,-0.086 0.348,-0.343 l 0.753,-3.071 c 0.067,-0.172 0.067,-0.191 0.067,-0.215 0,-0.257 -0.281,-0.257 -0.324,-0.257 -0.262,0 -0.305,0.105 -0.368,0.367 -0.281,1.035 -0.691,1.254 -1.73,1.254 h -0.82 l 0.863,-3.524 c 0.195,-0.019 0.348,-0.019 0.477,-0.019 h 1.816 c 1.488,0 2.094,0.32 2.094,1.64 0,0.258 -0.043,0.563 -0.043,0.778 0,0.257 0.258,0.257 0.324,0.257 0.281,0 0.301,-0.128 0.324,-0.386 l 0.258,-2.465 v -0.215 c 0,-0.258 -0.215,-0.258 -0.453,-0.258 h -7.625 c -0.305,0 -0.305,0.02 -0.367,0.063 -0.11,0.086 -0.129,0.324 -0.129,0.347 0,0.239 0.191,0.239 0.558,0.239 0.282,0 0.563,0.019 0.844,0.019 l -1.945,7.778 c -0.063,0.214 -0.063,0.238 -0.324,0.257 -0.235,0.024 -0.497,0.024 -0.711,0.024 -0.368,0 -0.391,0 -0.454,0.023 -0.171,0.106 -0.171,0.321 -0.171,0.387 0,0.238 0.234,0.238 0.472,0.238 h 7.864 c 0.347,0 0.39,0 0.519,-0.281 z"
         style="fill:#000000;fill-opacity:1;fill-rule:nonzero;stroke:none"
         transform="matrix(1.02604,0,0,1.02604,1251.9707,74.759078)"
         clip-path="url(#clipPath581)"
         id="path632" />
      <g
         clip-path="url(#clipPath583)"
         id="g633">
        <path
           d="m 252.598,66.188 c 0.863,-0.196 1.726,-0.778 1.726,-1.555 0,-0.949 -1.273,-1.75 -2.765,-1.75 h -3.239 v 0.344 h 0.239 c 0.734,0 0.754,0.109 0.754,0.457 v 5.011 c 0,0.325 -0.02,0.43 -0.754,0.43 h -0.239 v 0.348 c 0,0 1.035,-0.043 1.426,-0.043 0.41,0 0.949,0.019 1.426,0.043 v -0.348 h -0.219 c -0.754,0 -0.777,-0.105 -0.777,-0.43 v -2.379 h 1.297 c 0.172,0 0.672,0 1.101,0.391 0.324,0.301 0.324,0.539 0.324,1.188 0,0.625 0,1.015 0.454,1.382 0.41,0.344 0.972,0.391 1.253,0.391 0.821,0 1.016,-0.781 1.016,-1.082 0,-0.066 0,-0.172 -0.152,-0.172 -0.149,0 -0.149,0.086 -0.172,0.172 -0.043,0.562 -0.367,0.801 -0.668,0.801 -0.543,0 -0.629,-0.563 -0.734,-1.426 -0.11,-0.781 -0.133,-0.93 -0.411,-1.254 -0.109,-0.109 -0.367,-0.367 -0.886,-0.519 z m -1.168,-0.153 h -1.254 v -2.418 c 0,-0.281 0.023,-0.347 0.262,-0.367 0.085,-0.023 0.41,-0.023 0.625,-0.023 0.906,0 2.226,0 2.226,1.406 0,1.078 -0.82,1.402 -1.859,1.402 z"
           style="fill:#000000;fill-opacity:1;fill-rule:nonzero;stroke:none"
           transform="matrix(1.02604,0,0,1.02604,1251.9707,74.759078)"
           clip-path="url(#clipPath582)"
           id="path633" />
      </g>
      <path
         d="m 28.719,44.43 -1.344,1.359 0.172,0.172 1.172,-1.016 1.14,1.016 0.172,-0.172 z"
         style="fill:#000000;fill-opacity:1;fill-rule:nonzero;stroke:none"
         transform="matrix(1.02604,0,0,1.02604,1251.9707,74.759078)"
         clip-path="url(#clipPath584)"
         id="path634" />
      <path
         d="m 29.797,47.586 c -0.188,-0.375 -0.469,-0.641 -0.922,-0.641 -1.156,0 -2.391,1.469 -2.391,2.922 0,0.938 0.547,1.594 1.313,1.594 0.203,0 0.703,-0.047 1.297,-0.75 0.078,0.422 0.437,0.75 0.906,0.75 0.359,0 0.578,-0.234 0.75,-0.547 0.156,-0.359 0.297,-0.969 0.297,-0.984 0,-0.11 -0.094,-0.11 -0.125,-0.11 -0.094,0 -0.109,0.047 -0.141,0.188 -0.172,0.64 -0.343,1.234 -0.75,1.234 -0.281,0 -0.297,-0.265 -0.297,-0.453 0,-0.219 0.016,-0.312 0.125,-0.75 0.11,-0.406 0.125,-0.516 0.219,-0.891 l 0.36,-1.39 C 30.5,47.477 30.5,47.461 30.5,47.414 c 0,-0.172 -0.109,-0.266 -0.281,-0.266 -0.25,0 -0.391,0.219 -0.422,0.438 z m -0.641,2.578 c -0.062,0.188 -0.062,0.203 -0.203,0.375 -0.437,0.547 -0.844,0.703 -1.125,0.703 -0.5,0 -0.64,-0.547 -0.64,-0.937 0,-0.5 0.312,-1.719 0.546,-2.188 0.313,-0.578 0.75,-0.953 1.157,-0.953 0.64,0 0.781,0.813 0.781,0.875 0,0.063 -0.016,0.125 -0.031,0.172 z"
         style="fill:#000000;fill-opacity:1;fill-rule:nonzero;stroke:none"
         transform="matrix(1.02604,0,0,1.02604,1251.9707,74.759078)"
         clip-path="url(#clipPath585)"
         id="path635" />
      <g
         clip-path="url(#clipPath587)"
         id="g636">
        <path
           d="m 33.672,48.406 c 0,-0.187 0,-0.187 -0.203,-0.187 -0.453,0.437 -1.078,0.437 -1.36,0.437 v 0.25 c 0.157,0 0.625,0 1,-0.187 v 3.547 c 0,0.234 0,0.328 -0.687,0.328 h -0.266 v 0.25 c 0.125,0 0.985,-0.031 1.235,-0.031 0.218,0 1.093,0.031 1.25,0.031 v -0.25 h -0.266 c -0.703,0 -0.703,-0.094 -0.703,-0.328 z"
           style="fill:#000000;fill-opacity:1;fill-rule:nonzero;stroke:none"
           transform="matrix(1.02604,0,0,1.02604,1251.9707,74.759078)"
           clip-path="url(#clipPath586)"
           id="path636" />
      </g>
      <path
         d="m 32.781,73.156 -1.343,1.36 0.171,0.172 1.172,-1.016 1.141,1.016 0.172,-0.172 z"
         style="fill:#000000;fill-opacity:1;fill-rule:nonzero;stroke:none"
         transform="matrix(1.02604,0,0,1.02604,1251.9707,74.759078)"
         clip-path="url(#clipPath588)"
         id="path637" />
      <path
         d="m 33.012,75.895 c 0,0 0,-0.11 -0.125,-0.11 -0.219,0 -0.953,0.078 -1.219,0.11 -0.078,0 -0.188,0.015 -0.188,0.187 0,0.125 0.094,0.125 0.25,0.125 0.469,0 0.485,0.063 0.485,0.172 0,0.062 -0.078,0.406 -0.125,0.609 l -0.828,3.25 c -0.11,0.5 -0.157,0.672 -0.157,1.016 0,0.937 0.532,1.562 1.266,1.562 1.172,0 2.406,-1.484 2.406,-2.921 0,-0.907 -0.531,-1.594 -1.328,-1.594 -0.453,0 -0.875,0.297 -1.172,0.594 z M 32.09,79.66 c 0.047,-0.219 0.047,-0.234 0.14,-0.344 0.485,-0.64 0.938,-0.796 1.204,-0.796 0.359,0 0.625,0.296 0.625,0.937 0,0.594 -0.329,1.734 -0.516,2.109 -0.328,0.672 -0.781,1.032 -1.172,1.032 -0.344,0 -0.672,-0.266 -0.672,-1 0,-0.203 0,-0.391 0.156,-1.016 z"
         style="fill:#000000;fill-opacity:1;fill-rule:nonzero;stroke:none"
         transform="matrix(1.02604,0,0,1.02604,1251.9707,74.759078)"
         clip-path="url(#clipPath589)"
         id="path638" />
      <g
         clip-path="url(#clipPath591)"
         id="g639">
        <path
           d="m 37.238,79.766 c 0,-0.188 0,-0.188 -0.203,-0.188 -0.453,0.438 -1.078,0.438 -1.359,0.438 v 0.25 c 0.156,0 0.625,0 1,-0.188 v 3.547 c 0,0.234 0,0.328 -0.688,0.328 h -0.265 v 0.25 c 0.125,0 0.984,-0.031 1.234,-0.031 0.219,0 1.094,0.031 1.25,0.031 v -0.25 h -0.266 c -0.703,0 -0.703,-0.094 -0.703,-0.328 z"
           style="fill:#000000;fill-opacity:1;fill-rule:nonzero;stroke:none"
           transform="matrix(1.02604,0,0,1.02604,1251.9707,74.759078)"
           clip-path="url(#clipPath590)"
           id="path639" />
      </g>
      <path
         d="m 289.719,73.156 -1.344,1.36 0.172,0.172 1.172,-1.016 1.14,1.016 0.172,-0.172 z"
         style="fill:#000000;fill-opacity:1;fill-rule:nonzero;stroke:none"
         transform="matrix(1.02604,0,0,1.02604,1251.9707,74.759078)"
         clip-path="url(#clipPath592)"
         id="path640" />
      <path
         d="m 289.949,75.895 c 0,0 0,-0.11 -0.125,-0.11 -0.219,0 -0.953,0.078 -1.219,0.11 -0.078,0 -0.187,0.015 -0.187,0.187 0,0.125 0.094,0.125 0.25,0.125 0.469,0 0.484,0.063 0.484,0.172 0,0.062 -0.078,0.406 -0.125,0.609 l -0.828,3.25 c -0.109,0.5 -0.156,0.672 -0.156,1.016 0,0.937 0.531,1.562 1.266,1.562 1.171,0 2.406,-1.484 2.406,-2.921 0,-0.907 -0.531,-1.594 -1.328,-1.594 -0.453,0 -0.875,0.297 -1.172,0.594 z m -0.922,3.765 c 0.047,-0.219 0.047,-0.234 0.141,-0.344 0.484,-0.64 0.937,-0.796 1.203,-0.796 0.359,0 0.625,0.296 0.625,0.937 0,0.594 -0.328,1.734 -0.516,2.109 -0.328,0.672 -0.781,1.032 -1.171,1.032 -0.344,0 -0.672,-0.266 -0.672,-1 0,-0.203 0,-0.391 0.156,-1.016 z"
         style="fill:#000000;fill-opacity:1;fill-rule:nonzero;stroke:none"
         transform="matrix(1.02604,0,0,1.02604,1251.9707,74.759078)"
         clip-path="url(#clipPath593)"
         id="path641" />
      <g
         clip-path="url(#clipPath595)"
         id="g642">
        <path
           d="m 295.363,82.938 h -0.234 c -0.016,0.156 -0.094,0.562 -0.188,0.625 -0.046,0.046 -0.578,0.046 -0.687,0.046 h -1.281 c 0.734,-0.64 0.984,-0.843 1.39,-1.171 0.516,-0.407 1,-0.844 1,-1.5 0,-0.844 -0.734,-1.36 -1.625,-1.36 -0.859,0 -1.453,0.61 -1.453,1.25 0,0.344 0.297,0.391 0.375,0.391 0.156,0 0.36,-0.125 0.36,-0.375 0,-0.125 -0.047,-0.375 -0.407,-0.375 0.219,-0.485 0.688,-0.641 1.016,-0.641 0.703,0 1.062,0.547 1.062,1.11 0,0.609 -0.437,1.078 -0.656,1.328 l -1.672,1.672 c -0.078,0.062 -0.078,0.078 -0.078,0.265 h 2.875 z"
           style="fill:#000000;fill-opacity:1;fill-rule:nonzero;stroke:none"
           transform="matrix(1.02604,0,0,1.02604,1251.9707,74.759078)"
           clip-path="url(#clipPath594)"
           id="path642" />
      </g>
      <path
         d="m 293.629,44.43 -1.344,1.359 0.172,0.172 1.172,-1.016 1.141,1.016 0.171,-0.172 z"
         style="fill:#000000;fill-opacity:1;fill-rule:nonzero;stroke:none"
         transform="matrix(1.02604,0,0,1.02604,1251.9707,74.759078)"
         clip-path="url(#clipPath596)"
         id="path643" />
      <path
         d="m 294.703,47.586 c -0.187,-0.375 -0.469,-0.641 -0.922,-0.641 -1.156,0 -2.39,1.469 -2.39,2.922 0,0.938 0.547,1.594 1.312,1.594 0.203,0 0.703,-0.047 1.297,-0.75 0.078,0.422 0.438,0.75 0.906,0.75 0.36,0 0.578,-0.234 0.75,-0.547 0.157,-0.359 0.297,-0.969 0.297,-0.984 0,-0.11 -0.094,-0.11 -0.125,-0.11 -0.094,0 -0.109,0.047 -0.14,0.188 -0.172,0.64 -0.344,1.234 -0.75,1.234 -0.282,0 -0.297,-0.265 -0.297,-0.453 0,-0.219 0.015,-0.312 0.125,-0.75 0.109,-0.406 0.125,-0.516 0.218,-0.891 l 0.36,-1.39 c 0.062,-0.281 0.062,-0.297 0.062,-0.344 0,-0.172 -0.109,-0.266 -0.281,-0.266 -0.25,0 -0.391,0.219 -0.422,0.438 z m -0.64,2.578 c -0.063,0.188 -0.063,0.203 -0.204,0.375 -0.437,0.547 -0.843,0.703 -1.125,0.703 -0.5,0 -0.64,-0.547 -0.64,-0.937 0,-0.5 0.312,-1.719 0.547,-2.188 0.312,-0.578 0.75,-0.953 1.156,-0.953 0.641,0 0.781,0.813 0.781,0.875 0,0.063 -0.015,0.125 -0.031,0.172 z"
         style="fill:#000000;fill-opacity:1;fill-rule:nonzero;stroke:none"
         transform="matrix(1.02604,0,0,1.02604,1251.9707,74.759078)"
         clip-path="url(#clipPath597)"
         id="path644" />
      <g
         clip-path="url(#clipPath599)"
         id="g645">
        <path
           d="m 299.766,51.578 h -0.235 c -0.015,0.156 -0.093,0.563 -0.187,0.625 -0.047,0.047 -0.578,0.047 -0.688,0.047 h -1.281 c 0.734,-0.641 0.984,-0.844 1.391,-1.172 0.515,-0.406 1,-0.844 1,-1.5 0,-0.844 -0.735,-1.359 -1.625,-1.359 -0.86,0 -1.453,0.609 -1.453,1.25 0,0.344 0.296,0.39 0.375,0.39 0.156,0 0.359,-0.125 0.359,-0.375 0,-0.125 -0.047,-0.375 -0.406,-0.375 0.218,-0.484 0.687,-0.64 1.015,-0.64 0.703,0 1.063,0.547 1.063,1.109 0,0.61 -0.438,1.078 -0.656,1.328 l -1.672,1.672 c -0.078,0.063 -0.078,0.078 -0.078,0.266 h 2.875 z"
           style="fill:#000000;fill-opacity:1;fill-rule:nonzero;stroke:none"
           transform="matrix(1.02604,0,0,1.02604,1251.9707,74.759078)"
           clip-path="url(#clipPath598)"
           id="path645" />
      </g>
    </g>
  </g>
</svg>
