<?xml version="1.0" encoding="UTF-8" standalone="no"?>
<!-- Created with Inkscape (http://www.inkscape.org/) -->

<svg
   version="1.1"
   id="svg1"
   width="265.62668"
   height="133.34666"
   viewBox="0 0 265.62668 133.34666"
   sodipodi:docname="single-array-1d.svg"
   inkscape:version="1.4 (e7c3feb100, 2024-10-09)"
   xmlns:inkscape="http://www.inkscape.org/namespaces/inkscape"
   xmlns:sodipodi="http://sodipodi.sourceforge.net/DTD/sodipodi-0.dtd"
   xmlns="http://www.w3.org/2000/svg"
   xmlns:svg="http://www.w3.org/2000/svg">
  <defs
     id="defs1" />
  <sodipodi:namedview
     id="namedview1"
     pagecolor="#ffffff"
     bordercolor="#666666"
     borderopacity="1.0"
     inkscape:showpageshadow="2"
     inkscape:pageopacity="0.0"
     inkscape:pagecheckerboard="0"
     inkscape:deskcolor="#d1d1d1"
     inkscape:zoom="4.3745606"
     inkscape:cx="132.81334"
     inkscape:cy="66.635264"
     inkscape:window-width="1920"
     inkscape:window-height="1025"
     inkscape:window-x="0"
     inkscape:window-y="724"
     inkscape:window-maximized="1"
     inkscape:current-layer="g1">
    <inkscape:page
       x="0"
       y="0"
       inkscape:label="1"
       id="page1"
       width="265.62668"
       height="133.34666"
       margin="0"
       bleed="0" />
  </sodipodi:namedview>
  <g
     id="g1"
     inkscape:groupmode="layer"
     inkscape:label="1">
    <path
       id="path1"
       d="M 0,42.5202 V 70.867 H 28.3468 V 42.5202 Z"
       style="fill:none;stroke:#000000;stroke-width:0.79701;stroke-linecap:butt;stroke-linejoin:miter;stroke-miterlimit:10;stroke-dasharray:none;stroke-opacity:1"
       transform="matrix(1.3333333,0,0,-1.3333333,19.429333,113.91733)" />
    <g
       id="g2"
       aria-label="E&#10;z0"
       transform="matrix(1.3333333,0,0,1.3333333,27.716,41.868)">
      <path
         id="path2"
         d="m 7.0538203,-2.3209219 c 0.023437,-0.046875 0.046875,-0.1171875 0.046875,-0.140625 0,-0.011719 0,-0.1054687 -0.1171875,-0.1054687 -0.09375,0 -0.1054687,0.058594 -0.1289062,0.1171875 -0.6445313,1.47656247 -1.0195313,2.14453122 -2.71875,2.14453122 h -1.453125 c -0.140625,0 -0.1640625,0 -0.2226563,-0.0117188 -0.1054687,-0.0117188 -0.1289062,-0.0234375 -0.1289062,-0.10546875 0,-0.0234375 0,-0.046875 0.046875,-0.22265625 L 3.0577266,-3.3638906 h 0.984375 c 0.84375,0 0.84375,0.2109375 0.84375,0.4570312 0,0.070312 0,0.1875 -0.070312,0.4804688 -0.011719,0.058594 -0.023437,0.082031 -0.023437,0.1171875 0,0.046875 0.035156,0.1054687 0.1289062,0.1054687 0.082031,0 0.1054688,-0.046875 0.1523438,-0.1992187 l 0.5625,-2.3320313 c 0,-0.058594 -0.046875,-0.1054687 -0.1171875,-0.1054687 -0.09375,0 -0.1054688,0.058594 -0.140625,0.1757812 -0.2109375,0.7617188 -0.3867188,0.984375 -1.3007813,0.984375 h -0.9375 l 0.5976563,-2.4023437 c 0.082031,-0.3398438 0.09375,-0.3867188 0.5390625,-0.3867188 h 1.40625 c 1.2070312,0 1.5117187,0.2929688 1.5117187,1.1132813 0,0.234375 0,0.2578125 -0.046875,0.5273437 0,0.058594 -0.011719,0.1289063 -0.011719,0.1757813 0,0.046875 0.035156,0.1171875 0.1289062,0.1171875 0.1054688,0 0.1171875,-0.058594 0.140625,-0.2460938 L 7.6046016,-6.5045156 C 7.6280391,-6.7740469 7.5811641,-6.7740469 7.3350703,-6.7740469 H 2.2960078 c -0.1992187,0 -0.2929687,0 -0.2929687,0.1992188 0,0.1054687 0.09375,0.1054687 0.28125,0.1054687 0.3632812,0 0.6445312,0 0.6445312,0.1875 0,0.035156 0,0.058594 -0.046875,0.234375 l -1.3242187,5.27343752 c -0.09375,0.38671875 -0.1171875,0.46875 -0.90234379,0.46875 -0.1640625,0 -0.28125,0 -0.28125,0.1875 0,0.117187505 0.09375,0.117187505 0.28125,0.117187505 H 5.8233516 c 0.234375,0 0.2460937,-0.011718755 0.3164062,-0.164062505 z m 0,0"
         style="fill:#000000;fill-opacity:1;fill-rule:nonzero;stroke:none" />
      <path
         id="path3"
         d="m 8.5245234,0.88415625 c 0.1757813,-0.1875 0.3046875,-0.31640625 0.9023438,-0.796875 0.140625,-0.1171875 0.6679688,-0.52734375 0.8671878,-0.7265625 0.421875,-0.42187505 0.691406,-0.77343755 0.691406,-0.85546875 0,-0.082031 -0.09375,-0.082031 -0.117188,-0.082031 -0.05859,0 -0.08203,0.011719 -0.117187,0.070312 -0.222656,0.3164063 -0.363281,0.421875 -0.527344,0.421875 -0.09375,0 -0.199219,-0.011719 -0.3984373,-0.2109375 -0.2460938,-0.234375 -0.3984375,-0.28125 -0.5507813,-0.28125 -0.5625,0 -0.9375,0.5976563 -0.9375,0.8085938 0,0.0703125 0.070312,0.0820313 0.1171875,0.0820313 0.082031,0 0.09375,-0.0117188 0.1289063,-0.09375 0.1054687,-0.2460936 0.4921875,-0.2578124 0.5976562,-0.2578124 0.1640625,0 0.3515625,0.046875 0.4453125,0.0585938 0.3867191,0.09375 0.4335941,0.09375 0.6093751,0.09375 -0.1875,0.1875 -0.3046876,0.3046875 -0.9726563,0.84375 C 8.7237422,0.38025 8.5362422,0.55603125 8.3956172,0.69665625 7.9854609,1.1068125 7.7745234,1.4115 7.7745234,1.4818125 c 0,0.082031 0.09375,0.082031 0.1171875,0.082031 0.070312,0 0.09375,-0.011719 0.1289063,-0.070312 0.1875,-0.2695312 0.3984375,-0.421875 0.6328125,-0.421875 0.082031,0 0.1875,0 0.375,0.1757813 0.2226562,0.2109375 0.3632812,0.3164062 0.5859375,0.3164062 0.7382808,0 1.2070308,-0.84374995 1.2070308,-1.07812495 0,-0.0820313 -0.07031,-0.09375 -0.117187,-0.09375 -0.08203,0 -0.09375,0.0351563 -0.128906,0.1171875 C 10.446398,0.849 10.036242,1.0247812 9.6963984,1.0247812 9.5323359,1.0247812 9.3565547,0.989625 9.1807734,0.94275 8.8643672,0.8724375 8.8057734,0.8724375 8.6885859,0.8724375 c -0.023437,0 -0.1171875,0 -0.1640625,0.0117188 z m 0,0"
         style="fill:#000000;fill-opacity:1;fill-rule:nonzero;stroke:none" />
      <path
         id="path4"
         d="m 15.043078,-0.73303125 c 0,-0.76171875 -0.09375,-1.31250005 -0.410156,-1.80468755 -0.222656,-0.3164062 -0.644531,-0.5976562 -1.207031,-0.5976562 -1.617188,0 -1.617188,1.8984375 -1.617188,2.40234375 0,0.50390625 0,2.36718745 1.617188,2.36718745 1.617187,0 1.617187,-1.8632812 1.617187,-2.36718745 z M 13.425891,1.4349375 c -0.316407,0 -0.75,-0.1875 -0.890625,-0.76171875 -0.09375,-0.41015625 -0.09375,-0.984375 -0.09375,-1.5 0,-0.50390625 0,-1.03125005 0.105468,-1.41796875 0.152344,-0.5507813 0.597657,-0.6914063 0.878907,-0.6914063 0.375,0 0.738281,0.2226563 0.867187,0.6328125 0.105469,0.375 0.117188,0.8789063 0.117188,1.47656255 0,0.515625 0,1.04296875 -0.09375,1.4765625 C 14.175891,1.2825937 13.707141,1.4349375 13.425891,1.4349375 Z m 0,0"
         style="fill:#000000;fill-opacity:1;fill-rule:nonzero;stroke:none" />
    </g>
    <path
       id="path5"
       d="M 28.3468,42.5202 V 70.867 H 56.69362 V 42.5202 Z"
       style="fill:none;stroke:#000000;stroke-width:0.79701;stroke-linecap:butt;stroke-linejoin:miter;stroke-miterlimit:10;stroke-dasharray:none;stroke-opacity:1"
       transform="matrix(1.3333333,0,0,-1.3333333,19.429333,113.91733)" />
    <g
       id="g5"
       aria-label="E&#10;z1"
       transform="matrix(1.3333333,0,0,1.3333333,65.512,41.868)">
      <path
         id="path6"
         d="m 7.0544766,-2.3209219 c 0.023437,-0.046875 0.046875,-0.1171875 0.046875,-0.140625 0,-0.011719 0,-0.1054687 -0.1171875,-0.1054687 -0.09375,0 -0.1054688,0.058594 -0.1289063,0.1171875 -0.6445312,1.47656247 -1.0195312,2.14453122 -2.71875,2.14453122 h -1.453125 c -0.140625,0 -0.1640625,0 -0.2226562,-0.0117188 -0.1054688,-0.0117188 -0.1289063,-0.0234375 -0.1289063,-0.10546875 0,-0.0234375 0,-0.046875 0.046875,-0.22265625 L 3.0583828,-3.3638906 h 0.984375 c 0.84375,0 0.84375,0.2109375 0.84375,0.4570312 0,0.070312 0,0.1875 -0.070312,0.4804688 -0.011719,0.058594 -0.023437,0.082031 -0.023437,0.1171875 0,0.046875 0.035156,0.1054687 0.1289063,0.1054687 0.082031,0 0.1054687,-0.046875 0.1523437,-0.1992187 l 0.5625,-2.3320313 c 0,-0.058594 -0.046875,-0.1054687 -0.1171875,-0.1054687 -0.09375,0 -0.1054687,0.058594 -0.140625,0.1757812 -0.2109375,0.7617188 -0.3867187,0.984375 -1.3007812,0.984375 h -0.9375 l 0.5976562,-2.4023437 c 0.082031,-0.3398438 0.09375,-0.3867188 0.5390625,-0.3867188 h 1.40625 c 1.2070313,0 1.5117188,0.2929688 1.5117188,1.1132813 0,0.234375 0,0.2578125 -0.046875,0.5273437 0,0.058594 -0.011719,0.1289063 -0.011719,0.1757813 0,0.046875 0.035156,0.1171875 0.1289063,0.1171875 0.1054687,0 0.1171875,-0.058594 0.140625,-0.2460938 L 7.6052578,-6.5045156 C 7.6286953,-6.7740469 7.5818203,-6.7740469 7.3357266,-6.7740469 H 2.2966641 c -0.1992188,0 -0.2929688,0 -0.2929688,0.1992188 0,0.1054687 0.09375,0.1054687 0.28125,0.1054687 0.3632813,0 0.6445313,0 0.6445313,0.1875 0,0.035156 0,0.058594 -0.046875,0.234375 l -1.3242188,5.27343752 c -0.09375,0.38671875 -0.1171875,0.46875 -0.90234374,0.46875 -0.1640625,0 -0.28125,0 -0.28125,0.1875 0,0.117187505 0.09375,0.117187505 0.28125,0.117187505 H 5.8240078 c 0.234375,0 0.2460938,-0.011718755 0.3164063,-0.164062505 z m 0,0"
         style="fill:#000000;fill-opacity:1;fill-rule:nonzero;stroke:none" />
      <path
         id="path7"
         d="m 8.5251797,0.88415625 c 0.1757812,-0.1875 0.3046875,-0.31640625 0.9023437,-0.796875 0.140625,-0.1171875 0.6679686,-0.52734375 0.8671876,-0.7265625 0.421875,-0.42187505 0.691406,-0.77343755 0.691406,-0.85546875 0,-0.082031 -0.09375,-0.082031 -0.117187,-0.082031 -0.05859,0 -0.08203,0.011719 -0.117188,0.070312 -0.222656,0.3164063 -0.363281,0.421875 -0.527344,0.421875 -0.09375,0 -0.199218,-0.011719 -0.3984371,-0.2109375 -0.2460937,-0.234375 -0.3984375,-0.28125 -0.5507812,-0.28125 -0.5625,0 -0.9375,0.5976563 -0.9375,0.8085938 0,0.0703125 0.070312,0.0820313 0.1171875,0.0820313 0.082031,0 0.09375,-0.0117188 0.1289062,-0.09375 0.1054688,-0.2460936 0.4921875,-0.2578124 0.5976563,-0.2578124 0.1640625,0 0.3515625,0.046875 0.4453125,0.0585938 0.3867188,0.09375 0.4335938,0.09375 0.6093748,0.09375 -0.1875,0.1875 -0.3046873,0.3046875 -0.9726561,0.84375 C 8.7243984,0.38025 8.5368984,0.55603125 8.3962734,0.69665625 7.9861172,1.1068125 7.7751797,1.4115 7.7751797,1.4818125 c 0,0.082031 0.09375,0.082031 0.1171875,0.082031 0.070312,0 0.09375,-0.011719 0.1289062,-0.070312 0.1875,-0.2695312 0.3984375,-0.421875 0.6328125,-0.421875 0.082031,0 0.1875,0 0.375,0.1757813 0.2226563,0.2109375 0.3632813,0.3164062 0.5859375,0.3164062 0.7382816,0 1.2070316,-0.84374995 1.2070316,-1.07812495 0,-0.0820313 -0.07031,-0.09375 -0.117188,-0.09375 -0.08203,0 -0.09375,0.0351563 -0.128906,0.1171875 C 10.447055,0.849 10.036898,1.0247812 9.6970547,1.0247812 9.5329922,1.0247812 9.3572109,0.989625 9.1814297,0.94275 8.8650234,0.8724375 8.8064297,0.8724375 8.6892422,0.8724375 c -0.023437,0 -0.1171875,0 -0.1640625,0.0117188 z m 0,0"
         style="fill:#000000;fill-opacity:1;fill-rule:nonzero;stroke:none" />
      <path
         id="path8"
         d="m 13.778109,-2.9361563 c 0,-0.1875 -0.01172,-0.1992187 -0.210937,-0.1992187 -0.445313,0.4335937 -1.078125,0.4453125 -1.359375,0.4453125 v 0.2460937 c 0.164062,0 0.621094,0 1.007812,-0.1875 v 3.5507813 c 0,0.234375 0,0.328125 -0.691406,0.328125 h -0.269531 v 0.2460937 c 0.128906,-0.011719 0.984375,-0.023437 1.242187,-0.023437 0.210938,0 1.089844,0.011719 1.242188,0.023437 V 1.2474375 h -0.257813 c -0.703125,0 -0.703125,-0.09375 -0.703125,-0.328125 z m 0,0"
         style="fill:#000000;fill-opacity:1;fill-rule:nonzero;stroke:none" />
    </g>
    <path
       id="path9"
       d="M 56.69362,42.5202 V 70.867 h 28.3468 V 42.5202 Z"
       style="fill:none;stroke:#000000;stroke-width:0.79701;stroke-linecap:butt;stroke-linejoin:miter;stroke-miterlimit:10;stroke-dasharray:none;stroke-opacity:1"
       transform="matrix(1.3333333,0,0,-1.3333333,19.429333,113.91733)" />
    <g
       id="g9"
       aria-label="E&#10;z2"
       transform="matrix(1.3333333,0,0,1.3333333,103.308,41.868)">
      <path
         id="path10"
         d="m 7.0551328,-2.3209219 c 0.023437,-0.046875 0.046875,-0.1171875 0.046875,-0.140625 0,-0.011719 0,-0.1054687 -0.1171875,-0.1054687 -0.09375,0 -0.1054687,0.058594 -0.1289062,0.1171875 -0.6445313,1.47656247 -1.0195313,2.14453122 -2.71875,2.14453122 h -1.453125 c -0.140625,0 -0.1640625,0 -0.2226563,-0.0117188 -0.1054687,-0.0117188 -0.1289062,-0.0234375 -0.1289062,-0.10546875 0,-0.0234375 0,-0.046875 0.046875,-0.22265625 L 3.0590391,-3.3638906 h 0.984375 c 0.84375,0 0.84375,0.2109375 0.84375,0.4570312 0,0.070312 0,0.1875 -0.070312,0.4804688 -0.011719,0.058594 -0.023437,0.082031 -0.023437,0.1171875 0,0.046875 0.035156,0.1054687 0.1289062,0.1054687 0.082031,0 0.1054688,-0.046875 0.1523438,-0.1992187 l 0.5625,-2.3320313 c 0,-0.058594 -0.046875,-0.1054687 -0.1171875,-0.1054687 -0.09375,0 -0.1054688,0.058594 -0.140625,0.1757812 -0.2109375,0.7617188 -0.3867188,0.984375 -1.3007813,0.984375 h -0.9375 l 0.5976563,-2.4023437 c 0.082031,-0.3398438 0.09375,-0.3867188 0.5390625,-0.3867188 h 1.40625 c 1.2070312,0 1.5117187,0.2929688 1.5117187,1.1132813 0,0.234375 0,0.2578125 -0.046875,0.5273437 0,0.058594 -0.011719,0.1289063 -0.011719,0.1757813 0,0.046875 0.035156,0.1171875 0.1289062,0.1171875 0.1054688,0 0.1171875,-0.058594 0.140625,-0.2460938 L 7.6059141,-6.5045156 C 7.6293516,-6.7740469 7.5824766,-6.7740469 7.3363828,-6.7740469 H 2.2973203 c -0.1992187,0 -0.2929687,0 -0.2929687,0.1992188 0,0.1054687 0.09375,0.1054687 0.28125,0.1054687 0.3632812,0 0.6445312,0 0.6445312,0.1875 0,0.035156 0,0.058594 -0.046875,0.234375 l -1.3242187,5.27343752 c -0.09375,0.38671875 -0.1171875,0.46875 -0.90234379,0.46875 -0.1640625,0 -0.28125,0 -0.28125,0.1875 0,0.117187505 0.09375,0.117187505 0.28125,0.117187505 H 5.8246641 c 0.234375,0 0.2460937,-0.011718755 0.3164062,-0.164062505 z m 0,0"
         style="fill:#000000;fill-opacity:1;fill-rule:nonzero;stroke:none" />
      <path
         id="path11"
         d="m 8.5258359,0.88415625 c 0.1757813,-0.1875 0.3046875,-0.31640625 0.9023438,-0.796875 0.140625,-0.1171875 0.6679683,-0.52734375 0.8671873,-0.7265625 0.421875,-0.42187505 0.691406,-0.77343755 0.691406,-0.85546875 0,-0.082031 -0.09375,-0.082031 -0.117187,-0.082031 -0.05859,0 -0.08203,0.011719 -0.117188,0.070312 -0.222656,0.3164063 -0.363281,0.421875 -0.527343,0.421875 -0.09375,0 -0.199219,-0.011719 -0.3984378,-0.2109375 -0.2460938,-0.234375 -0.3984375,-0.28125 -0.5507813,-0.28125 -0.5625,0 -0.9375,0.5976563 -0.9375,0.8085938 0,0.0703125 0.070312,0.0820313 0.1171875,0.0820313 0.082031,0 0.09375,-0.0117188 0.1289063,-0.09375 0.1054687,-0.2460936 0.4921875,-0.2578124 0.5976562,-0.2578124 0.1640625,0 0.3515625,0.046875 0.4453125,0.0585938 0.3867186,0.09375 0.4335936,0.09375 0.6093746,0.09375 -0.1875,0.1875 -0.3046871,0.3046875 -0.9726558,0.84375 C 8.7250547,0.38025 8.5375547,0.55603125 8.3969297,0.69665625 7.9867734,1.1068125 7.7758359,1.4115 7.7758359,1.4818125 c 0,0.082031 0.09375,0.082031 0.1171875,0.082031 0.070312,0 0.09375,-0.011719 0.1289063,-0.070312 0.1875,-0.2695312 0.3984375,-0.421875 0.6328125,-0.421875 0.082031,0 0.1875,0 0.375,0.1757813 0.2226562,0.2109375 0.3632812,0.3164062 0.5859375,0.3164062 0.7382813,0 1.2070313,-0.84374995 1.2070313,-1.07812495 0,-0.0820313 -0.07031,-0.09375 -0.117188,-0.09375 -0.08203,0 -0.09375,0.0351563 -0.128906,0.1171875 C 10.447711,0.849 10.037555,1.0247812 9.6977109,1.0247812 9.5336484,1.0247812 9.3578672,0.989625 9.1820859,0.94275 8.8656797,0.8724375 8.8070859,0.8724375 8.6898984,0.8724375 c -0.023437,0 -0.1171875,0 -0.1640625,0.0117188 z m 0,0"
         style="fill:#000000;fill-opacity:1;fill-rule:nonzero;stroke:none" />
      <path
         id="path12"
         d="m 14.962359,0.22790625 h -0.234375 c -0.02344,0.15234375 -0.08203,0.5625 -0.175781,0.6328125 -0.05859,0.0351563 -0.597656,0.0351563 -0.691406,0.0351563 h -1.289063 c 0.738282,-0.64453125 0.984375,-0.84375 1.394532,-1.171875 0.515625,-0.41015625 0.996093,-0.84375005 0.996093,-1.49999995 0,-0.8437501 -0.738281,-1.3593751 -1.628906,-1.3593751 -0.867187,0 -1.453125,0.609375 -1.453125,1.2421876 0,0.3632812 0.304688,0.3984375 0.375,0.3984375 0.164063,0 0.375,-0.1171875 0.375,-0.375 0,-0.1289064 -0.05859,-0.3632814 -0.421875,-0.3632814 0.222656,-0.5039062 0.691406,-0.65625 1.019531,-0.65625 0.703125,0 1.066407,0.5507813 1.066407,1.1132813 0,0.609375 -0.433594,1.0898438 -0.65625,1.33593755 L 11.950641,1.224 c -0.07031,0.058594 -0.07031,0.070312 -0.07031,0.2695312 h 2.882813 z m 0,0"
         style="fill:#000000;fill-opacity:1;fill-rule:nonzero;stroke:none" />
    </g>
    <path
       id="path13"
       d="M 85.04042,42.5202 V 70.867 h 28.34682 V 42.5202 Z"
       style="fill:none;stroke:#000000;stroke-width:0.79701;stroke-linecap:butt;stroke-linejoin:miter;stroke-miterlimit:10;stroke-dasharray:none;stroke-opacity:1"
       transform="matrix(1.3333333,0,0,-1.3333333,19.429333,113.91733)" />
    <g
       id="g13"
       aria-label="E&#10;z3"
       transform="matrix(1.3333333,0,0,1.3333333,141.104,41.868)">
      <path
         id="path14"
         d="m 7.0557891,-2.3209219 c 0.023437,-0.046875 0.046875,-0.1171875 0.046875,-0.140625 0,-0.011719 0,-0.1054687 -0.1171875,-0.1054687 -0.09375,0 -0.1054688,0.058594 -0.1289063,0.1171875 -0.6445312,1.47656247 -1.0195312,2.14453122 -2.71875,2.14453122 h -1.453125 c -0.140625,0 -0.1640625,0 -0.2226562,-0.0117188 -0.1054688,-0.0117188 -0.1289063,-0.0234375 -0.1289063,-0.10546875 0,-0.0234375 0,-0.046875 0.046875,-0.22265625 L 3.0596953,-3.3638906 h 0.984375 c 0.84375,0 0.84375,0.2109375 0.84375,0.4570312 0,0.070312 0,0.1875 -0.070312,0.4804688 -0.011719,0.058594 -0.023437,0.082031 -0.023437,0.1171875 0,0.046875 0.035156,0.1054687 0.1289063,0.1054687 0.082031,0 0.1054687,-0.046875 0.1523437,-0.1992187 l 0.5625,-2.3320313 c 0,-0.058594 -0.046875,-0.1054687 -0.1171875,-0.1054687 -0.09375,0 -0.1054687,0.058594 -0.140625,0.1757812 -0.2109375,0.7617188 -0.3867187,0.984375 -1.3007812,0.984375 h -0.9375 l 0.5976562,-2.4023437 c 0.082031,-0.3398438 0.09375,-0.3867188 0.5390625,-0.3867188 h 1.40625 c 1.2070313,0 1.5117188,0.2929688 1.5117188,1.1132813 0,0.234375 0,0.2578125 -0.046875,0.5273437 0,0.058594 -0.011719,0.1289063 -0.011719,0.1757813 0,0.046875 0.035156,0.1171875 0.1289063,0.1171875 0.1054687,0 0.1171875,-0.058594 0.140625,-0.2460938 L 7.6065703,-6.5045156 C 7.6300078,-6.7740469 7.5831328,-6.7740469 7.3370391,-6.7740469 H 2.2979766 c -0.1992188,0 -0.2929688,0 -0.2929688,0.1992188 0,0.1054687 0.09375,0.1054687 0.28125,0.1054687 0.3632813,0 0.6445313,0 0.6445313,0.1875 0,0.035156 0,0.058594 -0.046875,0.234375 l -1.3242188,5.27343752 c -0.09375,0.38671875 -0.1171875,0.46875 -0.90234374,0.46875 -0.1640625,0 -0.28125,0 -0.28125,0.1875 0,0.117187505 0.09375,0.117187505 0.28125,0.117187505 H 5.8253203 c 0.234375,0 0.2460938,-0.011718755 0.3164063,-0.164062505 z m 0,0"
         style="fill:#000000;fill-opacity:1;fill-rule:nonzero;stroke:none" />
      <path
         id="path15"
         d="m 8.5264922,0.88415625 c 0.1757812,-0.1875 0.3046875,-0.31640625 0.9023437,-0.796875 0.140625,-0.1171875 0.6679691,-0.52734375 0.8671871,-0.7265625 0.421875,-0.42187505 0.691407,-0.77343755 0.691407,-0.85546875 0,-0.082031 -0.09375,-0.082031 -0.117188,-0.082031 -0.05859,0 -0.08203,0.011719 -0.117187,0.070312 -0.222657,0.3164063 -0.363282,0.421875 -0.527344,0.421875 -0.09375,0 -0.199219,-0.011719 -0.3984376,-0.2109375 -0.2460937,-0.234375 -0.3984375,-0.28125 -0.5507812,-0.28125 -0.5625,0 -0.9375,0.5976563 -0.9375,0.8085938 0,0.0703125 0.070312,0.0820313 0.1171875,0.0820313 0.082031,0 0.09375,-0.0117188 0.1289062,-0.09375 0.1054688,-0.2460936 0.4921875,-0.2578124 0.5976563,-0.2578124 0.1640625,0 0.3515625,0.046875 0.4453125,0.0585938 0.3867183,0.09375 0.4335933,0.09375 0.6093753,0.09375 -0.1875,0.1875 -0.3046878,0.3046875 -0.9726566,0.84375 C 8.7257109,0.38025 8.5382109,0.55603125 8.3975859,0.69665625 7.9874297,1.1068125 7.7764922,1.4115 7.7764922,1.4818125 c 0,0.082031 0.09375,0.082031 0.1171875,0.082031 0.070312,0 0.09375,-0.011719 0.1289062,-0.070312 0.1875,-0.2695312 0.3984375,-0.421875 0.6328125,-0.421875 0.082031,0 0.1875,0 0.375,0.1757813 0.2226563,0.2109375 0.3632813,0.3164062 0.5859375,0.3164062 0.7382811,0 1.2070311,-0.84374995 1.2070311,-1.07812495 0,-0.0820313 -0.07031,-0.09375 -0.117187,-0.09375 -0.08203,0 -0.09375,0.0351563 -0.128907,0.1171875 C 10.448367,0.849 10.038211,1.0247812 9.6983672,1.0247812 9.5343047,1.0247812 9.3585234,0.989625 9.1827422,0.94275 8.8663359,0.8724375 8.8077422,0.8724375 8.6905547,0.8724375 c -0.023437,0 -0.1171875,0 -0.1640625,0.0117188 z m 0,0"
         style="fill:#000000;fill-opacity:1;fill-rule:nonzero;stroke:none" />
      <path
         id="path16"
         d="m 13.345828,-0.8385 c 0.550781,0 0.9375,0.375 0.9375,1.125 0,0.8671875 -0.503906,1.125 -0.902344,1.125 -0.28125,0 -0.890625,-0.082031 -1.183593,-0.4921875 0.328125,-0.0117188 0.398437,-0.24609375 0.398437,-0.38671875 0,-0.22265625 -0.164062,-0.38671875 -0.386719,-0.38671875 -0.1875,0 -0.386718,0.1171875 -0.386718,0.41015625 0,0.65624995 0.726562,1.07812495 1.570312,1.07812495 0.972656,0 1.640625,-0.6445312 1.640625,-1.3476562 0,-0.5390625 -0.445312,-1.08984375 -1.21875,-1.2421875 0.738281,-0.2695313 0.996094,-0.796875 0.996094,-1.21875 0,-0.5507813 -0.632813,-0.9609375 -1.40625,-0.9609375 -0.773438,0 -1.359375,0.375 -1.359375,0.9375 0,0.234375 0.152344,0.3632812 0.363281,0.3632812 0.210938,0 0.351563,-0.1640625 0.351563,-0.3515625 0,-0.1992187 -0.140625,-0.3515625 -0.351563,-0.3632812 0.234375,-0.3046875 0.714844,-0.3867188 0.972656,-0.3867188 0.316407,0 0.761719,0.1523438 0.761719,0.7617188 0,0.2929687 -0.105469,0.609375 -0.28125,0.8320312 -0.234375,0.2578125 -0.421875,0.28125 -0.773437,0.2929688 -0.175782,0.023437 -0.1875,0.023437 -0.222657,0.023437 -0.01172,0 -0.07031,0.011719 -0.07031,0.09375 0,0.09375 0.05859,0.09375 0.175781,0.09375 z m 0,0"
         style="fill:#000000;fill-opacity:1;fill-rule:nonzero;stroke:none" />
    </g>
    <path
       id="path17"
       d="M 113.38724,42.5202 V 70.867 h 28.3468 V 42.5202 Z"
       style="fill:none;stroke:#000000;stroke-width:0.79701;stroke-linecap:butt;stroke-linejoin:miter;stroke-miterlimit:10;stroke-dasharray:none;stroke-opacity:1"
       transform="matrix(1.3333333,0,0,-1.3333333,19.429333,113.91733)" />
    <g
       id="g17"
       aria-label="E&#10;z4"
       transform="matrix(1.3333333,0,0,1.3333333,178.9,41.868)">
      <path
         id="path18"
         d="m 7.0535156,-2.3209219 c 0.023437,-0.046875 0.046875,-0.1171875 0.046875,-0.140625 0,-0.011719 0,-0.1054687 -0.1171875,-0.1054687 -0.09375,0 -0.1054687,0.058594 -0.1289062,0.1171875 -0.6445313,1.47656247 -1.0195313,2.14453122 -2.71875,2.14453122 h -1.453125 c -0.140625,0 -0.1640625,0 -0.2226563,-0.0117188 -0.1054687,-0.0117188 -0.1289062,-0.0234375 -0.1289062,-0.10546875 0,-0.0234375 0,-0.046875 0.046875,-0.22265625 L 3.0574219,-3.3638906 h 0.984375 c 0.84375,0 0.84375,0.2109375 0.84375,0.4570312 0,0.070312 0,0.1875 -0.070312,0.4804688 -0.011719,0.058594 -0.023437,0.082031 -0.023437,0.1171875 0,0.046875 0.035156,0.1054687 0.1289062,0.1054687 0.082031,0 0.1054688,-0.046875 0.1523438,-0.1992187 l 0.5625,-2.3320313 c 0,-0.058594 -0.046875,-0.1054687 -0.1171875,-0.1054687 -0.09375,0 -0.1054688,0.058594 -0.140625,0.1757812 -0.2109375,0.7617188 -0.3867188,0.984375 -1.3007813,0.984375 h -0.9375 l 0.5976563,-2.4023437 c 0.082031,-0.3398438 0.09375,-0.3867188 0.5390625,-0.3867188 h 1.40625 c 1.2070312,0 1.5117187,0.2929688 1.5117187,1.1132813 0,0.234375 0,0.2578125 -0.046875,0.5273437 0,0.058594 -0.011719,0.1289063 -0.011719,0.1757813 0,0.046875 0.035156,0.1171875 0.1289062,0.1171875 0.1054688,0 0.1171875,-0.058594 0.140625,-0.2460938 L 7.6042969,-6.5045156 C 7.6277344,-6.7740469 7.5808594,-6.7740469 7.3347656,-6.7740469 H 2.2957031 c -0.1992187,0 -0.2929687,0 -0.2929687,0.1992188 0,0.1054687 0.09375,0.1054687 0.28125,0.1054687 0.3632812,0 0.6445312,0 0.6445312,0.1875 0,0.035156 0,0.058594 -0.046875,0.234375 l -1.3242187,5.27343752 c -0.09375,0.38671875 -0.1171875,0.46875 -0.90234377,0.46875 -0.1640625,0 -0.28125,0 -0.28125,0.1875 0,0.117187505 0.09375,0.117187505 0.28125,0.117187505 H 5.8230469 c 0.234375,0 0.2460937,-0.011718755 0.3164062,-0.164062505 z m 0,0"
         style="fill:#000000;fill-opacity:1;fill-rule:nonzero;stroke:none" />
      <path
         id="path19"
         d="m 8.5271484,0.88415625 c 0.1757813,-0.1875 0.3046875,-0.31640625 0.9023438,-0.796875 0.140625,-0.1171875 0.6679688,-0.52734375 0.8671878,-0.7265625 0.421875,-0.42187505 0.691406,-0.77343755 0.691406,-0.85546875 0,-0.082031 -0.09375,-0.082031 -0.117188,-0.082031 -0.05859,0 -0.08203,0.011719 -0.117187,0.070312 -0.222656,0.3164063 -0.363281,0.421875 -0.527344,0.421875 -0.09375,0 -0.199219,-0.011719 -0.3984373,-0.2109375 -0.2460938,-0.234375 -0.3984375,-0.28125 -0.5507813,-0.28125 -0.5625,0 -0.9375,0.5976563 -0.9375,0.8085938 0,0.0703125 0.070312,0.0820313 0.1171875,0.0820313 0.082031,0 0.09375,-0.0117188 0.1289063,-0.09375 0.1054687,-0.2460936 0.4921875,-0.2578124 0.5976562,-0.2578124 0.1640625,0 0.3515625,0.046875 0.4453125,0.0585938 0.3867191,0.09375 0.4335941,0.09375 0.6093751,0.09375 -0.1875,0.1875 -0.3046876,0.3046875 -0.9726563,0.84375 C 8.7263672,0.38025 8.5388672,0.55603125 8.3982422,0.69665625 7.9880859,1.1068125 7.7771484,1.4115 7.7771484,1.4818125 c 0,0.082031 0.09375,0.082031 0.1171875,0.082031 0.070312,0 0.09375,-0.011719 0.1289063,-0.070312 0.1875,-0.2695312 0.3984375,-0.421875 0.6328125,-0.421875 0.082031,0 0.1875,0 0.375,0.1757813 0.2226562,0.2109375 0.3632812,0.3164062 0.5859375,0.3164062 0.7382808,0 1.2070308,-0.84374995 1.2070308,-1.07812495 0,-0.0820313 -0.07031,-0.09375 -0.117187,-0.09375 -0.08203,0 -0.09375,0.0351563 -0.128906,0.1171875 C 10.449023,0.849 10.038867,1.0247812 9.6990234,1.0247812 9.5349609,1.0247812 9.3591797,0.989625 9.1833984,0.94275 8.8669922,0.8724375 8.8083984,0.8724375 8.6912109,0.8724375 c -0.023437,0 -0.1171875,0 -0.1640625,0.0117188 z m 0,0"
         style="fill:#000000;fill-opacity:1;fill-rule:nonzero;stroke:none" />
      <path
         id="path20"
         d="M 15.136523,0.34509375 V 0.099 h -0.773437 v -3.1054688 c 0,-0.1523437 0,-0.1992187 -0.152344,-0.1992187 -0.09375,0 -0.117187,0 -0.1875,0.09375 L 11.714648,0.099 V 0.34509375 H 13.76543 V 0.9193125 c 0,0.234375 0,0.328125 -0.5625,0.328125 h -0.1875 v 0.2460937 c 0.351562,-0.011719 0.796875,-0.023437 1.042968,-0.023437 0.257813,0 0.703125,0.011719 1.054688,0.023437 V 1.2474375 h -0.1875 c -0.5625,0 -0.5625,-0.09375 -0.5625,-0.328125 V 0.34509375 Z M 13.812305,-2.4556875 V 0.099 h -1.839844 z m 0,0"
         style="fill:#000000;fill-opacity:1;fill-rule:nonzero;stroke:none" />
    </g>
    <path
       id="path21"
       d="M 141.73404,42.5202 V 70.867 h 28.34682 V 42.5202 Z"
       style="fill:none;stroke:#000000;stroke-width:0.79701;stroke-linecap:butt;stroke-linejoin:miter;stroke-miterlimit:10;stroke-dasharray:none;stroke-opacity:1"
       transform="matrix(1.3333333,0,0,-1.3333333,19.429333,113.91733)" />
    <g
       id="g21"
       aria-label="E&#10;z5"
       transform="matrix(1.3333333,0,0,1.3333333,216.69467,41.868)">
      <path
         id="path22"
         d="m 7.0551719,-2.3209219 c 0.023437,-0.046875 0.046875,-0.1171875 0.046875,-0.140625 0,-0.011719 0,-0.1054687 -0.1171875,-0.1054687 -0.09375,0 -0.1054688,0.058594 -0.1289063,0.1171875 -0.6445312,1.47656247 -1.0195312,2.14453122 -2.71875,2.14453122 h -1.453125 c -0.140625,0 -0.1640625,0 -0.2226562,-0.0117188 -0.1054688,-0.0117188 -0.1289063,-0.0234375 -0.1289063,-0.10546875 0,-0.0234375 0,-0.046875 0.046875,-0.22265625 L 3.0590781,-3.3638906 h 0.984375 c 0.84375,0 0.84375,0.2109375 0.84375,0.4570312 0,0.070312 0,0.1875 -0.070312,0.4804688 -0.011719,0.058594 -0.023437,0.082031 -0.023437,0.1171875 0,0.046875 0.035156,0.1054687 0.1289063,0.1054687 0.082031,0 0.1054687,-0.046875 0.1523437,-0.1992187 l 0.5625,-2.3320313 c 0,-0.058594 -0.046875,-0.1054687 -0.1171875,-0.1054687 -0.09375,0 -0.1054687,0.058594 -0.140625,0.1757812 -0.2109375,0.7617188 -0.3867187,0.984375 -1.3007812,0.984375 h -0.9375 l 0.5976562,-2.4023437 c 0.082031,-0.3398438 0.09375,-0.3867188 0.5390625,-0.3867188 h 1.40625 c 1.2070313,0 1.5117188,0.2929688 1.5117188,1.1132813 0,0.234375 0,0.2578125 -0.046875,0.5273437 0,0.058594 -0.011719,0.1289063 -0.011719,0.1757813 0,0.046875 0.035156,0.1171875 0.1289063,0.1171875 0.1054687,0 0.1171875,-0.058594 0.140625,-0.2460938 L 7.6059531,-6.5045156 C 7.6293906,-6.7740469 7.5825156,-6.7740469 7.3364219,-6.7740469 H 2.2973594 c -0.1992188,0 -0.2929688,0 -0.2929688,0.1992188 0,0.1054687 0.09375,0.1054687 0.28125,0.1054687 0.3632813,0 0.6445313,0 0.6445313,0.1875 0,0.035156 0,0.058594 -0.046875,0.234375 l -1.3242188,5.27343752 c -0.09375,0.38671875 -0.1171875,0.46875 -0.90234372,0.46875 -0.1640625,0 -0.28125,0 -0.28125,0.1875 0,0.117187505 0.09375,0.117187505 0.28125,0.117187505 H 5.8247031 c 0.234375,0 0.2460938,-0.011718755 0.3164063,-0.164062505 z m 0,0"
         style="fill:#000000;fill-opacity:1;fill-rule:nonzero;stroke:none" />
      <path
         id="path23"
         d="m 8.525875,0.88415625 c 0.1757813,-0.1875 0.3046875,-0.31640625 0.9023438,-0.796875 0.140625,-0.1171875 0.6679692,-0.52734375 0.8671872,-0.7265625 0.421875,-0.42187505 0.691407,-0.77343755 0.691407,-0.85546875 0,-0.082031 -0.09375,-0.082031 -0.117188,-0.082031 -0.05859,0 -0.08203,0.011719 -0.117187,0.070312 -0.222657,0.3164063 -0.363282,0.421875 -0.527344,0.421875 -0.09375,0 -0.199219,-0.011719 -0.3984377,-0.2109375 -0.2460938,-0.234375 -0.3984375,-0.28125 -0.5507813,-0.28125 -0.5625,0 -0.9375,0.5976563 -0.9375,0.8085938 0,0.0703125 0.070312,0.0820313 0.1171875,0.0820313 0.082031,0 0.09375,-0.0117188 0.1289063,-0.09375 C 8.6899375,-1.026 9.0766563,-1.0377188 9.182125,-1.0377188 c 0.1640625,0 0.3515625,0.046875 0.4453125,0.0585938 0.3867185,0.09375 0.4335935,0.09375 0.6093755,0.09375 -0.1875,0.1875 -0.304688,0.3046875 -0.9726567,0.84375 C 8.7250938,0.38025 8.5375938,0.55603125 8.3969688,0.69665625 7.9868125,1.1068125 7.775875,1.4115 7.775875,1.4818125 c 0,0.082031 0.09375,0.082031 0.1171875,0.082031 0.070312,0 0.09375,-0.011719 0.1289063,-0.070312 0.1875,-0.2695312 0.3984375,-0.421875 0.6328125,-0.421875 0.082031,0 0.1875,0 0.375,0.1757813 0.2226562,0.2109375 0.3632812,0.3164062 0.5859375,0.3164062 0.7382812,0 1.2070312,-0.84374995 1.2070312,-1.07812495 0,-0.0820313 -0.07031,-0.09375 -0.117187,-0.09375 -0.08203,0 -0.09375,0.0351563 -0.128907,0.1171875 C 10.44775,0.849 10.037594,1.0247812 9.69775,1.0247812 9.5336875,1.0247812 9.3579063,0.989625 9.182125,0.94275 8.8657188,0.8724375 8.807125,0.8724375 8.6899375,0.8724375 c -0.023437,0 -0.1171875,0 -0.1640625,0.0117188 z m 0,0"
         style="fill:#000000;fill-opacity:1;fill-rule:nonzero;stroke:none" />
      <path
         id="path24"
         d="m 12.524898,-2.3970938 c 0.363282,0.09375 0.5625,0.09375 0.679688,0.09375 0.914062,0 1.464844,-0.6328125 1.464844,-0.7382812 0,-0.070312 -0.04687,-0.09375 -0.08203,-0.09375 -0.01172,0 -0.03516,0 -0.05859,0.023437 -0.164063,0.058594 -0.539063,0.1992187 -1.054688,0.1992187 -0.199219,0 -0.5625,-0.011719 -1.019531,-0.1875 -0.07031,-0.035156 -0.08203,-0.035156 -0.08203,-0.035156 -0.09375,0 -0.09375,0.070312 -0.09375,0.1875 v 2.0625 c 0,0.1171875 0,0.19921875 0.105468,0.19921875 0.07031,0 0.07031,-0.0117188 0.140625,-0.10546875 0.304688,-0.375 0.726563,-0.4335938 0.972657,-0.4335938 0.421875,0 0.609375,0.3398438 0.644531,0.3867188 0.117187,0.234375 0.164062,0.50390625 0.164062,0.90234375 0,0.2109375 0,0.62109375 -0.210937,0.92578125 -0.175781,0.2578125 -0.46875,0.421875 -0.820313,0.421875 -0.445312,0 -0.914062,-0.2578125 -1.089843,-0.71484375 0.269531,0.0234375 0.398437,-0.15234375 0.398437,-0.33984375 0,-0.3046875 -0.257812,-0.3515625 -0.351562,-0.3515625 -0.01172,0 -0.351563,0 -0.351563,0.375 0,0.6210937 0.574219,1.2539062 1.417969,1.2539062 0.890625,0 1.664062,-0.6679687 1.664062,-1.54687495 0,-0.78515625 -0.597656,-1.51171875 -1.453125,-1.51171875 -0.316406,0 -0.679687,0.082031 -0.984375,0.3398437 z m 0,0"
         style="fill:#000000;fill-opacity:1;fill-rule:nonzero;stroke:none" />
    </g>
    <path
       id="path25"
       d="M 28.3468,42.5202 V 70.867 H 56.69362 V 42.5202 Z"
       style="fill:none;stroke:#000000;stroke-width:0.79701;stroke-linecap:butt;stroke-linejoin:miter;stroke-miterlimit:10;stroke-dasharray:none;stroke-opacity:1"
       transform="matrix(1.3333333,0,0,-1.3333333,19.429333,113.91733)" />
    <path
       id="path26"
       d="M 0,0 V 28.3468 H 28.3468 V 0 Z"
       style="fill:none;stroke:#000000;stroke-width:0.79701;stroke-linecap:butt;stroke-linejoin:miter;stroke-miterlimit:10;stroke-dasharray:none;stroke-opacity:1"
       transform="matrix(1.3333333,0,0,-1.3333333,19.429333,113.91733)" />
    <g
       id="g26"
       aria-label="H&#10;y0"
       transform="matrix(1.3333333,0,0,1.3333333,26.966667,97.657333)">
      <path
         id="path27"
         d="M 7.6041016,-6.0359688 C 7.6861328,-6.39925 7.7095703,-6.493 8.4361328,-6.493 c 0.2578125,0 0.3398438,0 0.3398438,-0.1992188 0,-0.1171875 -0.1054688,-0.1171875 -0.140625,-0.1171875 -0.28125,0 -0.9960938,0.035156 -1.2773438,0.035156 -0.28125,0 -0.9960937,-0.035156 -1.2773437,-0.035156 -0.082031,0 -0.1992188,0 -0.1992188,0.1992188 0,0.1171875 0.09375,0.1171875 0.28125,0.1171875 0.023437,0 0.2109375,0 0.375,0.011719 0.1875,0.023437 0.2695313,0.035156 0.2695313,0.1640625 0,0.035156 0,0.058594 -0.035156,0.1875 l -0.5976562,2.4375 H 3.1392578 l 0.5859375,-2.34375 C 3.8189453,-6.39925 3.8423828,-6.493 4.5572266,-6.493 c 0.2578125,0 0.3398437,0 0.3398437,-0.1992188 0,-0.1171875 -0.1054687,-0.1171875 -0.140625,-0.1171875 -0.2695312,0 -0.9960937,0.035156 -1.265625,0.035156 -0.2929687,0 -0.9960937,-0.035156 -1.2890625,-0.035156 -0.082031,0 -0.1875,0 -0.1875,0.1992188 0,0.1171875 0.082031,0.1171875 0.28125,0.1171875 0.011719,0 0.1992188,0 0.375,0.011719 0.1757813,0.023437 0.2695313,0.035156 0.2695313,0.1640625 0,0.035156 -0.011719,0.070312 -0.046875,0.1875 L 1.5572266,-0.77425 c -0.09375,0.38671875 -0.1171875,0.46875 -0.90234379,0.46875 -0.17578125,0 -0.26953125,0 -0.26953125,0.19921875 0,0.10546875 0.1171875,0.10546875 0.140625,0.10546875 0.28125,0 0.98437504,-0.03515625 1.26562504,-0.03515625 0.2109375,0 0.4335937,0.01171875 0.6328125,0.01171875 0.2226562,0 0.4453125,0.0234375 0.65625,0.0234375 0.070312,0 0.1992187,0 0.1992187,-0.19921875 0,-0.10546875 -0.09375,-0.10546875 -0.28125,-0.10546875 -0.375,0 -0.6445312,0 -0.6445312,-0.1875 0,-0.0585938 0.011719,-0.10546875 0.023437,-0.1640625 l 0.679688,-2.7304688 H 6.0923828 C 5.6822266,-1.7351875 5.4478516,-0.78596875 5.4126953,-0.633625 5.3072266,-0.31721875 5.1197266,-0.3055 4.4986328,-0.3055 c -0.1523437,0 -0.234375,0 -0.234375,0.19921875 0,0.10546875 0.1171875,0.10546875 0.140625,0.10546875 0.28125,0 0.984375,-0.03515625 1.265625,-0.03515625 0.2109375,0 0.421875,0.01171875 0.6328125,0.01171875 0.2226563,0 0.4335938,0.0234375 0.6445313,0.0234375 0.082031,0 0.1992187,0 0.1992187,-0.19921875 C 7.1470703,-0.3055 7.0650391,-0.3055 6.8775391,-0.3055 c -0.375,0 -0.65625,0 -0.65625,-0.1875 0,-0.0585938 0.023437,-0.10546875 0.035156,-0.1640625 z m 0,0"
         style="fill:#000000;fill-opacity:1;fill-rule:nonzero;stroke:none" />
      <path
         id="path28"
         d="m 12.159766,-1.1316719 c 0.02344,-0.1054687 0.02344,-0.1171875 0.02344,-0.1523437 0,-0.140625 -0.105469,-0.2226563 -0.222656,-0.2226563 -0.08203,0 -0.210938,0.035156 -0.292969,0.1640625 -0.02344,0.035156 -0.07031,0.2578125 -0.105469,0.39843752 l -0.152343,0.5859375 c -0.03516,0.1640625 -0.257813,1.04296875 -0.28125,1.125 0,0 -0.304688,0.59765628 -0.855469,0.59765628 -0.4687501,0 -0.4687501,-0.44531253 -0.4687501,-0.57421878 0,-0.375 0.1523437,-0.8203125 0.3632811,-1.359375 0.08203,-0.22265625 0.117188,-0.3046875 0.117188,-0.421875 0,-0.32812502 -0.28125,-0.58593752 -0.6562504,-0.58593752 -0.703125,0 -1.0195312,0.94921877 -1.0195312,1.06640627 0,0.0820312 0.09375,0.0820312 0.1171875,0.0820312 0.09375,0 0.1054687,-0.0351563 0.1289062,-0.10546875 0.1757813,-0.58593752 0.46875,-0.85546882 0.75,-0.85546882 0.1171875,0 0.1757813,0.082031 0.1757813,0.2460938 0,0.16406252 -0.058594,0.31640627 -0.09375,0.41015627 -0.3398438,0.84375 -0.4101563,1.1015625 -0.4101563,1.40625 0,0.1171875 0,0.44531243 0.2695313,0.67968743 0.2226562,0.1757813 0.5156246,0.2109375 0.7031246,0.2109375 0.28125,0 0.527344,-0.1054687 0.761719,-0.3164062 -0.09375,0.3867187 -0.175781,0.6796875 -0.46875,1.03125 -0.1875,0.2109375 -0.457031,0.4453125 -0.8320311,0.4453125 -0.046875,0 -0.375,0 -0.5273438,-0.234375 0.375,-0.035156 0.375,-0.375 0.375,-0.3867188 0,-0.2226562 -0.1992187,-0.2578125 -0.2695312,-0.2578125 -0.1757813,0 -0.3984375,0.140625 -0.3984375,0.4570313 0,0.3515625 0.328125,0.609375 0.8320312,0.609375 0.7031254,0 1.5585934,-0.5390625 1.7695314,-1.40625 z m 0,0"
         style="fill:#000000;fill-opacity:1;fill-rule:nonzero;stroke:none" />
      <path
         id="path29"
         d="m 16.170508,-0.73323438 c 0,-0.76171872 -0.09375,-1.31250002 -0.410156,-1.80468752 -0.222657,-0.3164062 -0.644532,-0.5976562 -1.207032,-0.5976562 -1.617187,0 -1.617187,1.8984375 -1.617187,2.40234372 0,0.50390625 0,2.36718748 1.617187,2.36718748 1.617188,0 1.617188,-1.86328123 1.617188,-2.36718748 z M 14.55332,1.4347344 c -0.316406,0 -0.75,-0.1875 -0.890625,-0.76171878 -0.09375,-0.41015625 -0.09375,-0.984375 -0.09375,-1.5 0,-0.50390622 0,-1.03125002 0.105469,-1.41796872 0.152344,-0.5507813 0.597656,-0.6914063 0.878906,-0.6914063 0.375,0 0.738282,0.2226563 0.867188,0.6328125 0.105469,0.375 0.117187,0.8789063 0.117187,1.47656252 0,0.515625 0,1.04296875 -0.09375,1.4765625 C 15.30332,1.2823906 14.83457,1.4347344 14.55332,1.4347344 Z m 0,0"
         style="fill:#000000;fill-opacity:1;fill-rule:nonzero;stroke:none" />
    </g>
    <path
       id="path30"
       d="M 28.3468,0 V 28.3468 H 56.69362 V 0 Z"
       style="fill:none;stroke:#000000;stroke-width:0.79701;stroke-linecap:butt;stroke-linejoin:miter;stroke-miterlimit:10;stroke-dasharray:none;stroke-opacity:1"
       transform="matrix(1.3333333,0,0,-1.3333333,19.429333,113.91733)" />
    <g
       id="g30"
       aria-label="H&#10;y1"
       transform="matrix(1.3333333,0,0,1.3333333,64.761333,97.657333)">
      <path
         id="path31"
         d="M 7.6057578,-6.0359688 C 7.6877891,-6.39925 7.7112266,-6.493 8.4377891,-6.493 c 0.2578125,0 0.3398437,0 0.3398437,-0.1992188 0,-0.1171875 -0.1054687,-0.1171875 -0.140625,-0.1171875 -0.28125,0 -0.9960937,0.035156 -1.2773437,0.035156 -0.28125,0 -0.9960938,-0.035156 -1.2773438,-0.035156 -0.082031,0 -0.1992187,0 -0.1992187,0.1992188 0,0.1171875 0.09375,0.1171875 0.28125,0.1171875 0.023437,0 0.2109375,0 0.375,0.011719 0.1875,0.023437 0.2695312,0.035156 0.2695312,0.1640625 0,0.035156 0,0.058594 -0.035156,0.1875 l -0.5976563,2.4375 H 3.1409141 l 0.5859375,-2.34375 C 3.8206016,-6.39925 3.8440391,-6.493 4.5588828,-6.493 c 0.2578125,0 0.3398438,0 0.3398438,-0.1992188 0,-0.1171875 -0.1054688,-0.1171875 -0.140625,-0.1171875 -0.2695313,0 -0.9960938,0.035156 -1.265625,0.035156 -0.2929688,0 -0.9960938,-0.035156 -1.2890625,-0.035156 -0.082031,0 -0.1875,0 -0.1875,0.1992188 0,0.1171875 0.082031,0.1171875 0.28125,0.1171875 0.011719,0 0.1992187,0 0.375,0.011719 0.1757812,0.023437 0.2695312,0.035156 0.2695312,0.1640625 0,0.035156 -0.011719,0.070312 -0.046875,0.1875 L 1.5588828,-0.77425 c -0.09375,0.38671875 -0.1171875,0.46875 -0.90234374,0.46875 -0.17578125,0 -0.26953125,0 -0.26953125,0.19921875 0,0.10546875 0.1171875,0.10546875 0.140625,0.10546875 0.28125,0 0.98437499,-0.03515625 1.26562499,-0.03515625 0.2109375,0 0.4335938,0.01171875 0.6328125,0.01171875 0.2226563,0 0.4453125,0.0234375 0.65625,0.0234375 0.070312,0 0.1992188,0 0.1992188,-0.19921875 0,-0.10546875 -0.09375,-0.10546875 -0.28125,-0.10546875 -0.375,0 -0.6445313,0 -0.6445313,-0.1875 0,-0.0585938 0.011719,-0.10546875 0.023437,-0.1640625 l 0.679688,-2.7304688 H 6.0940391 C 5.6838828,-1.7351875 5.4495078,-0.78596875 5.4143516,-0.633625 5.3088828,-0.31721875 5.1213828,-0.3055 4.5002891,-0.3055 c -0.1523438,0 -0.234375,0 -0.234375,0.19921875 0,0.10546875 0.1171875,0.10546875 0.140625,0.10546875 0.28125,0 0.984375,-0.03515625 1.265625,-0.03515625 0.2109375,0 0.421875,0.01171875 0.6328125,0.01171875 0.2226562,0 0.4335937,0.0234375 0.6445312,0.0234375 0.082031,0 0.1992188,0 0.1992188,-0.19921875 C 7.1487266,-0.3055 7.0666953,-0.3055 6.8791953,-0.3055 c -0.375,0 -0.65625,0 -0.65625,-0.1875 0,-0.0585938 0.023437,-0.10546875 0.035156,-0.1640625 z m 0,0"
         style="fill:#000000;fill-opacity:1;fill-rule:nonzero;stroke:none" />
      <path
         id="path32"
         d="m 12.158492,-1.1316719 c 0.02344,-0.1054687 0.02344,-0.1171875 0.02344,-0.1523437 0,-0.140625 -0.105469,-0.2226563 -0.222657,-0.2226563 -0.08203,0 -0.210937,0.035156 -0.292968,0.1640625 -0.02344,0.035156 -0.07031,0.2578125 -0.105469,0.39843752 l -0.152344,0.5859375 c -0.03516,0.1640625 -0.257812,1.04296875 -0.28125,1.125 0,0 -0.304687,0.59765628 -0.855469,0.59765628 -0.4687496,0 -0.4687496,-0.44531253 -0.4687496,-0.57421878 0,-0.375 0.1523438,-0.8203125 0.3632816,-1.359375 0.08203,-0.22265625 0.117187,-0.3046875 0.117187,-0.421875 0,-0.32812502 -0.28125,-0.58593752 -0.6562498,-0.58593752 -0.703125,0 -1.0195313,0.94921877 -1.0195313,1.06640627 0,0.0820312 0.09375,0.0820312 0.1171875,0.0820312 0.09375,0 0.1054688,-0.0351563 0.1289063,-0.10546875 0.1757812,-0.58593752 0.46875,-0.85546882 0.75,-0.85546882 0.1171875,0 0.1757812,0.082031 0.1757812,0.2460938 0,0.16406252 -0.058594,0.31640627 -0.09375,0.41015627 -0.3398437,0.84375 -0.4101562,1.1015625 -0.4101562,1.40625 0,0.1171875 0,0.44531243 0.2695312,0.67968743 0.2226563,0.1757813 0.5156251,0.2109375 0.7031251,0.2109375 0.28125,0 0.527344,-0.1054687 0.761719,-0.3164062 -0.09375,0.3867187 -0.175782,0.6796875 -0.46875,1.03125 -0.1875,0.2109375 -0.457032,0.4453125 -0.8320316,0.4453125 -0.046875,0 -0.375,0 -0.5273437,-0.234375 0.375,-0.035156 0.375,-0.375 0.375,-0.3867188 0,-0.2226562 -0.1992188,-0.2578125 -0.2695313,-0.2578125 -0.1757812,0 -0.3984375,0.140625 -0.3984375,0.4570313 0,0.3515625 0.328125,0.609375 0.8320313,0.609375 0.7031248,0 1.5585938,-0.5390625 1.7695308,-1.40625 z m 0,0"
         style="fill:#000000;fill-opacity:1;fill-rule:nonzero;stroke:none" />
      <path
         id="path33"
         d="m 14.903609,-2.9363594 c 0,-0.1875 -0.01172,-0.1992187 -0.210937,-0.1992187 -0.445313,0.4335937 -1.078125,0.4453125 -1.359375,0.4453125 v 0.2460937 c 0.164062,0 0.621094,0 1.007812,-0.1875 v 3.55078127 c 0,0.23437503 0,0.32812503 -0.691406,0.32812503 h -0.269531 v 0.2460937 c 0.128906,-0.011719 0.984375,-0.023437 1.242187,-0.023437 0.210938,0 1.089844,0.011719 1.242188,0.023437 V 1.2472344 h -0.257813 c -0.703125,0 -0.703125,-0.09375 -0.703125,-0.32812503 z m 0,0"
         style="fill:#000000;fill-opacity:1;fill-rule:nonzero;stroke:none" />
    </g>
    <path
       id="path34"
       d="m 56.69362,0 v 28.3468 h 28.3468 V 0 Z"
       style="fill:none;stroke:#000000;stroke-width:0.79701;stroke-linecap:butt;stroke-linejoin:miter;stroke-miterlimit:10;stroke-dasharray:none;stroke-opacity:1"
       transform="matrix(1.3333333,0,0,-1.3333333,19.429333,113.91733)" />
    <g
       id="g34"
       aria-label="H&#10;y2"
       transform="matrix(1.3333333,0,0,1.3333333,102.55733,97.657333)">
      <path
         id="path35"
         d="M 7.6064141,-6.0359688 C 7.6884453,-6.39925 7.7118828,-6.493 8.4384453,-6.493 c 0.2578125,0 0.3398438,0 0.3398438,-0.1992188 0,-0.1171875 -0.1054688,-0.1171875 -0.140625,-0.1171875 -0.28125,0 -0.9960938,0.035156 -1.2773438,0.035156 -0.28125,0 -0.9960937,-0.035156 -1.2773437,-0.035156 -0.082031,0 -0.1992188,0 -0.1992188,0.1992188 0,0.1171875 0.09375,0.1171875 0.28125,0.1171875 0.023437,0 0.2109375,0 0.375,0.011719 0.1875,0.023437 0.2695313,0.035156 0.2695313,0.1640625 0,0.035156 0,0.058594 -0.035156,0.1875 l -0.5976562,2.4375 H 3.1415703 l 0.5859375,-2.34375 C 3.8212578,-6.39925 3.8446953,-6.493 4.5595391,-6.493 c 0.2578125,0 0.3398437,0 0.3398437,-0.1992188 0,-0.1171875 -0.1054687,-0.1171875 -0.140625,-0.1171875 -0.2695312,0 -0.9960937,0.035156 -1.265625,0.035156 -0.2929687,0 -0.9960937,-0.035156 -1.2890625,-0.035156 -0.082031,0 -0.1875,0 -0.1875,0.1992188 0,0.1171875 0.082031,0.1171875 0.28125,0.1171875 0.011719,0 0.1992188,0 0.375,0.011719 0.1757813,0.023437 0.2695313,0.035156 0.2695313,0.1640625 0,0.035156 -0.011719,0.070312 -0.046875,0.1875 L 1.5595391,-0.77425 c -0.09375,0.38671875 -0.1171875,0.46875 -0.90234379,0.46875 -0.17578125,0 -0.26953125,0 -0.26953125,0.19921875 0,0.10546875 0.1171875,0.10546875 0.140625,0.10546875 0.28125,0 0.98437504,-0.03515625 1.26562504,-0.03515625 0.2109375,0 0.4335937,0.01171875 0.6328125,0.01171875 0.2226562,0 0.4453125,0.0234375 0.65625,0.0234375 0.070312,0 0.1992187,0 0.1992187,-0.19921875 0,-0.10546875 -0.09375,-0.10546875 -0.28125,-0.10546875 -0.375,0 -0.6445312,0 -0.6445312,-0.1875 0,-0.0585938 0.011719,-0.10546875 0.023437,-0.1640625 l 0.679688,-2.7304688 H 6.0946953 C 5.6845391,-1.7351875 5.4501641,-0.78596875 5.4150078,-0.633625 5.3095391,-0.31721875 5.1220391,-0.3055 4.5009453,-0.3055 c -0.1523437,0 -0.234375,0 -0.234375,0.19921875 0,0.10546875 0.1171875,0.10546875 0.140625,0.10546875 0.28125,0 0.984375,-0.03515625 1.265625,-0.03515625 0.2109375,0 0.421875,0.01171875 0.6328125,0.01171875 0.2226563,0 0.4335938,0.0234375 0.6445313,0.0234375 0.082031,0 0.1992187,0 0.1992187,-0.19921875 C 7.1493828,-0.3055 7.0673516,-0.3055 6.8798516,-0.3055 c -0.375,0 -0.65625,0 -0.65625,-0.1875 0,-0.0585938 0.023437,-0.10546875 0.035156,-0.1640625 z m 0,0"
         style="fill:#000000;fill-opacity:1;fill-rule:nonzero;stroke:none" />
      <path
         id="path36"
         d="m 12.159148,-1.1316719 c 0.02344,-0.1054687 0.02344,-0.1171875 0.02344,-0.1523437 0,-0.140625 -0.105469,-0.2226563 -0.222656,-0.2226563 -0.08203,0 -0.210938,0.035156 -0.292969,0.1640625 -0.02344,0.035156 -0.07031,0.2578125 -0.105469,0.39843752 l -0.152344,0.5859375 c -0.03516,0.1640625 -0.257812,1.04296875 -0.28125,1.125 0,0 -0.304687,0.59765628 -0.855468,0.59765628 -0.4687503,0 -0.4687503,-0.44531253 -0.4687503,-0.57421878 0,-0.375 0.1523437,-0.8203125 0.3632813,-1.359375 0.08203,-0.22265625 0.117187,-0.3046875 0.117187,-0.421875 0,-0.32812502 -0.28125,-0.58593752 -0.6562496,-0.58593752 -0.703125,0 -1.0195312,0.94921877 -1.0195312,1.06640627 0,0.0820312 0.09375,0.0820312 0.1171875,0.0820312 0.09375,0 0.1054687,-0.0351563 0.1289062,-0.10546875 0.1757813,-0.58593752 0.46875,-0.85546882 0.75,-0.85546882 0.1171875,0 0.1757813,0.082031 0.1757813,0.2460938 0,0.16406252 -0.058594,0.31640627 -0.09375,0.41015627 -0.3398438,0.84375 -0.4101563,1.1015625 -0.4101563,1.40625 0,0.1171875 0,0.44531243 0.2695313,0.67968743 0.2226562,0.1757813 0.5156248,0.2109375 0.7031248,0.2109375 0.28125,0 0.527344,-0.1054687 0.761719,-0.3164062 -0.09375,0.3867187 -0.175781,0.6796875 -0.46875,1.03125 -0.1875,0.2109375 -0.457031,0.4453125 -0.8320313,0.4453125 -0.046875,0 -0.375,0 -0.5273438,-0.234375 0.375,-0.035156 0.375,-0.375 0.375,-0.3867188 0,-0.2226562 -0.1992187,-0.2578125 -0.2695312,-0.2578125 -0.1757813,0 -0.3984375,0.140625 -0.3984375,0.4570313 0,0.3515625 0.328125,0.609375 0.8320312,0.609375 0.7031246,0 1.5585936,-0.5390625 1.7695316,-1.40625 z m 0,0"
         style="fill:#000000;fill-opacity:1;fill-rule:nonzero;stroke:none" />
      <path
         id="path37"
         d="m 16.087859,0.22770312 h -0.234375 c -0.02344,0.15234375 -0.08203,0.5625 -0.175781,0.6328125 -0.05859,0.0351563 -0.597656,0.0351563 -0.691406,0.0351563 h -1.289063 c 0.738282,-0.64453125 0.984375,-0.84375 1.394532,-1.171875 0.515625,-0.41015625 0.996093,-0.84374992 0.996093,-1.49999992 0,-0.8437501 -0.738281,-1.3593751 -1.628906,-1.3593751 -0.867187,0 -1.453125,0.609375 -1.453125,1.2421876 0,0.3632812 0.304688,0.3984375 0.375,0.3984375 0.164063,0 0.375,-0.1171875 0.375,-0.375 0,-0.1289063 -0.05859,-0.3632814 -0.421875,-0.3632814 0.222656,-0.5039062 0.691406,-0.65625 1.019531,-0.65625 0.703125,0 1.066407,0.5507813 1.066407,1.1132813 0,0.609375 -0.433594,1.08984377 -0.65625,1.33593752 l -1.6875,1.66406248 c -0.07031,0.058594 -0.07031,0.070312 -0.07031,0.2695312 h 2.882813 z m 0,0"
         style="fill:#000000;fill-opacity:1;fill-rule:nonzero;stroke:none" />
    </g>
    <path
       id="path38"
       d="m 85.04042,0 v 28.3468 h 28.34682 V 0 Z"
       style="fill:none;stroke:#000000;stroke-width:0.79701;stroke-linecap:butt;stroke-linejoin:miter;stroke-miterlimit:10;stroke-dasharray:none;stroke-opacity:1"
       transform="matrix(1.3333333,0,0,-1.3333333,19.429333,113.91733)" />
    <g
       id="g38"
       aria-label="H&#10;y3"
       transform="matrix(1.3333333,0,0,1.3333333,140.35333,97.657333)">
      <path
         id="path39"
         d="M 7.6041406,-6.0359688 C 7.6861719,-6.39925 7.7096094,-6.493 8.4361719,-6.493 c 0.2578125,0 0.3398437,0 0.3398437,-0.1992188 0,-0.1171875 -0.1054687,-0.1171875 -0.140625,-0.1171875 -0.28125,0 -0.9960937,0.035156 -1.2773437,0.035156 -0.28125,0 -0.9960938,-0.035156 -1.2773438,-0.035156 -0.082031,0 -0.1992187,0 -0.1992187,0.1992188 0,0.1171875 0.09375,0.1171875 0.28125,0.1171875 0.023437,0 0.2109375,0 0.375,0.011719 0.1875,0.023437 0.2695312,0.035156 0.2695312,0.1640625 0,0.035156 0,0.058594 -0.035156,0.1875 l -0.5976563,2.4375 H 3.1392969 l 0.5859375,-2.34375 C 3.8189844,-6.39925 3.8424219,-6.493 4.5572656,-6.493 c 0.2578125,0 0.3398438,0 0.3398438,-0.1992188 0,-0.1171875 -0.1054688,-0.1171875 -0.140625,-0.1171875 -0.2695313,0 -0.9960938,0.035156 -1.265625,0.035156 -0.2929688,0 -0.9960938,-0.035156 -1.2890625,-0.035156 -0.082031,0 -0.1875,0 -0.1875,0.1992188 0,0.1171875 0.082031,0.1171875 0.28125,0.1171875 0.011719,0 0.1992187,0 0.375,0.011719 0.1757812,0.023437 0.2695312,0.035156 0.2695312,0.1640625 0,0.035156 -0.011719,0.070312 -0.046875,0.1875 L 1.5572656,-0.77425 c -0.09375,0.38671875 -0.1171875,0.46875 -0.90234372,0.46875 -0.17578125,0 -0.26953125,0 -0.26953125,0.19921875 0,0.10546875 0.1171875,0.10546875 0.140625,0.10546875 0.28125,0 0.98437497,-0.03515625 1.26562497,-0.03515625 0.2109375,0 0.4335938,0.01171875 0.6328125,0.01171875 0.2226563,0 0.4453125,0.0234375 0.65625,0.0234375 0.070312,0 0.1992188,0 0.1992188,-0.19921875 0,-0.10546875 -0.09375,-0.10546875 -0.28125,-0.10546875 -0.375,0 -0.6445313,0 -0.6445313,-0.1875 0,-0.0585938 0.011719,-0.10546875 0.023437,-0.1640625 l 0.679688,-2.7304688 H 6.0924219 C 5.6822656,-1.7351875 5.4478906,-0.78596875 5.4127344,-0.633625 5.3072656,-0.31721875 5.1197656,-0.3055 4.4986719,-0.3055 c -0.1523438,0 -0.234375,0 -0.234375,0.19921875 0,0.10546875 0.1171875,0.10546875 0.140625,0.10546875 0.28125,0 0.984375,-0.03515625 1.265625,-0.03515625 0.2109375,0 0.421875,0.01171875 0.6328125,0.01171875 0.2226562,0 0.4335937,0.0234375 0.6445312,0.0234375 0.082031,0 0.1992188,0 0.1992188,-0.19921875 C 7.1471094,-0.3055 7.0650781,-0.3055 6.8775781,-0.3055 c -0.375,0 -0.65625,0 -0.65625,-0.1875 0,-0.0585938 0.023437,-0.10546875 0.035156,-0.1640625 z m 0,0"
         style="fill:#000000;fill-opacity:1;fill-rule:nonzero;stroke:none" />
      <path
         id="path40"
         d="m 12.159805,-1.1316719 c 0.02344,-0.1054687 0.02344,-0.1171875 0.02344,-0.1523437 0,-0.140625 -0.105469,-0.2226563 -0.222656,-0.2226563 -0.08203,0 -0.210938,0.035156 -0.292969,0.1640625 -0.02344,0.035156 -0.07031,0.2578125 -0.105469,0.39843752 l -0.152343,0.5859375 c -0.03516,0.1640625 -0.257813,1.04296875 -0.28125,1.125 0,0 -0.304688,0.59765628 -0.855469,0.59765628 -0.4687501,0 -0.4687501,-0.44531253 -0.4687501,-0.57421878 0,-0.375 0.1523438,-0.8203125 0.3632811,-1.359375 0.08203,-0.22265625 0.117188,-0.3046875 0.117188,-0.421875 0,-0.32812502 -0.28125,-0.58593752 -0.6562503,-0.58593752 -0.703125,0 -1.0195313,0.94921877 -1.0195313,1.06640627 0,0.0820312 0.09375,0.0820312 0.1171875,0.0820312 0.09375,0 0.1054688,-0.0351563 0.1289063,-0.10546875 0.1757812,-0.58593752 0.46875,-0.85546882 0.75,-0.85546882 0.1171875,0 0.1757812,0.082031 0.1757812,0.2460938 0,0.16406252 -0.058594,0.31640627 -0.09375,0.41015627 -0.3398437,0.84375 -0.4101562,1.1015625 -0.4101562,1.40625 0,0.1171875 0,0.44531243 0.2695312,0.67968743 0.2226563,0.1757813 0.5156246,0.2109375 0.7031246,0.2109375 0.28125,0 0.527344,-0.1054687 0.761719,-0.3164062 -0.09375,0.3867187 -0.175781,0.6796875 -0.46875,1.03125 -0.1875,0.2109375 -0.457031,0.4453125 -0.8320311,0.4453125 -0.046875,0 -0.375,0 -0.5273437,-0.234375 0.375,-0.035156 0.375,-0.375 0.375,-0.3867188 0,-0.2226562 -0.1992188,-0.2578125 -0.2695313,-0.2578125 -0.1757812,0 -0.3984375,0.140625 -0.3984375,0.4570313 0,0.3515625 0.328125,0.609375 0.8320313,0.609375 0.7031253,0 1.5585933,-0.5390625 1.7695313,-1.40625 z m 0,0"
         style="fill:#000000;fill-opacity:1;fill-rule:nonzero;stroke:none" />
      <path
         id="path41"
         d="m 14.471328,-0.83870313 c 0.550781,0 0.9375,0.375 0.9375,1.125 0,0.86718753 -0.503906,1.12500003 -0.902344,1.12500003 -0.28125,0 -0.890625,-0.082031 -1.183593,-0.49218753 0.328125,-0.0117188 0.398437,-0.24609375 0.398437,-0.38671875 0,-0.22265625 -0.164062,-0.38671875 -0.386719,-0.38671875 -0.1875,0 -0.386718,0.1171875 -0.386718,0.41015625 0,0.65624998 0.726562,1.07812498 1.570312,1.07812498 0.972656,0 1.640625,-0.64453123 1.640625,-1.34765623 0,-0.5390625 -0.445312,-1.08984375 -1.21875,-1.2421875 0.738281,-0.26953127 0.996094,-0.79687497 0.996094,-1.21874997 0,-0.5507813 -0.632813,-0.9609375 -1.40625,-0.9609375 -0.773438,0 -1.359375,0.375 -1.359375,0.9375 0,0.234375 0.152344,0.3632812 0.363281,0.3632812 0.210938,0 0.351563,-0.1640625 0.351563,-0.3515625 0,-0.1992187 -0.140625,-0.3515625 -0.351563,-0.3632812 0.234375,-0.3046875 0.714844,-0.3867188 0.972656,-0.3867188 0.316407,0 0.761719,0.1523438 0.761719,0.7617188 0,0.2929687 -0.105469,0.609375 -0.28125,0.8320312 -0.234375,0.2578125 -0.421875,0.28125 -0.773437,0.2929688 -0.175782,0.023437 -0.1875,0.023437 -0.222657,0.023437 -0.01172,0 -0.07031,0.011719 -0.07031,0.09375 0,0.09375 0.05859,0.09375 0.175781,0.09375 z m 0,0"
         style="fill:#000000;fill-opacity:1;fill-rule:nonzero;stroke:none" />
    </g>
    <path
       id="path42"
       d="m 113.38724,0 v 28.3468 h 28.3468 V 0 Z"
       style="fill:none;stroke:#000000;stroke-width:0.79701;stroke-linecap:butt;stroke-linejoin:miter;stroke-miterlimit:10;stroke-dasharray:none;stroke-opacity:1"
       transform="matrix(1.3333333,0,0,-1.3333333,19.429333,113.91733)" />
    <g
       id="g42"
       aria-label="H&#10;y4"
       transform="matrix(1.3333333,0,0,1.3333333,178.14933,97.657333)">
      <path
         id="path43"
         d="M 7.6047969,-6.0359688 C 7.6868281,-6.39925 7.7102656,-6.493 8.4368281,-6.493 c 0.2578125,0 0.3398438,0 0.3398438,-0.1992188 0,-0.1171875 -0.1054688,-0.1171875 -0.140625,-0.1171875 -0.28125,0 -0.9960938,0.035156 -1.2773438,0.035156 -0.28125,0 -0.9960937,-0.035156 -1.2773437,-0.035156 -0.082031,0 -0.1992188,0 -0.1992188,0.1992188 0,0.1171875 0.09375,0.1171875 0.28125,0.1171875 0.023437,0 0.2109375,0 0.375,0.011719 0.1875,0.023437 0.2695313,0.035156 0.2695313,0.1640625 0,0.035156 0,0.058594 -0.035156,0.1875 l -0.5976562,2.4375 H 3.1399531 l 0.5859375,-2.34375 C 3.8196406,-6.39925 3.8430781,-6.493 4.5579219,-6.493 c 0.2578125,0 0.3398437,0 0.3398437,-0.1992188 0,-0.1171875 -0.1054687,-0.1171875 -0.140625,-0.1171875 -0.2695312,0 -0.9960937,0.035156 -1.265625,0.035156 -0.2929687,0 -0.9960937,-0.035156 -1.2890625,-0.035156 -0.082031,0 -0.1875,0 -0.1875,0.1992188 0,0.1171875 0.082031,0.1171875 0.28125,0.1171875 0.011719,0 0.1992188,0 0.375,0.011719 0.1757813,0.023437 0.2695313,0.035156 0.2695313,0.1640625 0,0.035156 -0.011719,0.070312 -0.046875,0.1875 L 1.5579219,-0.77425 c -0.09375,0.38671875 -0.1171875,0.46875 -0.90234378,0.46875 -0.17578125,0 -0.26953125,0 -0.26953125,0.19921875 0,0.10546875 0.1171875,0.10546875 0.140625,0.10546875 0.28125,0 0.98437503,-0.03515625 1.26562503,-0.03515625 0.2109375,0 0.4335937,0.01171875 0.6328125,0.01171875 0.2226562,0 0.4453125,0.0234375 0.65625,0.0234375 0.070312,0 0.1992187,0 0.1992187,-0.19921875 0,-0.10546875 -0.09375,-0.10546875 -0.28125,-0.10546875 -0.375,0 -0.6445312,0 -0.6445312,-0.1875 0,-0.0585938 0.011719,-0.10546875 0.023437,-0.1640625 l 0.679688,-2.7304688 H 6.0930781 C 5.6829219,-1.7351875 5.4485469,-0.78596875 5.4133906,-0.633625 5.3079219,-0.31721875 5.1204219,-0.3055 4.4993281,-0.3055 c -0.1523437,0 -0.234375,0 -0.234375,0.19921875 0,0.10546875 0.1171875,0.10546875 0.140625,0.10546875 0.28125,0 0.984375,-0.03515625 1.265625,-0.03515625 0.2109375,0 0.421875,0.01171875 0.6328125,0.01171875 0.2226563,0 0.4335938,0.0234375 0.6445313,0.0234375 0.082031,0 0.1992187,0 0.1992187,-0.19921875 C 7.1477656,-0.3055 7.0657344,-0.3055 6.8782344,-0.3055 c -0.375,0 -0.65625,0 -0.65625,-0.1875 0,-0.0585938 0.023437,-0.10546875 0.035156,-0.1640625 z m 0,0"
         style="fill:#000000;fill-opacity:1;fill-rule:nonzero;stroke:none" />
      <path
         id="path44"
         d="m 12.160461,-1.1316719 c 0.02344,-0.1054687 0.02344,-0.1171875 0.02344,-0.1523437 0,-0.140625 -0.105468,-0.2226563 -0.222656,-0.2226563 -0.08203,0 -0.210937,0.035156 -0.292969,0.1640625 -0.02344,0.035156 -0.07031,0.2578125 -0.105468,0.39843752 l -0.152344,0.5859375 c -0.03516,0.1640625 -0.257813,1.04296875 -0.28125,1.125 0,0 -0.304688,0.59765628 -0.855469,0.59765628 -0.4687498,0 -0.4687498,-0.44531253 -0.4687498,-0.57421878 0,-0.375 0.1523437,-0.8203125 0.3632808,-1.359375 0.08203,-0.22265625 0.117188,-0.3046875 0.117188,-0.421875 0,-0.32812502 -0.28125,-0.58593752 -0.6562501,-0.58593752 -0.703125,0 -1.0195312,0.94921877 -1.0195312,1.06640627 0,0.0820312 0.09375,0.0820312 0.1171875,0.0820312 0.09375,0 0.1054687,-0.0351563 0.1289062,-0.10546875 0.1757813,-0.58593752 0.46875,-0.85546882 0.75,-0.85546882 0.1171875,0 0.1757813,0.082031 0.1757813,0.2460938 0,0.16406252 -0.058594,0.31640627 -0.09375,0.41015627 -0.3398438,0.84375 -0.4101563,1.1015625 -0.4101563,1.40625 0,0.1171875 0,0.44531243 0.2695313,0.67968743 0.2226562,0.1757813 0.5156253,0.2109375 0.7031253,0.2109375 0.28125,0 0.527343,-0.1054687 0.761718,-0.3164062 -0.09375,0.3867187 -0.175781,0.6796875 -0.46875,1.03125 -0.1875,0.2109375 -0.457031,0.4453125 -0.8320308,0.4453125 -0.046875,0 -0.375,0 -0.5273438,-0.234375 0.375,-0.035156 0.375,-0.375 0.375,-0.3867188 0,-0.2226562 -0.1992187,-0.2578125 -0.2695312,-0.2578125 -0.1757813,0 -0.3984375,0.140625 -0.3984375,0.4570313 0,0.3515625 0.328125,0.609375 0.8320312,0.609375 0.7031251,0 1.5585941,-0.5390625 1.7695311,-1.40625 z m 0,0"
         style="fill:#000000;fill-opacity:1;fill-rule:nonzero;stroke:none" />
      <path
         id="path45"
         d="M 16.262023,0.34489062 V 0.09879687 H 15.488586 V -3.0066719 c 0,-0.1523437 0,-0.1992187 -0.152344,-0.1992187 -0.09375,0 -0.117187,0 -0.1875,0.09375 l -2.308594,3.21093747 v 0.24609375 h 2.050782 v 0.57421875 c 0,0.23437503 0,0.32812503 -0.5625,0.32812503 h -0.1875 v 0.2460937 c 0.351562,-0.011719 0.796875,-0.023437 1.042968,-0.023437 0.257813,0 0.703125,0.011719 1.054688,0.023437 V 1.2472344 h -0.1875 c -0.5625,0 -0.5625,-0.09375 -0.5625,-0.32812503 V 0.34489062 Z M 14.937805,-2.4558906 v 2.55468747 h -1.839844 z m 0,0"
         style="fill:#000000;fill-opacity:1;fill-rule:nonzero;stroke:none" />
    </g>
    <path
       id="path46"
       d="m 141.73404,0 v 28.3468 h 28.34682 V 0 Z"
       style="fill:none;stroke:#000000;stroke-width:0.79701;stroke-linecap:butt;stroke-linejoin:miter;stroke-miterlimit:10;stroke-dasharray:none;stroke-opacity:1"
       transform="matrix(1.3333333,0,0,-1.3333333,19.429333,113.91733)" />
    <g
       id="g46"
       aria-label="H&#10;y5"
       transform="matrix(1.3333333,0,0,1.3333333,215.94533,97.657333)">
      <path
         id="path47"
         d="M 7.6054531,-6.0359688 C 7.6874844,-6.39925 7.7109219,-6.493 8.4374844,-6.493 c 0.2578125,0 0.3398437,0 0.3398437,-0.1992188 0,-0.1171875 -0.1054687,-0.1171875 -0.140625,-0.1171875 -0.28125,0 -0.9960937,0.035156 -1.2773437,0.035156 -0.28125,0 -0.9960938,-0.035156 -1.2773438,-0.035156 -0.082031,0 -0.1992187,0 -0.1992187,0.1992188 0,0.1171875 0.09375,0.1171875 0.28125,0.1171875 0.023437,0 0.2109375,0 0.375,0.011719 0.1875,0.023437 0.2695312,0.035156 0.2695312,0.1640625 0,0.035156 0,0.058594 -0.035156,0.1875 l -0.5976563,2.4375 H 3.1406094 l 0.5859375,-2.34375 C 3.8202969,-6.39925 3.8437344,-6.493 4.5585781,-6.493 c 0.2578125,0 0.3398438,0 0.3398438,-0.1992188 0,-0.1171875 -0.1054688,-0.1171875 -0.140625,-0.1171875 -0.2695313,0 -0.9960938,0.035156 -1.265625,0.035156 -0.2929688,0 -0.9960938,-0.035156 -1.2890625,-0.035156 -0.082031,0 -0.1875,0 -0.1875,0.1992188 0,0.1171875 0.082031,0.1171875 0.28125,0.1171875 0.011719,0 0.1992187,0 0.375,0.011719 0.1757812,0.023437 0.2695312,0.035156 0.2695312,0.1640625 0,0.035156 -0.011719,0.070312 -0.046875,0.1875 L 1.5585781,-0.77425 c -0.09375,0.38671875 -0.1171875,0.46875 -0.90234373,0.46875 -0.17578125,0 -0.26953125,0 -0.26953125,0.19921875 0,0.10546875 0.1171875,0.10546875 0.140625,0.10546875 0.28125,0 0.98437498,-0.03515625 1.26562498,-0.03515625 0.2109375,0 0.4335938,0.01171875 0.6328125,0.01171875 0.2226563,0 0.4453125,0.0234375 0.65625,0.0234375 0.070312,0 0.1992188,0 0.1992188,-0.19921875 0,-0.10546875 -0.09375,-0.10546875 -0.28125,-0.10546875 -0.375,0 -0.6445313,0 -0.6445313,-0.1875 0,-0.0585938 0.011719,-0.10546875 0.023437,-0.1640625 l 0.679688,-2.7304688 H 6.0937344 C 5.6835781,-1.7351875 5.4492031,-0.78596875 5.4140469,-0.633625 5.3085781,-0.31721875 5.1210781,-0.3055 4.4999844,-0.3055 c -0.1523438,0 -0.234375,0 -0.234375,0.19921875 0,0.10546875 0.1171875,0.10546875 0.140625,0.10546875 0.28125,0 0.984375,-0.03515625 1.265625,-0.03515625 0.2109375,0 0.421875,0.01171875 0.6328125,0.01171875 0.2226562,0 0.4335937,0.0234375 0.6445312,0.0234375 0.082031,0 0.1992188,0 0.1992188,-0.19921875 C 7.1484219,-0.3055 7.0663906,-0.3055 6.8788906,-0.3055 c -0.375,0 -0.65625,0 -0.65625,-0.1875 0,-0.0585938 0.023437,-0.10546875 0.035156,-0.1640625 z m 0,0"
         style="fill:#000000;fill-opacity:1;fill-rule:nonzero;stroke:none" />
      <path
         id="path48"
         d="m 12.161117,-1.1316719 c 0.02344,-0.1054687 0.02344,-0.1171875 0.02344,-0.1523437 0,-0.140625 -0.105469,-0.2226563 -0.222657,-0.2226563 -0.08203,0 -0.210937,0.035156 -0.292968,0.1640625 -0.02344,0.035156 -0.07031,0.2578125 -0.105469,0.39843752 l -0.152344,0.5859375 c -0.03516,0.1640625 -0.257812,1.04296875 -0.28125,1.125 0,0 -0.304687,0.59765628 -0.855469,0.59765628 -0.4687496,0 -0.4687496,-0.44531253 -0.4687496,-0.57421878 0,-0.375 0.1523438,-0.8203125 0.3632816,-1.359375 0.08203,-0.22265625 0.117187,-0.3046875 0.117187,-0.421875 0,-0.32812502 -0.28125,-0.58593752 -0.6562498,-0.58593752 -0.703125,0 -1.0195313,0.94921877 -1.0195313,1.06640627 0,0.0820312 0.09375,0.0820312 0.1171875,0.0820312 0.09375,0 0.1054688,-0.0351563 0.1289063,-0.10546875 0.1757812,-0.58593752 0.46875,-0.85546882 0.75,-0.85546882 0.1171875,0 0.1757812,0.082031 0.1757812,0.2460938 0,0.16406252 -0.058594,0.31640627 -0.09375,0.41015627 -0.3398437,0.84375 -0.4101562,1.1015625 -0.4101562,1.40625 0,0.1171875 0,0.44531243 0.2695312,0.67968743 0.2226563,0.1757813 0.5156251,0.2109375 0.7031251,0.2109375 0.28125,0 0.527344,-0.1054687 0.761719,-0.3164062 -0.09375,0.3867187 -0.175782,0.6796875 -0.46875,1.03125 -0.1875,0.2109375 -0.457032,0.4453125 -0.8320316,0.4453125 -0.046875,0 -0.375,0 -0.5273437,-0.234375 0.375,-0.035156 0.375,-0.375 0.375,-0.3867188 0,-0.2226562 -0.1992188,-0.2578125 -0.2695313,-0.2578125 -0.1757812,0 -0.3984375,0.140625 -0.3984375,0.4570313 0,0.3515625 0.328125,0.609375 0.8320313,0.609375 0.7031248,0 1.5585938,-0.5390625 1.7695308,-1.40625 z m 0,0"
         style="fill:#000000;fill-opacity:1;fill-rule:nonzero;stroke:none" />
      <path
         id="path49"
         d="m 13.649398,-2.3972969 c 0.363282,0.09375 0.5625,0.09375 0.679688,0.09375 0.914062,0 1.464844,-0.6328125 1.464844,-0.7382812 0,-0.070312 -0.04687,-0.09375 -0.08203,-0.09375 -0.01172,0 -0.03516,0 -0.05859,0.023437 -0.164063,0.058594 -0.539063,0.1992187 -1.054688,0.1992187 -0.199219,0 -0.5625,-0.011719 -1.019531,-0.1875 -0.07031,-0.035156 -0.08203,-0.035156 -0.08203,-0.035156 -0.09375,0 -0.09375,0.070312 -0.09375,0.1875 v 2.06249997 c 0,0.1171875 0,0.19921875 0.105468,0.19921875 0.07031,0 0.07031,-0.0117188 0.140625,-0.10546875 0.304688,-0.37499997 0.726563,-0.43359377 0.972657,-0.43359377 0.421875,0 0.609375,0.33984377 0.644531,0.38671877 0.117187,0.234375 0.164062,0.50390625 0.164062,0.90234375 0,0.2109375 0,0.62109375 -0.210937,0.92578125 -0.175781,0.25781253 -0.46875,0.42187503 -0.820313,0.42187503 -0.445312,0 -0.914062,-0.2578125 -1.089843,-0.71484378 0.269531,0.0234375 0.398437,-0.15234375 0.398437,-0.33984375 0,-0.3046875 -0.257812,-0.3515625 -0.351562,-0.3515625 -0.01172,0 -0.351563,0 -0.351563,0.375 0,0.62109373 0.574219,1.25390623 1.417969,1.25390623 0.890625,0 1.664062,-0.66796873 1.664062,-1.54687498 0,-0.78515625 -0.597656,-1.51171872 -1.453125,-1.51171872 -0.316406,0 -0.679687,0.082031 -0.984375,0.3398437 z m 0,0"
         style="fill:#000000;fill-opacity:1;fill-rule:nonzero;stroke:none" />
    </g>
    <path
       id="path50"
       d="M 28.3468,0 V 28.3468 H 56.69362 V 0 Z"
       style="fill:none;stroke:#000000;stroke-width:0.79701;stroke-linecap:butt;stroke-linejoin:miter;stroke-miterlimit:10;stroke-dasharray:none;stroke-opacity:1"
       transform="matrix(1.3333333,0,0,-1.3333333,19.429333,113.91733)" />
  </g>
</svg>
