<?xml version="1.0" encoding="UTF-8" standalone="no"?>
<!-- Created with Inkscape (http://www.inkscape.org/) -->

<svg
   version="1.1"
   id="svg1"
   width="357.66666"
   height="120.25333"
   viewBox="0 0 357.66666 120.25333"
   sodipodi:docname="yee-1d.svg"
   inkscape:version="1.4 (e7c3feb100, 2024-10-09)"
   xmlns:inkscape="http://www.inkscape.org/namespaces/inkscape"
   xmlns:sodipodi="http://sodipodi.sourceforge.net/DTD/sodipodi-0.dtd"
   xmlns="http://www.w3.org/2000/svg"
   xmlns:svg="http://www.w3.org/2000/svg">
  <defs
     id="defs1" />
  <sodipodi:namedview
     id="namedview1"
     pagecolor="#ffffff"
     bordercolor="#666666"
     borderopacity="1.0"
     inkscape:showpageshadow="2"
     inkscape:pageopacity="0.0"
     inkscape:pagecheckerboard="0"
     inkscape:deskcolor="#d1d1d1"
     inkscape:zoom="3.2488352"
     inkscape:cx="178.83333"
     inkscape:cy="60.175414"
     inkscape:window-width="1920"
     inkscape:window-height="1025"
     inkscape:window-x="0"
     inkscape:window-y="724"
     inkscape:window-maximized="1"
     inkscape:current-layer="g1">
    <inkscape:page
       x="0"
       y="0"
       inkscape:label="1"
       id="page1"
       width="357.66666"
       height="120.25333"
       margin="0"
       bleed="0" />
  </sodipodi:namedview>
  <g
     id="g1"
     inkscape:groupmode="layer"
     inkscape:label="1">
    <path
       id="path1"
       d="m 0,7.08669 v 28.3468 H 28.3468 V 7.08669 Z"
       style="fill:none;stroke:#000000;stroke-width:0.79701;stroke-linecap:butt;stroke-linejoin:miter;stroke-miterlimit:10;stroke-dasharray:none;stroke-opacity:1"
       transform="matrix(1.3333333,0,0,-1.3333333,19.429333,66.668)" />
    <g
       id="g2"
       aria-label="E&#10;z0"
       transform="matrix(1.3333333,0,0,1.3333333,27.716,41.864)">
      <path
         id="path2"
         d="m 7.0538203,-2.3208516 c 0.023437,-0.046875 0.046875,-0.1171875 0.046875,-0.140625 0,-0.011719 0,-0.1054687 -0.1171875,-0.1054687 -0.09375,0 -0.1054687,0.058594 -0.1289062,0.1171875 -0.6445313,1.47656249 -1.0195313,2.14453124 -2.71875,2.14453124 h -1.453125 c -0.140625,0 -0.1640625,0 -0.2226563,-0.0117188 -0.1054687,-0.0117188 -0.1289062,-0.0234375 -0.1289062,-0.10546875 0,-0.0234375 0,-0.046875 0.046875,-0.22265625 L 3.0577266,-3.3638203 h 0.984375 c 0.84375,0 0.84375,0.2109375 0.84375,0.4570312 0,0.070312 0,0.1875 -0.070312,0.4804688 -0.011719,0.058594 -0.023437,0.082031 -0.023437,0.1171875 0,0.046875 0.035156,0.1054687 0.1289062,0.1054687 0.082031,0 0.1054688,-0.046875 0.1523438,-0.1992187 l 0.5625,-2.3320313 c 0,-0.058594 -0.046875,-0.1054687 -0.1171875,-0.1054687 -0.09375,0 -0.1054688,0.058594 -0.140625,0.1757812 -0.2109375,0.7617188 -0.3867188,0.984375 -1.3007813,0.984375 h -0.9375 l 0.5976563,-2.4023437 c 0.082031,-0.3398438 0.09375,-0.3867188 0.5390625,-0.3867188 h 1.40625 c 1.2070312,0 1.5117187,0.2929688 1.5117187,1.1132813 0,0.234375 0,0.2578125 -0.046875,0.5273437 0,0.058594 -0.011719,0.1289063 -0.011719,0.1757813 0,0.046875 0.035156,0.1171875 0.1289062,0.1171875 0.1054688,0 0.1171875,-0.058594 0.140625,-0.2460938 L 7.6046016,-6.5044453 C 7.6280391,-6.7739766 7.5811641,-6.7739766 7.3350703,-6.7739766 H 2.2960078 c -0.1992187,0 -0.2929687,0 -0.2929687,0.1992188 0,0.1054687 0.09375,0.1054687 0.28125,0.1054687 0.3632812,0 0.6445312,0 0.6445312,0.1875 0,0.035156 0,0.058594 -0.046875,0.234375 l -1.3242187,5.27343754 c -0.09375,0.38671875 -0.1171875,0.46875 -0.90234379,0.46875 -0.1640625,0 -0.28125,0 -0.28125,0.1875 0,0.1171874975 0.09375,0.1171874975 0.28125,0.1171874975 H 5.8233516 c 0.234375,0 0.2460937,-0.0117187475 0.3164062,-0.1640624975 z m 0,0"
         style="fill:#000000;fill-opacity:1;fill-rule:nonzero;stroke:none" />
      <path
         id="path3"
         d="m 8.5245234,0.88422656 c 0.1757813,-0.1875 0.3046875,-0.31640625 0.9023438,-0.796875 0.140625,-0.1171875 0.6679688,-0.52734375 0.8671878,-0.7265625 0.421875,-0.42187496 0.691406,-0.77343746 0.691406,-0.85546876 0,-0.082031 -0.09375,-0.082031 -0.117188,-0.082031 -0.05859,0 -0.08203,0.011719 -0.117187,0.070312 -0.222656,0.3164062 -0.363281,0.421875 -0.527344,0.421875 -0.09375,0 -0.199219,-0.011719 -0.3984373,-0.2109375 -0.2460938,-0.234375 -0.3984375,-0.28125 -0.5507813,-0.28125 -0.5625,0 -0.9375,0.59765621 -0.9375,0.80859371 0,0.0703125 0.070312,0.0820313 0.1171875,0.0820313 0.082031,0 0.09375,-0.0117188 0.1289063,-0.09375 C 8.6885859,-1.02593 9.0753047,-1.0376486 9.1807734,-1.0376486 c 0.1640625,0 0.3515625,0.046875 0.4453125,0.0585937 0.3867191,0.09375 0.4335941,0.09375 0.6093751,0.09375 -0.1875,0.1875 -0.3046876,0.3046875 -0.9726563,0.84375 C 8.7237422,0.38032031 8.5362422,0.55610156 8.3956172,0.69672656 7.9854609,1.1068828 7.7745234,1.4115703 7.7745234,1.4818828 c 0,0.082031 0.09375,0.082031 0.1171875,0.082031 0.070312,0 0.09375,-0.011719 0.1289063,-0.070312 0.1875,-0.2695313 0.3984375,-0.421875 0.6328125,-0.421875 0.082031,0 0.1875,0 0.375,0.1757812 0.2226562,0.2109375 0.3632812,0.3164063 0.5859375,0.3164063 0.7382808,0 1.2070308,-0.84375004 1.2070308,-1.07812504 0,-0.0820313 -0.07031,-0.09375 -0.117187,-0.09375 -0.08203,0 -0.09375,0.0351563 -0.128906,0.1171875 -0.128907,0.33984375 -0.539063,0.51562504 -0.8789066,0.51562504 -0.1640625,0 -0.3398437,-0.0351563 -0.515625,-0.0820313 C 8.8643672,0.872508 8.8057734,0.872508 8.6885859,0.872508 c -0.023437,0 -0.1171875,0 -0.1640625,0.0117186 z m 0,0"
         style="fill:#000000;fill-opacity:1;fill-rule:nonzero;stroke:none" />
      <path
         id="path4"
         d="m 15.043078,-0.73296094 c 0,-0.76171876 -0.09375,-1.31249996 -0.410156,-1.80468746 -0.222656,-0.3164063 -0.644531,-0.5976563 -1.207031,-0.5976563 -1.617188,0 -1.617188,1.8984375 -1.617188,2.40234376 0,0.50390625 0,2.36718754 1.617188,2.36718754 1.617187,0 1.617187,-1.86328129 1.617187,-2.36718754 z M 13.425891,1.4350078 c -0.316407,0 -0.75,-0.1875 -0.890625,-0.76171874 -0.09375,-0.41015625 -0.09375,-0.984375 -0.09375,-1.5 0,-0.50390626 0,-1.03124996 0.105468,-1.41796876 0.152344,-0.5507812 0.597657,-0.6914062 0.878907,-0.6914062 0.375,0 0.738281,0.2226562 0.867187,0.6328125 0.105469,0.375 0.117188,0.8789062 0.117188,1.47656246 0,0.515625 0,1.04296875 -0.09375,1.4765625 C 14.175891,1.2826641 13.707141,1.4350078 13.425891,1.4350078 Z m 0,0"
         style="fill:#000000;fill-opacity:1;fill-rule:nonzero;stroke:none" />
    </g>
    <path
       id="path5"
       d="m 28.3468,7.08669 v 28.3468 H 56.69362 V 7.08669 Z"
       style="fill:none;stroke:#000000;stroke-width:0.79701;stroke-linecap:butt;stroke-linejoin:miter;stroke-miterlimit:10;stroke-dasharray:none;stroke-opacity:1"
       transform="matrix(1.3333333,0,0,-1.3333333,19.429333,66.668)" />
    <g
       id="g5"
       aria-label="H&#10;y0"
       transform="matrix(1.3333333,0,0,1.3333333,64.761333,40.96)">
      <path
         id="path6"
         d="m 7.6057578,-6.0344531 c 0.082031,-0.3632813 0.1054688,-0.4570313 0.8320313,-0.4570313 0.2578125,0 0.3398437,0 0.3398437,-0.1992187 0,-0.1171875 -0.1054687,-0.1171875 -0.140625,-0.1171875 -0.28125,0 -0.9960937,0.035156 -1.2773437,0.035156 -0.28125,0 -0.9960938,-0.035156 -1.2773438,-0.035156 -0.082031,0 -0.1992187,0 -0.1992187,0.1992187 0,0.1171875 0.09375,0.1171875 0.28125,0.1171875 0.023437,0 0.2109375,0 0.375,0.011719 0.1875,0.023437 0.2695312,0.035156 0.2695312,0.1640625 0,0.035156 0,0.058594 -0.035156,0.1875 l -0.5976563,2.4375 H 3.1409141 l 0.5859375,-2.34375 c 0.09375,-0.3632813 0.1171875,-0.4570313 0.8320312,-0.4570313 0.2578125,0 0.3398438,0 0.3398438,-0.1992187 0,-0.1171875 -0.1054688,-0.1171875 -0.140625,-0.1171875 -0.2695313,0 -0.9960938,0.035156 -1.265625,0.035156 -0.2929688,0 -0.9960938,-0.035156 -1.2890625,-0.035156 -0.082031,0 -0.1875,0 -0.1875,0.1992187 0,0.1171875 0.082031,0.1171875 0.28125,0.1171875 0.011719,0 0.1992187,0 0.375,0.011719 0.1757812,0.023437 0.2695312,0.035156 0.2695312,0.1640625 0,0.035156 -0.011719,0.070312 -0.046875,0.1875 l -1.3359375,5.35546873 c -0.09375,0.38671875 -0.1171875,0.46875 -0.90234374,0.46875 -0.17578125,0 -0.26953125,0 -0.26953125,0.19921875 0,0.105468745 0.1171875,0.105468745 0.140625,0.105468745 0.28125,0 0.98437499,-0.035156245 1.26562499,-0.035156245 0.2109375,0 0.4335938,0.01171875 0.6328125,0.01171875 0.2226563,0 0.4453125,0.023437495 0.65625,0.023437495 0.070312,0 0.1992188,0 0.1992188,-0.199218745 0,-0.10546875 -0.09375,-0.10546875 -0.28125,-0.10546875 -0.375,0 -0.6445313,0 -0.6445313,-0.1875 0,-0.0585938 0.011719,-0.10546875 0.023437,-0.1640625 l 0.679688,-2.73046913 h 3.0351563 c -0.4101563,1.6523437 -0.6445313,2.60156248 -0.6796875,2.75390623 -0.1054688,0.31640625 -0.2929688,0.328125 -0.9140625,0.328125 -0.1523438,0 -0.234375,0 -0.234375,0.19921875 0,0.105468745 0.1171875,0.105468745 0.140625,0.105468745 0.28125,0 0.984375,-0.035156245 1.265625,-0.035156245 0.2109375,0 0.421875,0.01171875 0.6328125,0.01171875 0.2226562,0 0.4335937,0.023437495 0.6445312,0.023437495 0.082031,0 0.1992188,0 0.1992188,-0.199218745 0,-0.10546875 -0.082031,-0.10546875 -0.2695313,-0.10546875 -0.375,0 -0.65625,0 -0.65625,-0.1875 0,-0.0585938 0.023437,-0.10546875 0.035156,-0.1640625 z m 0,0"
         style="fill:#000000;fill-opacity:1;fill-rule:nonzero;stroke:none" />
      <path
         id="path7"
         d="m 12.158492,-1.1301562 c 0.02344,-0.1054688 0.02344,-0.1171875 0.02344,-0.1523438 0,-0.140625 -0.105469,-0.2226562 -0.222657,-0.2226562 -0.08203,0 -0.210937,0.035156 -0.292968,0.1640625 -0.02344,0.035156 -0.07031,0.2578125 -0.105469,0.39843745 l -0.152344,0.5859375 c -0.03516,0.1640625 -0.257812,1.04296875 -0.28125,1.125 0,0 -0.304687,0.59765625 -0.855469,0.59765625 -0.4687496,0 -0.4687496,-0.4453125 -0.4687496,-0.57421875 0,-0.375 0.1523438,-0.8203125 0.3632816,-1.359375 0.08203,-0.22265625 0.117187,-0.3046875 0.117187,-0.421875 0,-0.32812495 -0.28125,-0.58593745 -0.6562498,-0.58593745 -0.703125,0 -1.0195313,0.9492187 -1.0195313,1.0664062 0,0.0820313 0.09375,0.0820313 0.1171875,0.0820313 0.09375,0 0.1054688,-0.0351563 0.1289063,-0.10546875 0.1757812,-0.58593745 0.46875,-0.85546865 0.75,-0.85546865 0.1171875,0 0.1757812,0.082031 0.1757812,0.2460937 0,0.16406245 -0.058594,0.3164062 -0.09375,0.4101562 -0.3398437,0.84375 -0.4101562,1.1015625 -0.4101562,1.40625 0,0.1171875 0,0.4453126 0.2695312,0.6796876 C 9.7678672,1.53 10.060836,1.5651563 10.248336,1.5651563 c 0.28125,0 0.527344,-0.1054688 0.761719,-0.3164063 -0.09375,0.3867188 -0.175782,0.6796875 -0.46875,1.03125 -0.1875,0.2109375 -0.457032,0.4453125 -0.8320316,0.4453125 -0.046875,0 -0.375,0 -0.5273437,-0.234375 0.375,-0.035156 0.375,-0.375 0.375,-0.3867187 0,-0.2226563 -0.1992188,-0.2578125 -0.2695313,-0.2578125 -0.1757812,0 -0.3984375,0.140625 -0.3984375,0.4570312 0,0.3515625 0.328125,0.609375 0.8320313,0.609375 0.7031248,0 1.5585938,-0.5390625 1.7695308,-1.40625 z m 0,0"
         style="fill:#000000;fill-opacity:1;fill-rule:nonzero;stroke:none" />
      <path
         id="path8"
         d="m 16.169234,-0.73171875 c 0,-0.76171875 -0.09375,-1.31249995 -0.410156,-1.80468745 -0.222656,-0.3164063 -0.644531,-0.5976563 -1.207031,-0.5976563 -1.617188,0 -1.617188,1.8984375 -1.617188,2.40234375 0,0.50390625 0,2.36718755 1.617188,2.36718755 1.617187,0 1.617187,-1.8632813 1.617187,-2.36718755 z M 14.552047,1.43625 c -0.316406,0 -0.75,-0.1875 -0.890625,-0.76171875 -0.09375,-0.41015625 -0.09375,-0.984375 -0.09375,-1.5 0,-0.50390625 0,-1.03124995 0.105469,-1.41796875 0.152343,-0.5507812 0.597656,-0.6914062 0.878906,-0.6914062 0.375,0 0.738281,0.2226562 0.867187,0.6328125 0.105469,0.375 0.117188,0.8789062 0.117188,1.47656245 0,0.515625 0,1.04296875 -0.09375,1.4765625 C 15.302047,1.2839063 14.833297,1.43625 14.552047,1.43625 Z m 0,0"
         style="fill:#000000;fill-opacity:1;fill-rule:nonzero;stroke:none" />
    </g>
    <path
       id="path9"
       d="m 56.69362,7.08669 v 28.3468 h 28.3468 V 7.08669 Z"
       style="fill:none;stroke:#000000;stroke-width:0.79701;stroke-linecap:butt;stroke-linejoin:miter;stroke-miterlimit:10;stroke-dasharray:none;stroke-opacity:1"
       transform="matrix(1.3333333,0,0,-1.3333333,19.429333,66.668)" />
    <g
       id="g9"
       aria-label="E&#10;z1"
       transform="matrix(1.3333333,0,0,1.3333333,103.308,41.864)">
      <path
         id="path10"
         d="m 7.0551328,-2.3208516 c 0.023437,-0.046875 0.046875,-0.1171875 0.046875,-0.140625 0,-0.011719 0,-0.1054687 -0.1171875,-0.1054687 -0.09375,0 -0.1054687,0.058594 -0.1289062,0.1171875 -0.6445313,1.47656249 -1.0195313,2.14453124 -2.71875,2.14453124 h -1.453125 c -0.140625,0 -0.1640625,0 -0.2226563,-0.0117188 -0.1054687,-0.0117188 -0.1289062,-0.0234375 -0.1289062,-0.10546875 0,-0.0234375 0,-0.046875 0.046875,-0.22265625 L 3.0590391,-3.3638203 h 0.984375 c 0.84375,0 0.84375,0.2109375 0.84375,0.4570312 0,0.070312 0,0.1875 -0.070312,0.4804688 -0.011719,0.058594 -0.023437,0.082031 -0.023437,0.1171875 0,0.046875 0.035156,0.1054687 0.1289062,0.1054687 0.082031,0 0.1054688,-0.046875 0.1523438,-0.1992187 l 0.5625,-2.3320313 c 0,-0.058594 -0.046875,-0.1054687 -0.1171875,-0.1054687 -0.09375,0 -0.1054688,0.058594 -0.140625,0.1757812 -0.2109375,0.7617188 -0.3867188,0.984375 -1.3007813,0.984375 h -0.9375 l 0.5976563,-2.4023437 c 0.082031,-0.3398438 0.09375,-0.3867188 0.5390625,-0.3867188 h 1.40625 c 1.2070312,0 1.5117187,0.2929688 1.5117187,1.1132813 0,0.234375 0,0.2578125 -0.046875,0.5273437 0,0.058594 -0.011719,0.1289063 -0.011719,0.1757813 0,0.046875 0.035156,0.1171875 0.1289062,0.1171875 0.1054688,0 0.1171875,-0.058594 0.140625,-0.2460938 L 7.6059141,-6.5044453 C 7.6293516,-6.7739766 7.5824766,-6.7739766 7.3363828,-6.7739766 H 2.2973203 c -0.1992187,0 -0.2929687,0 -0.2929687,0.1992188 0,0.1054687 0.09375,0.1054687 0.28125,0.1054687 0.3632812,0 0.6445312,0 0.6445312,0.1875 0,0.035156 0,0.058594 -0.046875,0.234375 l -1.3242187,5.27343754 c -0.09375,0.38671875 -0.1171875,0.46875 -0.90234379,0.46875 -0.1640625,0 -0.28125,0 -0.28125,0.1875 0,0.1171874975 0.09375,0.1171874975 0.28125,0.1171874975 H 5.8246641 c 0.234375,0 0.2460937,-0.0117187475 0.3164062,-0.1640624975 z m 0,0"
         style="fill:#000000;fill-opacity:1;fill-rule:nonzero;stroke:none" />
      <path
         id="path11"
         d="m 8.5258359,0.88422656 c 0.1757813,-0.1875 0.3046875,-0.31640625 0.9023438,-0.796875 0.140625,-0.1171875 0.6679683,-0.52734375 0.8671873,-0.7265625 0.421875,-0.42187496 0.691406,-0.77343746 0.691406,-0.85546876 0,-0.082031 -0.09375,-0.082031 -0.117187,-0.082031 -0.05859,0 -0.08203,0.011719 -0.117188,0.070312 -0.222656,0.3164062 -0.363281,0.421875 -0.527343,0.421875 -0.09375,0 -0.199219,-0.011719 -0.3984378,-0.2109375 -0.2460938,-0.234375 -0.3984375,-0.28125 -0.5507813,-0.28125 -0.5625,0 -0.9375,0.59765621 -0.9375,0.80859371 0,0.0703125 0.070312,0.0820313 0.1171875,0.0820313 0.082031,0 0.09375,-0.0117188 0.1289063,-0.09375 C 8.6898984,-1.02593 9.0766172,-1.0376486 9.1820859,-1.0376486 c 0.1640625,0 0.3515625,0.046875 0.4453125,0.0585937 0.3867186,0.09375 0.4335936,0.09375 0.6093746,0.09375 -0.1875,0.1875 -0.3046871,0.3046875 -0.9726558,0.84375 C 8.7250547,0.38032031 8.5375547,0.55610156 8.3969297,0.69672656 7.9867734,1.1068828 7.7758359,1.4115703 7.7758359,1.4818828 c 0,0.082031 0.09375,0.082031 0.1171875,0.082031 0.070312,0 0.09375,-0.011719 0.1289063,-0.070312 0.1875,-0.2695313 0.3984375,-0.421875 0.6328125,-0.421875 0.082031,0 0.1875,0 0.375,0.1757812 0.2226562,0.2109375 0.3632812,0.3164063 0.5859375,0.3164063 0.7382813,0 1.2070313,-0.84375004 1.2070313,-1.07812504 0,-0.0820313 -0.07031,-0.09375 -0.117188,-0.09375 -0.08203,0 -0.09375,0.0351563 -0.128906,0.1171875 -0.128906,0.33984375 -0.539062,0.51562504 -0.8789061,0.51562504 -0.1640625,0 -0.3398437,-0.0351563 -0.515625,-0.0820313 C 8.8656797,0.872508 8.8070859,0.872508 8.6898984,0.872508 c -0.023437,0 -0.1171875,0 -0.1640625,0.0117186 z m 0,0"
         style="fill:#000000;fill-opacity:1;fill-rule:nonzero;stroke:none" />
      <path
         id="path12"
         d="m 13.778766,-2.9360859 c 0,-0.1875 -0.01172,-0.1992188 -0.210938,-0.1992188 -0.445312,0.4335938 -1.078125,0.4453125 -1.359375,0.4453125 v 0.2460938 c 0.164063,0 0.621094,0 1.007813,-0.1875 v 3.55078121 c 0,0.23437499 0,0.32812499 -0.691407,0.32812499 h -0.269531 v 0.2460938 c 0.128906,-0.011719 0.984375,-0.023437 1.242188,-0.023437 0.210937,0 1.089843,0.011719 1.242187,0.023437 V 1.2475078 h -0.257812 c -0.703125,0 -0.703125,-0.09375 -0.703125,-0.32812499 z m 0,0"
         style="fill:#000000;fill-opacity:1;fill-rule:nonzero;stroke:none" />
    </g>
    <path
       id="path13"
       d="m 85.04042,7.08669 v 28.3468 h 28.34682 V 7.08669 Z"
       style="fill:none;stroke:#000000;stroke-width:0.79701;stroke-linecap:butt;stroke-linejoin:miter;stroke-miterlimit:10;stroke-dasharray:none;stroke-opacity:1"
       transform="matrix(1.3333333,0,0,-1.3333333,19.429333,66.668)" />
    <g
       id="g13"
       aria-label="H&#10;y1"
       transform="matrix(1.3333333,0,0,1.3333333,140.35333,40.96)">
      <path
         id="path14"
         d="m 7.6041406,-6.0344531 c 0.082031,-0.3632813 0.1054688,-0.4570313 0.8320313,-0.4570313 0.2578125,0 0.3398437,0 0.3398437,-0.1992187 0,-0.1171875 -0.1054687,-0.1171875 -0.140625,-0.1171875 -0.28125,0 -0.9960937,0.035156 -1.2773437,0.035156 -0.28125,0 -0.9960938,-0.035156 -1.2773438,-0.035156 -0.082031,0 -0.1992187,0 -0.1992187,0.1992187 0,0.1171875 0.09375,0.1171875 0.28125,0.1171875 0.023437,0 0.2109375,0 0.375,0.011719 0.1875,0.023437 0.2695312,0.035156 0.2695312,0.1640625 0,0.035156 0,0.058594 -0.035156,0.1875 l -0.5976563,2.4375 H 3.1392969 l 0.5859375,-2.34375 c 0.09375,-0.3632813 0.1171875,-0.4570313 0.8320312,-0.4570313 0.2578125,0 0.3398438,0 0.3398438,-0.1992187 0,-0.1171875 -0.1054688,-0.1171875 -0.140625,-0.1171875 -0.2695313,0 -0.9960938,0.035156 -1.265625,0.035156 -0.2929688,0 -0.9960938,-0.035156 -1.2890625,-0.035156 -0.082031,0 -0.1875,0 -0.1875,0.1992187 0,0.1171875 0.082031,0.1171875 0.28125,0.1171875 0.011719,0 0.1992187,0 0.375,0.011719 0.1757812,0.023437 0.2695312,0.035156 0.2695312,0.1640625 0,0.035156 -0.011719,0.070312 -0.046875,0.1875 l -1.3359375,5.35546873 c -0.09375,0.38671875 -0.1171875,0.46875 -0.90234372,0.46875 -0.17578125,0 -0.26953125,0 -0.26953125,0.19921875 0,0.105468745 0.1171875,0.105468745 0.140625,0.105468745 0.28125,0 0.98437497,-0.035156245 1.26562497,-0.035156245 0.2109375,0 0.4335938,0.01171875 0.6328125,0.01171875 0.2226563,0 0.4453125,0.023437495 0.65625,0.023437495 0.070312,0 0.1992188,0 0.1992188,-0.199218745 0,-0.10546875 -0.09375,-0.10546875 -0.28125,-0.10546875 -0.375,0 -0.6445313,0 -0.6445313,-0.1875 0,-0.0585938 0.011719,-0.10546875 0.023437,-0.1640625 l 0.679688,-2.73046913 h 3.0351563 c -0.4101563,1.6523437 -0.6445313,2.60156248 -0.6796875,2.75390623 -0.1054688,0.31640625 -0.2929688,0.328125 -0.9140625,0.328125 -0.1523438,0 -0.234375,0 -0.234375,0.19921875 0,0.105468745 0.1171875,0.105468745 0.140625,0.105468745 0.28125,0 0.984375,-0.035156245 1.265625,-0.035156245 0.2109375,0 0.421875,0.01171875 0.6328125,0.01171875 0.2226562,0 0.4335937,0.023437495 0.6445312,0.023437495 0.082031,0 0.1992188,0 0.1992188,-0.199218745 0,-0.10546875 -0.082031,-0.10546875 -0.2695313,-0.10546875 -0.375,0 -0.65625,0 -0.65625,-0.1875 0,-0.0585938 0.023437,-0.10546875 0.035156,-0.1640625 z m 0,0"
         style="fill:#000000;fill-opacity:1;fill-rule:nonzero;stroke:none" />
      <path
         id="path15"
         d="m 12.159805,-1.1301562 c 0.02344,-0.1054688 0.02344,-0.1171875 0.02344,-0.1523438 0,-0.140625 -0.105469,-0.2226562 -0.222656,-0.2226562 -0.08203,0 -0.210938,0.035156 -0.292969,0.1640625 -0.02344,0.035156 -0.07031,0.2578125 -0.105469,0.39843745 l -0.152343,0.5859375 c -0.03516,0.1640625 -0.257813,1.04296875 -0.28125,1.125 0,0 -0.304688,0.59765625 -0.855469,0.59765625 -0.4687501,0 -0.4687501,-0.4453125 -0.4687501,-0.57421875 0,-0.375 0.1523438,-0.8203125 0.3632811,-1.359375 0.08203,-0.22265625 0.117188,-0.3046875 0.117188,-0.421875 0,-0.32812495 -0.28125,-0.58593745 -0.6562503,-0.58593745 -0.703125,0 -1.0195313,0.9492187 -1.0195313,1.0664062 0,0.0820313 0.09375,0.0820313 0.1171875,0.0820313 0.09375,0 0.1054688,-0.0351563 0.1289063,-0.10546875 0.1757812,-0.58593745 0.46875,-0.85546865 0.75,-0.85546865 0.1171875,0 0.1757812,0.082031 0.1757812,0.2460937 0,0.16406245 -0.058594,0.3164062 -0.09375,0.4101562 -0.3398437,0.84375 -0.4101562,1.1015625 -0.4101562,1.40625 0,0.1171875 0,0.4453126 0.2695312,0.6796876 C 9.7691797,1.53 10.062148,1.5651563 10.249648,1.5651563 c 0.28125,0 0.527344,-0.1054688 0.761719,-0.3164063 -0.09375,0.3867188 -0.175781,0.6796875 -0.46875,1.03125 -0.1875,0.2109375 -0.457031,0.4453125 -0.8320311,0.4453125 -0.046875,0 -0.375,0 -0.5273437,-0.234375 0.375,-0.035156 0.375,-0.375 0.375,-0.3867187 0,-0.2226563 -0.1992188,-0.2578125 -0.2695313,-0.2578125 -0.1757812,0 -0.3984375,0.140625 -0.3984375,0.4570312 0,0.3515625 0.328125,0.609375 0.8320313,0.609375 0.7031253,0 1.5585933,-0.5390625 1.7695313,-1.40625 z m 0,0"
         style="fill:#000000;fill-opacity:1;fill-rule:nonzero;stroke:none" />
      <path
         id="path16"
         d="m 14.904922,-2.9348437 c 0,-0.1875 -0.01172,-0.1992188 -0.210938,-0.1992188 -0.445312,0.4335938 -1.078125,0.4453125 -1.359375,0.4453125 v 0.2460938 c 0.164063,0 0.621094,0 1.007813,-0.1875 V 0.920625 c 0,0.234375 0,0.328125 -0.691406,0.328125 h -0.269532 v 0.2460938 c 0.128907,-0.011719 0.984375,-0.023437 1.242188,-0.023437 0.210937,0 1.089844,0.011719 1.242187,0.023437 V 1.24875 h -0.257812 c -0.703125,0 -0.703125,-0.09375 -0.703125,-0.328125 z m 0,0"
         style="fill:#000000;fill-opacity:1;fill-rule:nonzero;stroke:none" />
    </g>
    <path
       id="path17"
       d="m 113.38724,7.08669 v 28.3468 h 28.3468 V 7.08669 Z"
       style="fill:none;stroke:#000000;stroke-width:0.79701;stroke-linecap:butt;stroke-linejoin:miter;stroke-miterlimit:10;stroke-dasharray:none;stroke-opacity:1"
       transform="matrix(1.3333333,0,0,-1.3333333,19.429333,66.668)" />
    <g
       id="g17"
       aria-label="E&#10;z2"
       transform="matrix(1.3333333,0,0,1.3333333,178.9,41.864)">
      <path
         id="path18"
         d="m 7.0535156,-2.3208516 c 0.023437,-0.046875 0.046875,-0.1171875 0.046875,-0.140625 0,-0.011719 0,-0.1054687 -0.1171875,-0.1054687 -0.09375,0 -0.1054687,0.058594 -0.1289062,0.1171875 -0.6445313,1.47656249 -1.0195313,2.14453124 -2.71875,2.14453124 h -1.453125 c -0.140625,0 -0.1640625,0 -0.2226563,-0.0117188 -0.1054687,-0.0117188 -0.1289062,-0.0234375 -0.1289062,-0.10546875 0,-0.0234375 0,-0.046875 0.046875,-0.22265625 L 3.0574219,-3.3638203 h 0.984375 c 0.84375,0 0.84375,0.2109375 0.84375,0.4570312 0,0.070312 0,0.1875 -0.070312,0.4804688 -0.011719,0.058594 -0.023437,0.082031 -0.023437,0.1171875 0,0.046875 0.035156,0.1054687 0.1289062,0.1054687 0.082031,0 0.1054688,-0.046875 0.1523438,-0.1992187 l 0.5625,-2.3320313 c 0,-0.058594 -0.046875,-0.1054687 -0.1171875,-0.1054687 -0.09375,0 -0.1054688,0.058594 -0.140625,0.1757812 -0.2109375,0.7617188 -0.3867188,0.984375 -1.3007813,0.984375 h -0.9375 l 0.5976563,-2.4023437 c 0.082031,-0.3398438 0.09375,-0.3867188 0.5390625,-0.3867188 h 1.40625 c 1.2070312,0 1.5117187,0.2929688 1.5117187,1.1132813 0,0.234375 0,0.2578125 -0.046875,0.5273437 0,0.058594 -0.011719,0.1289063 -0.011719,0.1757813 0,0.046875 0.035156,0.1171875 0.1289062,0.1171875 0.1054688,0 0.1171875,-0.058594 0.140625,-0.2460938 L 7.6042969,-6.5044453 C 7.6277344,-6.7739766 7.5808594,-6.7739766 7.3347656,-6.7739766 H 2.2957031 c -0.1992187,0 -0.2929687,0 -0.2929687,0.1992188 0,0.1054687 0.09375,0.1054687 0.28125,0.1054687 0.3632812,0 0.6445312,0 0.6445312,0.1875 0,0.035156 0,0.058594 -0.046875,0.234375 l -1.3242187,5.27343754 c -0.09375,0.38671875 -0.1171875,0.46875 -0.90234377,0.46875 -0.1640625,0 -0.28125,0 -0.28125,0.1875 0,0.1171874975 0.09375,0.1171874975 0.28125,0.1171874975 H 5.8230469 c 0.234375,0 0.2460937,-0.0117187475 0.3164062,-0.1640624975 z m 0,0"
         style="fill:#000000;fill-opacity:1;fill-rule:nonzero;stroke:none" />
      <path
         id="path19"
         d="m 8.5271484,0.88422656 c 0.1757813,-0.1875 0.3046875,-0.31640625 0.9023438,-0.796875 0.140625,-0.1171875 0.6679688,-0.52734375 0.8671878,-0.7265625 0.421875,-0.42187496 0.691406,-0.77343746 0.691406,-0.85546876 0,-0.082031 -0.09375,-0.082031 -0.117188,-0.082031 -0.05859,0 -0.08203,0.011719 -0.117187,0.070312 -0.222656,0.3164062 -0.363281,0.421875 -0.527344,0.421875 -0.09375,0 -0.199219,-0.011719 -0.3984373,-0.2109375 -0.2460938,-0.234375 -0.3984375,-0.28125 -0.5507813,-0.28125 -0.5625,0 -0.9375,0.59765621 -0.9375,0.80859371 0,0.0703125 0.070312,0.0820313 0.1171875,0.0820313 0.082031,0 0.09375,-0.0117188 0.1289063,-0.09375 C 8.6912109,-1.02593 9.0779297,-1.0376486 9.1833984,-1.0376486 c 0.1640625,0 0.3515625,0.046875 0.4453125,0.0585937 0.3867191,0.09375 0.4335941,0.09375 0.6093751,0.09375 -0.1875,0.1875 -0.3046876,0.3046875 -0.9726563,0.84375 C 8.7263672,0.38032031 8.5388672,0.55610156 8.3982422,0.69672656 7.9880859,1.1068828 7.7771484,1.4115703 7.7771484,1.4818828 c 0,0.082031 0.09375,0.082031 0.1171875,0.082031 0.070312,0 0.09375,-0.011719 0.1289063,-0.070312 0.1875,-0.2695313 0.3984375,-0.421875 0.6328125,-0.421875 0.082031,0 0.1875,0 0.375,0.1757812 0.2226562,0.2109375 0.3632812,0.3164063 0.5859375,0.3164063 0.7382808,0 1.2070308,-0.84375004 1.2070308,-1.07812504 0,-0.0820313 -0.07031,-0.09375 -0.117187,-0.09375 -0.08203,0 -0.09375,0.0351563 -0.128906,0.1171875 -0.128907,0.33984375 -0.539063,0.51562504 -0.8789066,0.51562504 -0.1640625,0 -0.3398437,-0.0351563 -0.515625,-0.0820313 C 8.8669922,0.872508 8.8083984,0.872508 8.6912109,0.872508 c -0.023437,0 -0.1171875,0 -0.1640625,0.0117186 z m 0,0"
         style="fill:#000000;fill-opacity:1;fill-rule:nonzero;stroke:none" />
      <path
         id="path20"
         d="m 14.960742,0.22797656 h -0.234375 c -0.02344,0.15234375 -0.08203,0.5625 -0.175781,0.6328125 -0.05859,0.0351563 -0.597656,0.0351563 -0.691406,0.0351563 h -1.289063 c 0.738281,-0.64453125 0.984375,-0.84375 1.394531,-1.171875 0.515625,-0.41015625 0.996094,-0.84375006 0.996094,-1.49999996 0,-0.8437501 -0.738281,-1.3593751 -1.628906,-1.3593751 -0.867188,0 -1.453125,0.609375 -1.453125,1.2421875 0,0.3632813 0.304687,0.3984375 0.375,0.3984375 0.164062,0 0.375,-0.1171875 0.375,-0.375 0,-0.1289062 -0.05859,-0.3632812 -0.421875,-0.3632812 0.222656,-0.5039063 0.691406,-0.65625 1.019531,-0.65625 0.703125,0 1.066406,0.5507812 1.066406,1.1132813 0,0.609375 -0.433593,1.08984371 -0.65625,1.33593746 l -1.6875,1.66406254 c -0.07031,0.058594 -0.07031,0.070312 -0.07031,0.2695312 h 2.882812 z m 0,0"
         style="fill:#000000;fill-opacity:1;fill-rule:nonzero;stroke:none" />
    </g>
    <path
       id="path21"
       d="m 141.73404,7.08669 v 28.3468 h 28.34682 V 7.08669 Z"
       style="fill:none;stroke:#000000;stroke-width:0.79701;stroke-linecap:butt;stroke-linejoin:miter;stroke-miterlimit:10;stroke-dasharray:none;stroke-opacity:1"
       transform="matrix(1.3333333,0,0,-1.3333333,19.429333,66.668)" />
    <g
       id="g21"
       aria-label="H&#10;y2"
       transform="matrix(1.3333333,0,0,1.3333333,215.94533,40.96)">
      <path
         id="path22"
         d="m 7.6054531,-6.0344531 c 0.082031,-0.3632813 0.1054688,-0.4570313 0.8320313,-0.4570313 0.2578125,0 0.3398437,0 0.3398437,-0.1992187 0,-0.1171875 -0.1054687,-0.1171875 -0.140625,-0.1171875 -0.28125,0 -0.9960937,0.035156 -1.2773437,0.035156 -0.28125,0 -0.9960938,-0.035156 -1.2773438,-0.035156 -0.082031,0 -0.1992187,0 -0.1992187,0.1992187 0,0.1171875 0.09375,0.1171875 0.28125,0.1171875 0.023437,0 0.2109375,0 0.375,0.011719 0.1875,0.023437 0.2695312,0.035156 0.2695312,0.1640625 0,0.035156 0,0.058594 -0.035156,0.1875 l -0.5976563,2.4375 H 3.1406094 l 0.5859375,-2.34375 c 0.09375,-0.3632813 0.1171875,-0.4570313 0.8320312,-0.4570313 0.2578125,0 0.3398438,0 0.3398438,-0.1992187 0,-0.1171875 -0.1054688,-0.1171875 -0.140625,-0.1171875 -0.2695313,0 -0.9960938,0.035156 -1.265625,0.035156 -0.2929688,0 -0.9960938,-0.035156 -1.2890625,-0.035156 -0.082031,0 -0.1875,0 -0.1875,0.1992187 0,0.1171875 0.082031,0.1171875 0.28125,0.1171875 0.011719,0 0.1992187,0 0.375,0.011719 0.1757812,0.023437 0.2695312,0.035156 0.2695312,0.1640625 0,0.035156 -0.011719,0.070312 -0.046875,0.1875 l -1.3359375,5.35546873 c -0.09375,0.38671875 -0.1171875,0.46875 -0.90234373,0.46875 -0.17578125,0 -0.26953125,0 -0.26953125,0.19921875 0,0.105468745 0.1171875,0.105468745 0.140625,0.105468745 0.28125,0 0.98437498,-0.035156245 1.26562498,-0.035156245 0.2109375,0 0.4335938,0.01171875 0.6328125,0.01171875 0.2226563,0 0.4453125,0.023437495 0.65625,0.023437495 0.070312,0 0.1992188,0 0.1992188,-0.199218745 0,-0.10546875 -0.09375,-0.10546875 -0.28125,-0.10546875 -0.375,0 -0.6445313,0 -0.6445313,-0.1875 0,-0.0585938 0.011719,-0.10546875 0.023437,-0.1640625 l 0.679688,-2.73046913 h 3.0351563 c -0.4101563,1.6523437 -0.6445313,2.60156248 -0.6796875,2.75390623 -0.1054688,0.31640625 -0.2929688,0.328125 -0.9140625,0.328125 -0.1523438,0 -0.234375,0 -0.234375,0.19921875 0,0.105468745 0.1171875,0.105468745 0.140625,0.105468745 0.28125,0 0.984375,-0.035156245 1.265625,-0.035156245 0.2109375,0 0.421875,0.01171875 0.6328125,0.01171875 0.2226562,0 0.4335937,0.023437495 0.6445312,0.023437495 0.082031,0 0.1992188,0 0.1992188,-0.199218745 0,-0.10546875 -0.082031,-0.10546875 -0.2695313,-0.10546875 -0.375,0 -0.65625,0 -0.65625,-0.1875 0,-0.0585938 0.023437,-0.10546875 0.035156,-0.1640625 z m 0,0"
         style="fill:#000000;fill-opacity:1;fill-rule:nonzero;stroke:none" />
      <path
         id="path23"
         d="m 12.161117,-1.1301562 c 0.02344,-0.1054688 0.02344,-0.1171875 0.02344,-0.1523438 0,-0.140625 -0.105469,-0.2226562 -0.222657,-0.2226562 -0.08203,0 -0.210937,0.035156 -0.292968,0.1640625 -0.02344,0.035156 -0.07031,0.2578125 -0.105469,0.39843745 l -0.152344,0.5859375 c -0.03516,0.1640625 -0.257812,1.04296875 -0.28125,1.125 0,0 -0.304687,0.59765625 -0.855469,0.59765625 -0.4687496,0 -0.4687496,-0.4453125 -0.4687496,-0.57421875 0,-0.375 0.1523438,-0.8203125 0.3632816,-1.359375 0.08203,-0.22265625 0.117187,-0.3046875 0.117187,-0.421875 0,-0.32812495 -0.28125,-0.58593745 -0.6562498,-0.58593745 -0.703125,0 -1.0195313,0.9492187 -1.0195313,1.0664062 0,0.0820313 0.09375,0.0820313 0.1171875,0.0820313 0.09375,0 0.1054688,-0.0351563 0.1289063,-0.10546875 0.1757812,-0.58593745 0.46875,-0.85546865 0.75,-0.85546865 0.1171875,0 0.1757812,0.082031 0.1757812,0.2460937 0,0.16406245 -0.058594,0.3164062 -0.09375,0.4101562 -0.3398437,0.84375 -0.4101562,1.1015625 -0.4101562,1.40625 0,0.1171875 0,0.4453126 0.2695312,0.6796876 C 9.7704922,1.53 10.063461,1.5651563 10.250961,1.5651563 c 0.28125,0 0.527344,-0.1054688 0.761719,-0.3164063 -0.09375,0.3867188 -0.175782,0.6796875 -0.46875,1.03125 -0.1875,0.2109375 -0.457032,0.4453125 -0.8320316,0.4453125 -0.046875,0 -0.375,0 -0.5273437,-0.234375 0.375,-0.035156 0.375,-0.375 0.375,-0.3867187 0,-0.2226563 -0.1992188,-0.2578125 -0.2695313,-0.2578125 -0.1757812,0 -0.3984375,0.140625 -0.3984375,0.4570312 0,0.3515625 0.328125,0.609375 0.8320313,0.609375 0.7031248,0 1.5585938,-0.5390625 1.7695308,-1.40625 z m 0,0"
         style="fill:#000000;fill-opacity:1;fill-rule:nonzero;stroke:none" />
      <path
         id="path24"
         d="m 16.086898,0.22921875 h -0.234375 c -0.02344,0.15234375 -0.08203,0.5625 -0.175781,0.6328125 -0.05859,0.0351563 -0.597656,0.0351563 -0.691406,0.0351563 h -1.289063 c 0.738282,-0.64453125 0.984375,-0.84375 1.394532,-1.171875 0.515625,-0.41015625 0.996093,-0.84374995 0.996093,-1.49999995 0,-0.8437501 -0.738281,-1.3593751 -1.628906,-1.3593751 -0.867187,0 -1.453125,0.609375 -1.453125,1.2421876 0,0.3632812 0.304688,0.3984375 0.375,0.3984375 0.164063,0 0.375,-0.1171875 0.375,-0.375 0,-0.1289063 -0.05859,-0.3632813 -0.421875,-0.3632813 0.222656,-0.5039063 0.691406,-0.65625 1.019531,-0.65625 0.703125,0 1.066407,0.5507812 1.066407,1.1132813 0,0.609375 -0.433594,1.0898437 -0.65625,1.33593745 l -1.6875,1.66406255 c -0.07031,0.058594 -0.07031,0.070312 -0.07031,0.2695313 h 2.882813 z m 0,0"
         style="fill:#000000;fill-opacity:1;fill-rule:nonzero;stroke:none" />
    </g>
    <path
       id="path25"
       d="m 170.08086,7.08669 v 28.3468 h 28.3468 V 7.08669 Z"
       style="fill:none;stroke:#000000;stroke-width:0.79701;stroke-linecap:butt;stroke-linejoin:miter;stroke-miterlimit:10;stroke-dasharray:none;stroke-opacity:1"
       transform="matrix(1.3333333,0,0,-1.3333333,19.429333,66.668)" />
    <g
       id="g25"
       aria-label="E&#10;z3"
       transform="matrix(1.3333333,0,0,1.3333333,254.49067,41.864)">
      <path
         id="path26"
         d="m 7.0558281,-2.3208516 c 0.023437,-0.046875 0.046875,-0.1171875 0.046875,-0.140625 0,-0.011719 0,-0.1054687 -0.1171875,-0.1054687 -0.09375,0 -0.1054687,0.058594 -0.1289062,0.1171875 -0.6445313,1.47656249 -1.0195313,2.14453124 -2.71875,2.14453124 h -1.453125 c -0.140625,0 -0.1640625,0 -0.2226563,-0.0117188 -0.1054687,-0.0117188 -0.1289062,-0.0234375 -0.1289062,-0.10546875 0,-0.0234375 0,-0.046875 0.046875,-0.22265625 L 3.0597344,-3.3638203 h 0.984375 c 0.84375,0 0.84375,0.2109375 0.84375,0.4570312 0,0.070312 0,0.1875 -0.070312,0.4804688 -0.011719,0.058594 -0.023437,0.082031 -0.023437,0.1171875 0,0.046875 0.035156,0.1054687 0.1289062,0.1054687 0.082031,0 0.1054688,-0.046875 0.1523438,-0.1992187 l 0.5625,-2.3320313 c 0,-0.058594 -0.046875,-0.1054687 -0.1171875,-0.1054687 -0.09375,0 -0.1054688,0.058594 -0.140625,0.1757812 -0.2109375,0.7617188 -0.3867188,0.984375 -1.3007813,0.984375 h -0.9375 l 0.5976563,-2.4023437 c 0.082031,-0.3398438 0.09375,-0.3867188 0.5390625,-0.3867188 h 1.40625 c 1.2070312,0 1.5117187,0.2929688 1.5117187,1.1132813 0,0.234375 0,0.2578125 -0.046875,0.5273437 0,0.058594 -0.011719,0.1289063 -0.011719,0.1757813 0,0.046875 0.035156,0.1171875 0.1289062,0.1171875 0.1054688,0 0.1171875,-0.058594 0.140625,-0.2460938 L 7.6066094,-6.5044453 C 7.6300469,-6.7739766 7.5831719,-6.7739766 7.3370781,-6.7739766 H 2.2980156 c -0.1992187,0 -0.2929687,0 -0.2929687,0.1992188 0,0.1054687 0.09375,0.1054687 0.28125,0.1054687 0.3632812,0 0.6445312,0 0.6445312,0.1875 0,0.035156 0,0.058594 -0.046875,0.234375 l -1.3242187,5.27343754 c -0.09375,0.38671875 -0.1171875,0.46875 -0.90234377,0.46875 -0.1640625,0 -0.28125,0 -0.28125,0.1875 0,0.1171874975 0.09375,0.1171874975 0.28125,0.1171874975 H 5.8253594 c 0.234375,0 0.2460937,-0.0117187475 0.3164062,-0.1640624975 z m 0,0"
         style="fill:#000000;fill-opacity:1;fill-rule:nonzero;stroke:none" />
      <path
         id="path27"
         d="m 8.5265313,0.88422656 c 0.1757812,-0.1875 0.3046875,-0.31640625 0.9023437,-0.796875 0.140625,-0.1171875 0.667969,-0.52734375 0.867188,-0.7265625 0.421875,-0.42187496 0.691406,-0.77343746 0.691406,-0.85546876 0,-0.082031 -0.09375,-0.082031 -0.117188,-0.082031 -0.05859,0 -0.08203,0.011719 -0.117187,0.070312 -0.222656,0.3164062 -0.363281,0.421875 -0.527344,0.421875 -0.09375,0 -0.199219,-0.011719 -0.3984375,-0.2109375 -0.2460937,-0.234375 -0.3984375,-0.28125 -0.5507812,-0.28125 -0.5625,0 -0.9375,0.59765621 -0.9375,0.80859371 0,0.0703125 0.070312,0.0820313 0.1171875,0.0820313 0.082031,0 0.09375,-0.0117188 0.1289062,-0.09375 C 8.6905938,-1.02593 9.0773125,-1.0376486 9.1827813,-1.0376486 c 0.1640625,0 0.3515625,0.046875 0.4453125,0.0585937 0.3867192,0.09375 0.4335942,0.09375 0.6093752,0.09375 -0.1875,0.1875 -0.3046877,0.3046875 -0.9726565,0.84375 C 8.72575,0.38032031 8.53825,0.55610156 8.397625,0.69672656 7.9874688,1.1068828 7.7765313,1.4115703 7.7765313,1.4818828 c 0,0.082031 0.09375,0.082031 0.1171875,0.082031 0.070312,0 0.09375,-0.011719 0.1289062,-0.070312 0.1875,-0.2695313 0.3984375,-0.421875 0.6328125,-0.421875 0.082031,0 0.1875,0 0.375,0.1757812 0.2226563,0.2109375 0.3632813,0.3164063 0.5859375,0.3164063 0.738281,0 1.207031,-0.84375004 1.207031,-1.07812504 0,-0.0820313 -0.07031,-0.09375 -0.117187,-0.09375 -0.08203,0 -0.09375,0.0351563 -0.128906,0.1171875 C 10.448406,0.84907051 10.03825,1.0248518 9.6984063,1.0248518 9.5343438,1.0248518 9.3585625,0.9896955 9.1827813,0.9428205 8.866375,0.872508 8.8077813,0.872508 8.6905938,0.872508 c -0.023437,0 -0.1171875,0 -0.1640625,0.0117186 z m 0,0"
         style="fill:#000000;fill-opacity:1;fill-rule:nonzero;stroke:none" />
      <path
         id="path28"
         d="m 13.345867,-0.83842969 c 0.550781,0 0.9375,0.375 0.9375,1.125 0,0.86718749 -0.503906,1.12499999 -0.902344,1.12499999 -0.28125,0 -0.890625,-0.082031 -1.183593,-0.49218749 0.328125,-0.0117188 0.398437,-0.24609375 0.398437,-0.38671875 0,-0.22265625 -0.164062,-0.38671875 -0.386719,-0.38671875 -0.1875,0 -0.386718,0.1171875 -0.386718,0.41015625 0,0.65625004 0.726562,1.07812504 1.570312,1.07812504 0.972656,0 1.640625,-0.64453129 1.640625,-1.34765629 0,-0.5390625 -0.445312,-1.08984375 -1.21875,-1.2421875 0.738281,-0.26953121 0.996094,-0.79687501 0.996094,-1.21875001 0,-0.5507812 -0.632813,-0.9609375 -1.40625,-0.9609375 -0.773438,0 -1.359375,0.375 -1.359375,0.9375 0,0.234375 0.152344,0.3632813 0.363281,0.3632813 0.210938,0 0.351563,-0.1640625 0.351563,-0.3515625 0,-0.1992188 -0.140625,-0.3515625 -0.351563,-0.3632813 0.234375,-0.3046875 0.714844,-0.3867187 0.972656,-0.3867187 0.316407,0 0.761719,0.1523437 0.761719,0.7617187 0,0.2929688 -0.105469,0.609375 -0.28125,0.8320313 -0.234375,0.2578125 -0.421875,0.28125 -0.773437,0.2929687 -0.175782,0.023437 -0.1875,0.023437 -0.222657,0.023437 -0.01172,0 -0.07031,0.011719 -0.07031,0.09375 0,0.09375 0.05859,0.09375 0.175781,0.09375 z m 0,0"
         style="fill:#000000;fill-opacity:1;fill-rule:nonzero;stroke:none" />
    </g>
    <path
       id="path29"
       d="m 198.42766,7.08669 v 28.3468 h 28.34682 V 7.08669 Z"
       style="fill:none;stroke:#000000;stroke-width:0.79701;stroke-linecap:butt;stroke-linejoin:miter;stroke-miterlimit:10;stroke-dasharray:none;stroke-opacity:1"
       transform="matrix(1.3333333,0,0,-1.3333333,19.429333,66.668)" />
    <g
       id="g29"
       aria-label="H&#10;y3"
       transform="matrix(1.3333333,0,0,1.3333333,291.536,40.96)">
      <path
         id="path30"
         d="m 7.6048359,-6.0344531 c 0.082031,-0.3632813 0.1054688,-0.4570313 0.8320313,-0.4570313 0.2578125,0 0.3398437,0 0.3398437,-0.1992187 0,-0.1171875 -0.1054687,-0.1171875 -0.140625,-0.1171875 -0.28125,0 -0.9960937,0.035156 -1.2773437,0.035156 -0.28125,0 -0.9960938,-0.035156 -1.2773438,-0.035156 -0.082031,0 -0.1992187,0 -0.1992187,0.1992187 0,0.1171875 0.09375,0.1171875 0.28125,0.1171875 0.023437,0 0.2109375,0 0.375,0.011719 0.1875,0.023437 0.2695312,0.035156 0.2695312,0.1640625 0,0.035156 0,0.058594 -0.035156,0.1875 l -0.5976563,2.4375 H 3.1399922 l 0.5859375,-2.34375 c 0.09375,-0.3632813 0.1171875,-0.4570313 0.8320312,-0.4570313 0.2578125,0 0.3398438,0 0.3398438,-0.1992187 0,-0.1171875 -0.1054688,-0.1171875 -0.140625,-0.1171875 -0.2695313,0 -0.9960938,0.035156 -1.265625,0.035156 -0.2929688,0 -0.9960938,-0.035156 -1.2890625,-0.035156 -0.082031,0 -0.1875,0 -0.1875,0.1992187 0,0.1171875 0.082031,0.1171875 0.28125,0.1171875 0.011719,0 0.1992187,0 0.375,0.011719 0.1757812,0.023437 0.2695312,0.035156 0.2695312,0.1640625 0,0.035156 -0.011719,0.070312 -0.046875,0.1875 l -1.3359375,5.35546873 c -0.09375,0.38671875 -0.1171875,0.46875 -0.90234371,0.46875 -0.17578125,0 -0.26953125,0 -0.26953125,0.19921875 0,0.105468745 0.1171875,0.105468745 0.140625,0.105468745 0.28125,0 0.98437496,-0.035156245 1.26562496,-0.035156245 0.2109375,0 0.4335938,0.01171875 0.6328125,0.01171875 0.2226563,0 0.4453125,0.023437495 0.65625,0.023437495 0.070312,0 0.1992188,0 0.1992188,-0.199218745 0,-0.10546875 -0.09375,-0.10546875 -0.28125,-0.10546875 -0.375,0 -0.6445313,0 -0.6445313,-0.1875 0,-0.0585938 0.011719,-0.10546875 0.023437,-0.1640625 l 0.679688,-2.73046913 h 3.0351563 c -0.4101563,1.6523437 -0.6445313,2.60156248 -0.6796875,2.75390623 -0.1054688,0.31640625 -0.2929688,0.328125 -0.9140625,0.328125 -0.1523438,0 -0.234375,0 -0.234375,0.19921875 0,0.105468745 0.1171875,0.105468745 0.140625,0.105468745 0.28125,0 0.984375,-0.035156245 1.265625,-0.035156245 0.2109375,0 0.421875,0.01171875 0.6328125,0.01171875 0.2226562,0 0.4335937,0.023437495 0.6445312,0.023437495 0.082031,0 0.1992188,0 0.1992188,-0.199218745 0,-0.10546875 -0.082031,-0.10546875 -0.2695313,-0.10546875 -0.375,0 -0.65625,0 -0.65625,-0.1875 0,-0.0585938 0.023437,-0.10546875 0.035156,-0.1640625 z m 0,0"
         style="fill:#000000;fill-opacity:1;fill-rule:nonzero;stroke:none" />
      <path
         id="path31"
         d="m 12.1605,-1.1301562 c 0.02344,-0.1054688 0.02344,-0.1171875 0.02344,-0.1523438 0,-0.140625 -0.105469,-0.2226562 -0.222657,-0.2226562 -0.08203,0 -0.210937,0.035156 -0.292968,0.1640625 -0.02344,0.035156 -0.07031,0.2578125 -0.105469,0.39843745 l -0.152344,0.5859375 c -0.03516,0.1640625 -0.257812,1.04296875 -0.28125,1.125 0,0 -0.304687,0.59765625 -0.855469,0.59765625 -0.4687497,0 -0.4687497,-0.4453125 -0.4687497,-0.57421875 0,-0.375 0.1523437,-0.8203125 0.3632817,-1.359375 0.08203,-0.22265625 0.117187,-0.3046875 0.117187,-0.421875 0,-0.32812495 -0.28125,-0.58593745 -0.65625,-0.58593745 -0.703125,0 -1.0195312,0.9492187 -1.0195312,1.0664062 0,0.0820313 0.09375,0.0820313 0.1171875,0.0820313 0.09375,0 0.1054687,-0.0351563 0.1289062,-0.10546875 0.1757813,-0.58593745 0.46875,-0.85546865 0.75,-0.85546865 0.1171875,0 0.1757813,0.082031 0.1757813,0.2460937 0,0.16406245 -0.058594,0.3164062 -0.09375,0.4101562 -0.3398438,0.84375 -0.4101563,1.1015625 -0.4101563,1.40625 0,0.1171875 0,0.4453126 0.2695313,0.6796876 C 9.769875,1.53 10.062844,1.5651563 10.250344,1.5651563 c 0.28125,0 0.527344,-0.1054688 0.761719,-0.3164063 -0.09375,0.3867188 -0.175782,0.6796875 -0.46875,1.03125 -0.1875,0.2109375 -0.457032,0.4453125 -0.8320317,0.4453125 -0.046875,0 -0.375,0 -0.5273438,-0.234375 0.375,-0.035156 0.375,-0.375 0.375,-0.3867187 0,-0.2226563 -0.1992187,-0.2578125 -0.2695312,-0.2578125 -0.1757813,0 -0.3984375,0.140625 -0.3984375,0.4570312 0,0.3515625 0.328125,0.609375 0.8320312,0.609375 0.703125,0 1.558594,-0.5390625 1.769531,-1.40625 z m 0,0"
         style="fill:#000000;fill-opacity:1;fill-rule:nonzero;stroke:none" />
      <path
         id="path32"
         d="m 14.469094,-0.8371875 c 0.550781,0 0.9375,0.375 0.9375,1.125 0,0.8671875 -0.503906,1.125 -0.902344,1.125 -0.28125,0 -0.890625,-0.082031 -1.183594,-0.4921875 0.328125,-0.0117188 0.398438,-0.24609375 0.398438,-0.38671875 0,-0.22265625 -0.164063,-0.38671875 -0.386719,-0.38671875 -0.1875,0 -0.386719,0.1171875 -0.386719,0.41015625 0,0.65625005 0.726563,1.07812505 1.570313,1.07812505 0.972656,0 1.640625,-0.6445313 1.640625,-1.3476563 0,-0.5390625 -0.445313,-1.08984375 -1.21875,-1.2421875 0.738281,-0.2695312 0.996094,-0.796875 0.996094,-1.21875 0,-0.5507812 -0.632813,-0.9609375 -1.40625,-0.9609375 -0.773438,0 -1.359375,0.375 -1.359375,0.9375 0,0.234375 0.152343,0.3632813 0.363281,0.3632813 0.210937,0 0.351562,-0.1640625 0.351562,-0.3515625 0,-0.1992188 -0.140625,-0.3515625 -0.351562,-0.3632813 0.234375,-0.3046875 0.714844,-0.3867187 0.972656,-0.3867187 0.316406,0 0.761719,0.1523437 0.761719,0.7617187 0,0.2929688 -0.105469,0.609375 -0.28125,0.8320313 -0.234375,0.2578125 -0.421875,0.28125 -0.773438,0.2929687 -0.175781,0.023437 -0.1875,0.023437 -0.222656,0.023437 -0.01172,0 -0.07031,0.011719 -0.07031,0.09375 0,0.09375 0.05859,0.09375 0.175781,0.09375 z m 0,0"
         style="fill:#000000;fill-opacity:1;fill-rule:nonzero;stroke:none" />
    </g>
    <path
       id="path33"
       d="m 28.3468,7.08669 v 28.3468 H 56.69362 V 7.08669 Z"
       style="fill:none;stroke:#000000;stroke-width:0.79701;stroke-linecap:butt;stroke-linejoin:miter;stroke-miterlimit:10;stroke-dasharray:none;stroke-opacity:1"
       transform="matrix(1.3333333,0,0,-1.3333333,19.429333,66.668)" />
    <path
       id="path34"
       d="M 0,-7.08669 H 226.06711"
       style="fill:none;stroke:#000000;stroke-width:0.79701;stroke-linecap:butt;stroke-linejoin:miter;stroke-miterlimit:10;stroke-dasharray:none;stroke-opacity:1"
       transform="matrix(1.3333333,0,0,-1.3333333,19.429333,66.668)" />
    <path
       id="path35"
       d="M -1.55415,2.0722 C -1.42464,1.29512 0,0.1295 0.38852,0 0,-0.1295 -1.42464,-1.29512 -1.55415,-2.0722"
       style="fill:none;stroke:#000000;stroke-width:0.6376;stroke-linecap:round;stroke-linejoin:round;stroke-miterlimit:10;stroke-dasharray:none;stroke-opacity:1"
       transform="matrix(1.3333333,0,0,-1.3333333,320.85215,76.11692)" />
    <path
       id="path36"
       d="m 3.3275547,-3.0112969 c 0.058594,-0.2578125 0.2929687,-1.171875 0.984375,-1.171875 0.046875,0 0.2929687,0 0.5039062,0.1289063 -0.28125,0.046875 -0.4804687,0.3046875 -0.4804687,0.5390625 0,0.1640625 0.1054687,0.3515625 0.375,0.3515625 0.2226562,0 0.5390625,-0.1875 0.5390625,-0.5859375 0,-0.515625 -0.5859375,-0.65625 -0.9257813,-0.65625 -0.5742187,0 -0.9257812,0.5273437 -1.0429687,0.7617187 -0.2578125,-0.65625 -0.7851563,-0.7617187 -1.078125,-0.7617187 -1.0429688,0 -1.60546876,1.2890625 -1.60546876,1.5351562 0,0.1054688 0.10546875,0.1054688 0.1171875,0.1054688 0.0820313,0 0.1171875,-0.023437 0.12890625,-0.1171875 0.33984371,-1.0546875 0.99609371,-1.3007813 1.33593751,-1.3007813 0.1875,0 0.5390625,0.09375 0.5390625,0.6679688 0,0.3046875 -0.1640625,0.9726562 -0.5390625,2.3671875 -0.1523438,0.62109373 -0.5039063,1.04296873 -0.9492188,1.04296873 -0.058594,0 -0.28124996,0 -0.49218746,-0.12890625 0.24609375,-0.0585938 0.46874996,-0.26953125 0.46874996,-0.5390625 0,-0.26953128 -0.22265621,-0.35156248 -0.37499996,-0.35156248 -0.29296875,0 -0.5390625,0.25781248 -0.5390625,0.57421873 0,0.45703125 0.4921875,0.65625 0.93749996,0.65625 0.65625,0 1.0078125,-0.69140625 1.0429688,-0.75 0.1171875,0.36328125 0.4804687,0.75 1.078125,0.75 1.0195312,0 1.59375,-1.27734373 1.59375,-1.53515623 0,-0.09375 -0.09375,-0.09375 -0.1289063,-0.09375 -0.082031,0 -0.1054687,0.035156 -0.1289062,0.1054687 -0.328125,1.06640628 -0.9960938,1.31250003 -1.3242188,1.31250003 -0.3867187,0 -0.5390625,-0.328125 -0.5390625,-0.65625 0,-0.22265625 0.058594,-0.44531253 0.1640625,-0.87890623 z m 0,0"
       style="fill:#000000;fill-opacity:1;fill-rule:nonzero;stroke:none"
       aria-label="x"
       transform="matrix(1.3333333,0,0,1.3333333,326.75467,78.976)" />
    <path
       id="path37"
       d="m 14.17339,-7.08669 v -5.66926"
       style="fill:none;stroke:#000000;stroke-width:0.79701;stroke-linecap:butt;stroke-linejoin:miter;stroke-miterlimit:10;stroke-dasharray:none;stroke-opacity:1"
       transform="matrix(1.3333333,0,0,-1.3333333,19.429333,66.668)" />
    <path
       id="path38"
       d="m 4.5828906,-3.1872344 c 0,-0.796875 -0.046875,-1.59375 -0.3984375,-2.3320312 -0.4570312,-0.9609375 -1.2773437,-1.1132813 -1.6875,-1.1132813 -0.5976562,0 -1.3359375,0.2578125 -1.73437497,1.1835938 -0.328125,0.6914062 -0.375,1.4648437 -0.375,2.2617187 0,0.75 0.046875,1.640625 0.4453125,2.40234377 0.43359377,0.80859375 1.16015627,1.0078125 1.65234377,1.0078125 0.5390625,0 1.2890625,-0.2109375 1.734375,-1.16015625 C 4.5360156,-1.6286406 4.5828906,-2.4020781 4.5828906,-3.1872344 Z M 2.4852344,2.65625e-4 c -0.3867188,0 -0.984375,-0.246093755 -1.1601563,-1.207031225 -0.1054687,-0.5976563 -0.1054687,-1.5117188 -0.1054687,-2.0976563 0,-0.6445312 0,-1.3007812 0.082031,-1.8398437 0.1875,-1.1835938 0.9257813,-1.265625 1.1835938,-1.265625 0.328125,0 0.984375,0.1757812 1.171875,1.1601562 0.09375,0.5625 0.09375,1.3125 0.09375,1.9453125 0,0.75 0,1.4179688 -0.1054688,2.0625 C 3.4930469,-0.30442188 2.9305469,2.65625e-4 2.4852344,2.65625e-4 Z m 0,0"
       style="fill:#000000;fill-opacity:1;fill-rule:nonzero;stroke:none"
       aria-label="0"
       transform="matrix(1.3333333,0,0,1.3333333,35.006667,96.929333)" />
    <path
       id="path39"
       d="m 42.5202,-7.08669 v -5.66926"
       style="fill:none;stroke:#000000;stroke-width:0.79701;stroke-linecap:butt;stroke-linejoin:miter;stroke-miterlimit:10;stroke-dasharray:none;stroke-opacity:1"
       transform="matrix(1.3333333,0,0,-1.3333333,19.429333,66.668)" />
    <g
       id="g39"
       aria-label="0.5"
       transform="matrix(1.3333333,0,0,1.3333333,67.636,96.929333)">
      <path
         id="path40"
         d="m 4.5825703,-3.1872344 c 0,-0.796875 -0.046875,-1.59375 -0.3984375,-2.3320312 -0.4570312,-0.9609375 -1.2773437,-1.1132813 -1.6875,-1.1132813 -0.5976562,0 -1.3359375,0.2578125 -1.73437499,1.1835938 -0.328125,0.6914062 -0.375,1.4648437 -0.375,2.2617187 0,0.75 0.046875,1.640625 0.4453125,2.40234377 0.43359379,0.80859375 1.16015629,1.0078125 1.65234379,1.0078125 0.5390625,0 1.2890625,-0.2109375 1.734375,-1.16015625 C 4.5356953,-1.6286406 4.5825703,-2.4020781 4.5825703,-3.1872344 Z M 2.4849141,2.65625e-4 c -0.3867188,0 -0.984375,-0.246093755 -1.1601563,-1.207031225 -0.1054687,-0.5976563 -0.1054687,-1.5117188 -0.1054687,-2.0976563 0,-0.6445312 0,-1.3007812 0.082031,-1.8398437 0.1875,-1.1835938 0.9257813,-1.265625 1.1835938,-1.265625 0.328125,0 0.984375,0.1757812 1.171875,1.1601562 0.09375,0.5625 0.09375,1.3125 0.09375,1.9453125 0,0.75 0,1.4179688 -0.1054688,2.0625 C 3.4927266,-0.30442188 2.9302266,2.65625e-4 2.4849141,2.65625e-4 Z m 0,0"
         style="fill:#000000;fill-opacity:1;fill-rule:nonzero;stroke:none" />
      <path
         id="path41"
         d="m 6.8911641,-0.52707813 c 0,-0.29296875 -0.234375,-0.52734377 -0.5273438,-0.52734377 -0.28125,0 -0.5273437,0.23437502 -0.5273437,0.52734377 0,0.29296875 0.2460937,0.527343755 0.5273437,0.527343755 0.2929688,0 0.5273438,-0.234375005 0.5273438,-0.527343755 z m 0,0"
         style="fill:#000000;fill-opacity:1;fill-rule:nonzero;stroke:none" />
      <path
         id="path42"
         d="m 12.223195,-2.0036406 c 0,-1.1835938 -0.820312,-2.1796875 -1.898437,-2.1796875 -0.4804689,0 -0.9023439,0.1640625 -1.2656252,0.5039062 v -1.9335937 c 0.1992188,0.058594 0.5273438,0.1289062 0.84375,0.1289062 1.2304692,0 1.9335942,-0.9140625 1.9335942,-1.0429687 0,-0.058594 -0.03516,-0.1054688 -0.105469,-0.1054688 -0.01172,0 -0.03516,0 -0.08203,0.023437 -0.199219,0.09375 -0.679688,0.2929688 -1.347657,0.2929688 -0.3984372,0 -0.8554684,-0.070312 -1.3242184,-0.28125 -0.082031,-0.023437 -0.1054688,-0.023437 -0.1289063,-0.023437 -0.09375,0 -0.09375,0.082031 -0.09375,0.234375 v 2.953125 c 0,0.1757812 0,0.2578125 0.140625,0.2578125 0.070312,0 0.082031,-0.035156 0.1289063,-0.09375 0.1054687,-0.1523438 0.4804687,-0.6914063 1.2773434,-0.6914063 0.527344,0 0.773438,0.4570313 0.855469,0.6328125 0.152344,0.375 0.175781,0.7617188 0.175781,1.2539063 0,0.3515625 0,0.9492187 -0.234375,1.37109372 -0.246093,0.38671875 -0.609375,0.64453125 -1.066406,0.64453125 -0.7265624,0 -1.3007812,-0.52734375 -1.4648437,-1.11328127 0.023437,0.011719 0.058594,0.011719 0.1640625,0.011719 0.328125,0 0.5039063,-0.2460938 0.5039063,-0.4804688 0,-0.2460937 -0.1757813,-0.4921875 -0.5039063,-0.4921875 -0.140625,0 -0.4804687,0.070312 -0.4804687,0.5273438 0,0.85546872 0.6796875,1.82812497 1.7929689,1.82812497 1.160156,0 2.179687,-0.9609375 2.179687,-2.22656247 z m 0,0"
         style="fill:#000000;fill-opacity:1;fill-rule:nonzero;stroke:none" />
    </g>
    <path
       id="path43"
       d="m 70.867,-7.08669 v -5.66926"
       style="fill:none;stroke:#000000;stroke-width:0.79701;stroke-linecap:butt;stroke-linejoin:miter;stroke-miterlimit:10;stroke-dasharray:none;stroke-opacity:1"
       transform="matrix(1.3333333,0,0,-1.3333333,19.429333,66.668)" />
    <path
       id="path44"
       d="m 2.9299297,-6.3747344 c 0,-0.234375 0,-0.2578125 -0.234375,-0.2578125 -0.609375,0.6328125 -1.4882813,0.6328125 -1.80468751,0.6328125 v 0.3164063 c 0.19921871,0 0.78515621,0 1.30078121,-0.2578125 v 5.15624997 c 0,0.3515625 -0.035156,0.48046875 -0.9257812,0.48046875 H 0.94946094 V 2.65625e-4 C 1.3010234,-0.03489063 2.1564922,-0.03489063 2.5549297,-0.03489063 c 0.3984375,0 1.265625,0 1.6171875,0.035156255 V -0.30442188 H 3.8557109 c -0.9023437,0 -0.9257812,-0.1171875 -0.9257812,-0.48046875 z m 0,0"
       style="fill:#000000;fill-opacity:1;fill-rule:nonzero;stroke:none"
       aria-label="1"
       transform="matrix(1.3333333,0,0,1.3333333,110.59733,96.929333)" />
    <path
       id="path45"
       d="m 99.21382,-7.08669 v -5.66926"
       style="fill:none;stroke:#000000;stroke-width:0.79701;stroke-linecap:butt;stroke-linejoin:miter;stroke-miterlimit:10;stroke-dasharray:none;stroke-opacity:1"
       transform="matrix(1.3333333,0,0,-1.3333333,19.429333,66.668)" />
    <g
       id="g45"
       aria-label="1.5"
       transform="matrix(1.3333333,0,0,1.3333333,143.228,96.929333)">
      <path
         id="path46"
         d="m 2.9286094,-6.3747344 c 0,-0.234375 0,-0.2578125 -0.234375,-0.2578125 -0.609375,0.6328125 -1.4882813,0.6328125 -1.80468753,0.6328125 v 0.3164063 c 0.19921873,0 0.78515623,0 1.30078123,-0.2578125 v 5.15624997 c 0,0.3515625 -0.035156,0.48046875 -0.9257812,0.48046875 H 0.94814062 V 2.65625e-4 C 1.2997031,-0.03489063 2.1551719,-0.03489063 2.5536094,-0.03489063 c 0.3984375,0 1.265625,0 1.6171875,0.035156255 V -0.30442188 H 3.8543906 c -0.9023437,0 -0.9257812,-0.1171875 -0.9257812,-0.48046875 z m 0,0"
         style="fill:#000000;fill-opacity:1;fill-rule:nonzero;stroke:none" />
      <path
         id="path47"
         d="m 6.8924766,-0.52707813 c 0,-0.29296875 -0.234375,-0.52734377 -0.5273438,-0.52734377 -0.28125,0 -0.5273437,0.23437502 -0.5273437,0.52734377 0,0.29296875 0.2460937,0.527343755 0.5273437,0.527343755 0.2929688,0 0.5273438,-0.234375005 0.5273438,-0.527343755 z m 0,0"
         style="fill:#000000;fill-opacity:1;fill-rule:nonzero;stroke:none" />
      <path
         id="path48"
         d="m 12.224508,-2.0036406 c 0,-1.1835938 -0.820313,-2.1796875 -1.898438,-2.1796875 -0.4804684,0 -0.9023434,0.1640625 -1.2656247,0.5039062 v -1.9335937 c 0.1992188,0.058594 0.5273438,0.1289062 0.84375,0.1289062 1.2304687,0 1.9335937,-0.9140625 1.9335937,-1.0429687 0,-0.058594 -0.03516,-0.1054688 -0.105469,-0.1054688 -0.01172,0 -0.03516,0 -0.08203,0.023437 -0.199219,0.09375 -0.679687,0.2929688 -1.347656,0.2929688 -0.3984377,0 -0.8554689,-0.070312 -1.3242189,-0.28125 -0.082031,-0.023437 -0.1054688,-0.023437 -0.1289063,-0.023437 -0.09375,0 -0.09375,0.082031 -0.09375,0.234375 v 2.953125 c 0,0.1757812 0,0.2578125 0.140625,0.2578125 0.070312,0 0.082031,-0.035156 0.1289063,-0.09375 0.1054687,-0.1523438 0.4804687,-0.6914063 1.2773439,-0.6914063 0.527344,0 0.773437,0.4570313 0.855469,0.6328125 0.152343,0.375 0.175781,0.7617188 0.175781,1.2539063 0,0.3515625 0,0.9492187 -0.234375,1.37109372 -0.246094,0.38671875 -0.609375,0.64453125 -1.066406,0.64453125 -0.7265629,0 -1.3007817,-0.52734375 -1.4648442,-1.11328127 0.023437,0.011719 0.058594,0.011719 0.1640625,0.011719 0.328125,0 0.5039063,-0.2460938 0.5039063,-0.4804688 0,-0.2460937 -0.1757813,-0.4921875 -0.5039063,-0.4921875 -0.140625,0 -0.4804687,0.070312 -0.4804687,0.5273438 0,0.85546872 0.6796875,1.82812497 1.7929684,1.82812497 1.160157,0 2.179688,-0.9609375 2.179688,-2.22656247 z m 0,0"
         style="fill:#000000;fill-opacity:1;fill-rule:nonzero;stroke:none" />
    </g>
    <path
       id="path49"
       d="m 127.56062,-7.08669 v -5.66926"
       style="fill:none;stroke:#000000;stroke-width:0.79701;stroke-linecap:butt;stroke-linejoin:miter;stroke-miterlimit:10;stroke-dasharray:none;stroke-opacity:1"
       transform="matrix(1.3333333,0,0,-1.3333333,19.429333,66.668)" />
    <path
       id="path50"
       d="M 1.26425,-0.76145313 2.3189375,-1.7927031 c 1.5585938,-1.3710938 2.15625,-1.9101563 2.15625,-2.90625 0,-1.1367188 -0.9023437,-1.9335938 -2.1210937,-1.9335938 -1.125,0 -1.85156255,0.9140625 -1.85156255,1.8046875 0,0.5507813 0.4921875,0.5507813 0.52734375,0.5507813 0.1640625,0 0.515625,-0.1171875 0.515625,-0.5273438 0,-0.2578125 -0.1875,-0.515625 -0.5273437,-0.515625 -0.0820313,0 -0.1054688,0 -0.1289063,0.011719 0.2226563,-0.6445313 0.7617188,-1.0195313 1.3359375,-1.0195313 0.9140625,0 1.3359375,0.8085938 1.3359375,1.6289063 0,0.796875 -0.4921875,1.5820312 -1.0429687,2.203125 L 0.608,-0.36301563 C 0.50253125,-0.25754688 0.50253125,-0.23410938 0.50253125,2.65625e-4 H 4.1939375 L 4.4751875,-1.7341094 H 4.217375 c -0.046875,0.3046875 -0.1171875,0.73828127 -0.2109375,0.89062502 -0.070312,0.0820313 -0.7265625,0.0820313 -0.9492187,0.0820313 z m 0,0"
       style="fill:#000000;fill-opacity:1;fill-rule:nonzero;stroke:none"
       aria-label="2"
       transform="matrix(1.3333333,0,0,1.3333333,186.18933,96.929333)" />
    <path
       id="path51"
       d="m 155.90744,-7.08669 v -5.66926"
       style="fill:none;stroke:#000000;stroke-width:0.79701;stroke-linecap:butt;stroke-linejoin:miter;stroke-miterlimit:10;stroke-dasharray:none;stroke-opacity:1"
       transform="matrix(1.3333333,0,0,-1.3333333,19.429333,66.668)" />
    <g
       id="g51"
       aria-label="2.5"
       transform="matrix(1.3333333,0,0,1.3333333,218.81867,96.929333)">
      <path
         id="path52"
         d="M 1.2668594,-0.76145313 2.3215469,-1.7927031 c 1.5585937,-1.3710938 2.15625,-1.9101563 2.15625,-2.90625 0,-1.1367188 -0.9023438,-1.9335938 -2.1210938,-1.9335938 -1.125,0 -1.85156247,0.9140625 -1.85156247,1.8046875 0,0.5507813 0.4921875,0.5507813 0.52734377,0.5507813 0.1640625,0 0.515625,-0.1171875 0.515625,-0.5273438 0,-0.2578125 -0.1875,-0.515625 -0.5273438,-0.515625 -0.0820312,0 -0.10546872,0 -0.12890622,0.011719 0.22265622,-0.6445313 0.76171872,-1.0195313 1.33593752,-1.0195313 0.9140625,0 1.3359375,0.8085938 1.3359375,1.6289063 0,0.796875 -0.4921875,1.5820312 -1.0429688,2.203125 L 0.61060938,-0.36301563 C 0.50514063,-0.25754688 0.50514063,-0.23410938 0.50514063,2.65625e-4 H 4.1965469 L 4.4777969,-1.7341094 H 4.2199844 c -0.046875,0.3046875 -0.1171875,0.73828127 -0.2109375,0.89062502 -0.070313,0.0820313 -0.7265625,0.0820313 -0.9492188,0.0820313 z m 0,0"
         style="fill:#000000;fill-opacity:1;fill-rule:nonzero;stroke:none" />
      <path
         id="path53"
         d="m 6.8918594,-0.52707813 c 0,-0.29296875 -0.234375,-0.52734377 -0.5273438,-0.52734377 -0.28125,0 -0.5273437,0.23437502 -0.5273437,0.52734377 0,0.29296875 0.2460937,0.527343755 0.5273437,0.527343755 0.2929688,0 0.5273438,-0.234375005 0.5273438,-0.527343755 z m 0,0"
         style="fill:#000000;fill-opacity:1;fill-rule:nonzero;stroke:none" />
      <path
         id="path54"
         d="m 12.223891,-2.0036406 c 0,-1.1835938 -0.820313,-2.1796875 -1.898438,-2.1796875 -0.4804686,0 -0.9023436,0.1640625 -1.2656249,0.5039062 v -1.9335937 c 0.1992188,0.058594 0.5273438,0.1289062 0.84375,0.1289062 1.2304689,0 1.9335939,-0.9140625 1.9335939,-1.0429687 0,-0.058594 -0.03516,-0.1054688 -0.105469,-0.1054688 -0.01172,0 -0.03516,0 -0.08203,0.023437 -0.199219,0.09375 -0.679688,0.2929688 -1.347656,0.2929688 -0.3984379,0 -0.8554691,-0.070312 -1.3242191,-0.28125 -0.082031,-0.023437 -0.1054688,-0.023437 -0.1289063,-0.023437 -0.09375,0 -0.09375,0.082031 -0.09375,0.234375 v 2.953125 c 0,0.1757812 0,0.2578125 0.140625,0.2578125 0.070312,0 0.082031,-0.035156 0.1289063,-0.09375 0.1054687,-0.1523438 0.4804687,-0.6914063 1.2773441,-0.6914063 0.527343,0 0.773437,0.4570313 0.855468,0.6328125 0.152344,0.375 0.175782,0.7617188 0.175782,1.2539063 0,0.3515625 0,0.9492187 -0.234375,1.37109372 -0.246094,0.38671875 -0.609375,0.64453125 -1.066407,0.64453125 -0.7265621,0 -1.3007809,-0.52734375 -1.4648434,-1.11328127 0.023437,0.011719 0.058594,0.011719 0.1640625,0.011719 0.328125,0 0.5039063,-0.2460938 0.5039063,-0.4804688 0,-0.2460937 -0.1757813,-0.4921875 -0.5039063,-0.4921875 -0.140625,0 -0.4804687,0.070312 -0.4804687,0.5273438 0,0.85546872 0.6796875,1.82812497 1.7929686,1.82812497 1.160156,0 2.179688,-0.9609375 2.179688,-2.22656247 z m 0,0"
         style="fill:#000000;fill-opacity:1;fill-rule:nonzero;stroke:none" />
    </g>
    <path
       id="path55"
       d="m 184.25424,-7.08669 v -5.66926"
       style="fill:none;stroke:#000000;stroke-width:0.79701;stroke-linecap:butt;stroke-linejoin:miter;stroke-miterlimit:10;stroke-dasharray:none;stroke-opacity:1"
       transform="matrix(1.3333333,0,0,-1.3333333,19.429333,66.668)" />
    <path
       id="path56"
       d="M 2.8944688,-3.5036406 C 3.7030625,-3.7731719 4.289,-4.4762969 4.289,-5.2614531 c 0,-0.8203125 -0.8789062,-1.3710938 -1.8398437,-1.3710938 -1.0078125,0 -1.75781255,0.5976563 -1.75781255,1.3476563 0,0.3398437 0.2109375,0.5273437 0.50390625,0.5273437 0.3046875,0 0.5039063,-0.2226562 0.5039063,-0.515625 0,-0.4921875 -0.46875,-0.4921875 -0.609375,-0.4921875 0.3046875,-0.4921875 0.9609375,-0.6210937 1.3242187,-0.6210937 0.4101563,0 0.9492188,0.2226562 0.9492188,1.1132812 0,0.1289063 -0.011719,0.703125 -0.2695313,1.1367188 -0.3046875,0.4804687 -0.6445312,0.515625 -0.890625,0.515625 -0.082031,0.011719 -0.3164062,0.035156 -0.3867187,0.035156 C 1.7343125,-3.5739531 1.664,-3.5622344 1.664,-3.4684844 c 0,0.1171875 0.070312,0.1171875 0.234375,0.1171875 h 0.4453125 c 0.8085938,0 1.1835938,0.6679688 1.1835938,1.6523438 0,1.34765622 -0.6914063,1.64062497 -1.125,1.64062497 -0.4335938,0 -1.171875,-0.17578125 -1.52343755,-0.76171875 0.35156255,0.0585938 0.65625005,-0.1640625 0.65625005,-0.53906252 0,-0.3632812 -0.2695313,-0.5625 -0.56250005,-0.5625 -0.234375,0 -0.55078125,0.140625 -0.55078125,0.5742188 0,0.91406247 0.9257813,1.57031247 2.0039063,1.57031247 1.21875,0 2.1210937,-0.9140625 2.1210937,-1.92187497 0,-0.8203125 -0.6210937,-1.59375 -1.6523437,-1.8046875 z m 0,0"
       style="fill:#000000;fill-opacity:1;fill-rule:nonzero;stroke:none"
       aria-label="3"
       transform="matrix(1.3333333,0,0,1.3333333,261.78133,96.929333)" />
    <path
       id="path57"
       d="m 212.60106,-7.08669 v -5.66926"
       style="fill:none;stroke:#000000;stroke-width:0.79701;stroke-linecap:butt;stroke-linejoin:miter;stroke-miterlimit:10;stroke-dasharray:none;stroke-opacity:1"
       transform="matrix(1.3333333,0,0,-1.3333333,19.429333,66.668)" />
    <g
       id="g57"
       aria-label="3.5"
       transform="matrix(1.3333333,0,0,1.3333333,294.41067,96.929333)">
      <path
         id="path58"
         d="m 2.8941484,-3.5036406 c 0.8085938,-0.2695313 1.3945313,-0.9726563 1.3945313,-1.7578125 0,-0.8203125 -0.8789063,-1.3710938 -1.8398438,-1.3710938 -1.0078125,0 -1.75781246,0.5976563 -1.75781246,1.3476563 0,0.3398437 0.2109375,0.5273437 0.50390626,0.5273437 0.3046875,0 0.5039062,-0.2226562 0.5039062,-0.515625 0,-0.4921875 -0.46875,-0.4921875 -0.609375,-0.4921875 0.3046875,-0.4921875 0.9609375,-0.6210937 1.3242188,-0.6210937 0.4101562,0 0.9492187,0.2226562 0.9492187,1.1132812 0,0.1289063 -0.011719,0.703125 -0.2695312,1.1367188 -0.3046875,0.4804687 -0.6445313,0.515625 -0.890625,0.515625 -0.082031,0.011719 -0.3164063,0.035156 -0.3867188,0.035156 -0.082031,0.011719 -0.1523437,0.023437 -0.1523437,0.1171875 0,0.1171875 0.070312,0.1171875 0.234375,0.1171875 h 0.4453125 c 0.8085937,0 1.1835937,0.6679688 1.1835937,1.6523438 0,1.34765622 -0.6914062,1.64062497 -1.125,1.64062497 -0.4335937,0 -1.171875,-0.17578125 -1.52343746,-0.76171875 0.35156246,0.0585938 0.65624996,-0.1640625 0.65624996,-0.53906252 0,-0.3632812 -0.2695312,-0.5625 -0.56249996,-0.5625 -0.234375,0 -0.55078125,0.140625 -0.55078125,0.5742188 0,0.91406247 0.92578121,1.57031247 2.00390621,1.57031247 1.21875,0 2.1210938,-0.9140625 2.1210938,-1.92187497 0,-0.8203125 -0.6210938,-1.59375 -1.6523438,-1.8046873 z m 0,0"
         style="fill:#000000;fill-opacity:1;fill-rule:nonzero;stroke:none" />
      <path
         id="path59"
         d="m 6.8902422,-0.52707813 c 0,-0.29296875 -0.234375,-0.52734377 -0.5273438,-0.52734377 -0.28125,0 -0.5273437,0.23437502 -0.5273437,0.52734377 0,0.29296875 0.2460937,0.527343755 0.5273437,0.527343755 0.2929688,0 0.5273438,-0.234375005 0.5273438,-0.527343755 z m 0,0"
         style="fill:#000000;fill-opacity:1;fill-rule:nonzero;stroke:none" />
      <path
         id="path60"
         d="m 12.225203,-2.0036406 c 0,-1.1835938 -0.820312,-2.1796875 -1.898437,-2.1796875 -0.4804691,0 -0.9023441,0.1640625 -1.2656254,0.5039062 v -1.9335937 c 0.1992188,0.058594 0.5273438,0.1289062 0.84375,0.1289062 1.2304684,0 1.9335934,-0.9140625 1.9335934,-1.0429687 0,-0.058594 -0.03516,-0.1054688 -0.105468,-0.1054688 -0.01172,0 -0.03516,0 -0.08203,0.023437 -0.199218,0.09375 -0.679687,0.2929688 -1.347656,0.2929688 -0.3984374,0 -0.8554686,-0.070312 -1.3242186,-0.28125 -0.082031,-0.023437 -0.1054688,-0.023437 -0.1289063,-0.023437 -0.09375,0 -0.09375,0.082031 -0.09375,0.234375 v 2.953125 c 0,0.1757812 0,0.2578125 0.140625,0.2578125 0.070312,0 0.082031,-0.035156 0.1289063,-0.09375 0.1054687,-0.1523438 0.4804687,-0.6914063 1.2773436,-0.6914063 0.527344,0 0.773438,0.4570313 0.855469,0.6328125 0.152344,0.375 0.175781,0.7617188 0.175781,1.2539063 0,0.3515625 0,0.9492187 -0.234375,1.37109372 -0.246094,0.38671875 -0.609375,0.64453125 -1.066406,0.64453125 -0.7265626,0 -1.3007814,-0.52734375 -1.4648439,-1.11328127 0.023437,0.011719 0.058594,0.011719 0.1640625,0.011719 0.328125,0 0.5039063,-0.2460938 0.5039063,-0.4804688 0,-0.2460937 -0.1757813,-0.4921875 -0.5039063,-0.4921875 -0.140625,0 -0.4804687,0.070312 -0.4804687,0.5273438 0,0.85546872 0.6796875,1.82812497 1.7929691,1.82812497 1.160156,0 2.179687,-0.9609375 2.179687,-2.22656247 z m 0,0"
         style="fill:#000000;fill-opacity:1;fill-rule:nonzero;stroke:none" />
    </g>
  </g>
</svg>
